<?xml version="1.0" standalone="no"?>
<!DOCTYPE svg PUBLIC "-//W3C//DTD SVG 1.1//EN" "http://www.w3.org/Graphics/SVG/1.1/DTD/svg11.dtd" >
<svg xmlns="http://www.w3.org/2000/svg" xmlns:xlink="http://www.w3.org/1999/xlink" version="1.1">
<metadata>
Created by FontForge 20170731 at Mon Dec 26 12:33:53 2022
 By Aleksey,,,
</metadata>
<defs>
<font id="GangwonEduPowerExtraBoldA" horiz-adv-x="1843" >
  <font-face 
    font-family="GangwonEduPowerExtraBoldA"
    font-weight="700"
    font-stretch="normal"
    units-per-em="2048"
    panose-1="2 0 8 3 0 0 0 0 0 0"
    ascent="1638"
    descent="-410"
    x-height="1200"
    cap-height="1593"
    bbox="-70 -327.22 2025 1817"
    underline-thickness="102"
    underline-position="-307"
    unicode-range="U+0020-FFE6"
  />
<missing-glyph horiz-adv-x="2048" 
d="M205 -92h1638v1638h-1638v-1638zM307 10v1434h1434v-1434h-1434z" />
    <glyph glyph-name=".notdef" horiz-adv-x="2048" 
d="M205 -92h1638v1638h-1638v-1638zM307 10v1434h1434v-1434h-1434z" />
    <glyph glyph-name=".null" horiz-adv-x="0" 
 />
    <glyph glyph-name="nonmarkingreturn" horiz-adv-x="682" 
 />
    <glyph glyph-name="space" unicode=" " horiz-adv-x="512" 
 />
    <glyph glyph-name="exclam" unicode="!" horiz-adv-x="655" 
d="M150 1630v-1009h358v1009h-358zM147 438v-401h359v401h-359z" />
    <glyph glyph-name="quotedbl" unicode="&#x22;" horiz-adv-x="780" 
d="M694 1122l21 363v205h-277l11 -568h245zM317 1122l21 363v205h-277l11 -568h245z" />
    <glyph glyph-name="numbersign" unicode="#" horiz-adv-x="1583" 
d="M1499 1040v338h-209l17 250h-346l-17 -250h-254l17 250h-338l-17 -250h-241v-338h219l-23 -352h-225v-338h205l-21 -313h344l19 313h250l-19 -313h346l19 313h250v338h-228l23 352h229zM924 1040l-23 -352h-252l21 352h254z" />
    <glyph glyph-name="dollar" unicode="$" horiz-adv-x="1280" 
d="M879 121q177 50 257 165t54 285q-16 105 -111.5 207.5t-267.5 186.5q-203 99 -238 163q-20 31 -1.5 65.5t69.5 37.5q68 4 163 -34.5t159 -96.5l215 254q-134 161 -351 209v127h-368v-138q-189 -52 -266 -211q-30 -66 -34.5 -140t18 -147.5t80 -143t144.5 -119.5
q90 -52 200.5 -105.5t152.5 -77.5q42 -23 46.5 -62.5t-23.5 -70t-70 -31.5q-95 -2 -196 34.5t-230 129.5l-220 -252q55 -75 152.5 -137.5t179.5 -89.5q36 -11 66 -16v-140h368v136q8 2 26 6t26 6z" />
    <glyph glyph-name="percent" unicode="%" horiz-adv-x="1679" 
d="M1196 1649l-981 -1452l274 -195l979 1473zM774 1253q0 151 -110 261t-261 110t-260.5 -110t-109.5 -261t109.5 -260.5t260.5 -109.5t261 109.5t110 260.5zM498 1253q0 -35 -30 -64.5t-65 -29.5t-64.5 29.5t-29.5 64.5t29.5 65t64.5 30t65 -30t30 -65zM1657 391
q0 151 -110 261t-261 110t-261 -110t-110 -261t110 -261t261 -110t261 110t110 261zM1380 391q0 -35 -29.5 -64.5t-64.5 -29.5t-64.5 29.5t-29.5 64.5t29.5 64.5t64.5 29.5t64.5 -29.5t29.5 -64.5z" />
    <glyph glyph-name="ampersand" unicode="&#x26;" horiz-adv-x="1400" 
d="M633 1032q-88 79 -109 144q-21 59 13.5 104t101.5 53q59 8 100 -23.5t41 -92.5q0 -54 -39 -102.5t-108 -82.5zM547 635l223 -219q-64 -80 -166 -68q-112 9 -143 105q-16 46 6 98.5t80 83.5zM842 811q101 66 165 138t89 145t21 144t-36 144q-37 88 -115 150t-172.5 87
t-189.5 15q-352 -37 -426 -325q-29 -103 5.5 -218.5t138.5 -213.5q-89 -48 -148.5 -122t-82 -155t-18 -162.5t37.5 -150.5q61 -130 187.5 -209t299.5 -72q128 6 234.5 49t179.5 119l168 -160l247 246l-200 189l157 196l-264 193l-129 -168z" />
    <glyph glyph-name="quotesingle" unicode="'" horiz-adv-x="436" 
d="M346 1122l21 375v193h-299l10 -568h268z" />
    <glyph glyph-name="parenleft" unicode="(" horiz-adv-x="768" 
d="M113 834q0 -259 68 -483.5t204 -391.5l307 115q-121 198 -176 381t-55 379q0 199 59.5 398.5t171.5 360.5l-307 115q-136 -167 -204 -391.5t-68 -482.5z" />
    <glyph glyph-name="parenright" unicode=")" horiz-adv-x="768" 
d="M664 834q0 258 -68.5 482.5t-204.5 391.5l-307 -115q112 -161 171.5 -360.5t59.5 -398.5q0 -196 -55 -379t-176 -381l307 -115q136 167 204.5 392t68.5 483z" />
    <glyph glyph-name="asterisk" unicode="*" horiz-adv-x="1001" 
d="M500 590l133 -187l278 201l-141 158l188 57l-100 322l-184 -54l4 205h-356l4 -205l-185 54l-100 -322l190 -57l-143 -164l279 -197z" />
    <glyph glyph-name="plus" unicode="+" horiz-adv-x="1214" 
d="M422 1016h-336v-338h336v-373h371v373h335v338h-335v375h-371v-375z" />
    <glyph glyph-name="comma" unicode="," horiz-adv-x="675" 
d="M66 426v-350h112l-10 -174h264l37 286v238h-403z" />
    <glyph glyph-name="hyphen" unicode="-" horiz-adv-x="1064" 
d="M979 1006h-893v-328h893v328z" />
    <glyph glyph-name="period" unicode="." horiz-adv-x="675" 
d="M489 35v371h-403v-371h403z" />
    <glyph glyph-name="slash" unicode="/" horiz-adv-x="808" 
d="M53 20l389 -61l314 1683l-387 62z" />
    <glyph glyph-name="zero" unicode="0" horiz-adv-x="1208" 
d="M604 53q555 0 555 781q0 174 -30 309.5t-80.5 222.5t-123 143.5t-151 79.5t-170.5 23t-170.5 -23t-151 -79.5t-123 -143.5t-80.5 -222.5t-30 -309.5q0 -781 555 -781zM604 360q-42 0 -78.5 24t-67.5 76.5t-49 148t-18 225.5q0 109 12 192.5t32 135.5t48.5 85t57.5 45.5
t63 12.5t63 -12.5t57.5 -45.5t48.5 -85t32 -135.5t12 -192.5q0 -130 -18 -225.5t-49 -148t-67.5 -76.5t-78.5 -24z" />
    <glyph glyph-name="one" unicode="1" horiz-adv-x="667" 
d="M205 1155v-1081h358v1519h-274q-27 -57 -96.5 -92t-151.5 -47v-311z" />
    <glyph glyph-name="two" unicode="2" horiz-adv-x="1208" 
d="M90 74h723q223 0 344 26v314q-90 -19 -268 -19h-258q151 138 224 217t146 189q58 88 87 191t25.5 193.5t-34.5 155.5q-58 127 -193.5 206t-299.5 73q-220 -6 -351 -142.5t-163 -371.5l354 -62q7 102 56 162.5t118 63.5q54 3 102 -35.5t52 -101.5q12 -116 -181 -334
q-113 -126 -208 -217.5t-275 -255.5v-252z" />
    <glyph glyph-name="three" unicode="3" horiz-adv-x="1208" 
d="M483 713q3 0 125 6q87 6 144 -45t51 -135q-6 -80 -76.5 -124.5t-157.5 -29.5q-74 12 -132.5 87t-69.5 167l-336 -66q23 -229 160.5 -367t349.5 -157q224 -17 385.5 69t216.5 253q22 65 23.5 138t-15.5 142.5t-59.5 130.5t-104.5 97q103 87 132.5 231t-25.5 264
q-61 138 -217 203.5t-351 38.5q-188 -25 -308.5 -146.5t-147.5 -322.5l333 -64q6 86 55 141t117 70q91 20 147.5 -24t51.5 -117q-9 -164 -311 -176z" />
    <glyph glyph-name="four" unicode="4" horiz-adv-x="1208" 
d="M662 1128v-481h-226zM557 1593l-500 -983v-274h594v-262h348v262h27q95 0 156 16v307q-47 -12 -135 -12h-48v946h-442z" />
    <glyph glyph-name="five" unicode="5" horiz-adv-x="1208" 
d="M496 1059l20 213h537v321h-867l-80 -790l287 -80q92 110 240 80q98 -22 143.5 -90t32.5 -154q-13 -94 -80 -142t-166 -40q-69 6 -123.5 55t-79.5 123l-315 -96q48 -183 181.5 -292t303.5 -118q235 -15 392 75.5t215 285.5q51 166 0.5 323.5t-172.5 247.5
q-95 70 -233.5 90t-235.5 -12z" />
    <glyph glyph-name="six" unicode="6" horiz-adv-x="1208" 
d="M393 592q13 90 83 136t163 32q93 -12 146 -82.5t38 -149.5q-13 -82 -88 -127.5t-160 -33.5q-91 14 -142.5 76.5t-39.5 148.5zM76 434q32 -163 160 -266.5t311 -118.5q137 -12 258.5 24.5t212.5 121.5t127 208q49 168 -1 320.5t-167 228.5q-87 57 -217.5 78t-218.5 -2v16
q82 247 245 519l-358 71q-187 -303 -301 -649q-51 -157 -64 -280.5t13 -270.5z" />
    <glyph glyph-name="seven" unicode="7" horiz-adv-x="1208" 
d="M346 80l356 -35q39 389 149.5 698t309.5 598v252h-1091v-321h655v-19q-154 -244 -251.5 -552.5t-127.5 -620.5z" />
    <glyph glyph-name="eight" unicode="8" horiz-adv-x="1208" 
d="M604 47q191 0 345 89.5t198 250.5q39 150 -15 287t-176 209q104 73 139 205.5t-16 259.5q-50 128 -185 201t-290 73t-290 -73t-185 -201q-51 -127 -16 -259.5t139 -205.5q-122 -72 -176 -209t-15 -287q44 -161 198 -250.5t345 -89.5zM604 1004q-77 0 -127.5 43t-50.5 114
q0 70 53.5 114t124.5 44t124.5 -44t53.5 -114q0 -71 -50.5 -114t-127.5 -43zM604 360q-84 0 -141 48t-57 122q0 85 57 136t141 51q85 0 142 -51t57 -136q0 -74 -57.5 -122t-141.5 -48z" />
    <glyph glyph-name="nine" unicode="9" horiz-adv-x="1208" 
d="M827 1081q-11 -82 -80 -130.5t-169 -35.5q-97 13 -145.5 82t-35.5 150q13 85 86 130t158 32q104 -17 150.5 -78.5t35.5 -149.5zM1143 1237q-32 163 -159 266.5t-310 118.5q-137 12 -258.5 -24.5t-212.5 -121.5t-127 -208q-49 -168 1 -320.5t167 -228.5
q87 -57 220.5 -78.5t221.5 2.5v-16q-37 -122 -102 -266t-140 -269l365 -55q185 315 285 649q33 112 48.5 195t18 176.5t-17.5 179.5z" />
    <glyph glyph-name="colon" unicode=":" horiz-adv-x="552" 
d="M457 281v411h-361v-411h361zM457 977v412h-361v-412h361z" />
    <glyph glyph-name="semicolon" unicode=";" horiz-adv-x="555" 
d="M463 977v412h-371v-412h371zM92 733v-391h90l-10 -174h254l37 287v278h-371z" />
    <glyph glyph-name="less" unicode="&#x3c;" horiz-adv-x="993" 
d="M418 825l540 594l-247 264l-648 -690v-336l648 -690l247 264z" />
    <glyph glyph-name="equal" unicode="=" horiz-adv-x="1193" 
d="M84 1210v-313h1022v313h-1022zM84 756v-318h1022v318h-1022z" />
    <glyph glyph-name="greater" unicode="&#x3e;" horiz-adv-x="993" 
d="M584 825l-541 -594l248 -264l647 690v336l-647 690l-248 -264z" />
    <glyph glyph-name="question" unicode="?" horiz-adv-x="1112" 
d="M365 397v-360h358v360h-358zM694 1161q0 -69 -42 -129t-175 -188q-121 -118 -121 -279v-49h365q7 86 41.5 144t107.5 128q125 121 168.5 248.5t-0.5 288.5q-42 155 -178 244.5t-350 75.5q-168 -11 -285 -118t-164 -296l318 -96q19 75 57.5 113t106.5 44t109.5 -33
t41.5 -98z" />
    <glyph glyph-name="at" unicode="@" horiz-adv-x="1734" 
d="M831 651q-66 0 -101.5 45.5t-29.5 130.5q6 82 41.5 129.5t92.5 47.5q56 0 94.5 -46t38.5 -131q0 -39 -2 -47q-8 -66 -47 -97.5t-87 -31.5zM1305 360q181 28 287 168t106 346q0 366 -222 573.5t-610 207.5q-244 0 -433.5 -105t-293.5 -295t-104 -434q0 -388 230 -602.5
t620 -214.5q128 0 221 19.5t188 70.5l-108 256q-119 -65 -320 -65q-244 0 -391 137.5t-147 406.5q0 133 44 239.5t119 173.5t171 102.5t204 35.5q255 0 392 -126.5t137 -389.5q0 -130 -64 -200q-25 -25 -46 -18.5t-21 42.5v543h-283v-70q-28 37 -79 57.5t-107 20.5
q-74 0 -140.5 -24t-121.5 -72t-88.5 -129.5t-34.5 -186.5q-1 -109 27.5 -191t81.5 -131.5t123.5 -74t156.5 -24.5q119 0 198 69q7 -16 32 -37.5t64 -43.5t96 -32.5t116 -1.5z" />
    <glyph glyph-name="A" unicode="A" horiz-adv-x="1486" 
d="M1475 74l-580 1519h-322l-563 -1519h396l100 276h463l108 -276h398zM741 1149l129 -471h-266z" />
    <glyph glyph-name="B" unicode="B" horiz-adv-x="1378" 
d="M102 74h686q245 0 376.5 100.5t152.5 292.5q14 135 -44 254.5t-173 171.5q93 40 142.5 140.5t35.5 199.5q-14 171 -151.5 265.5t-413.5 94.5h-611v-1519zM459 1272h307q74 0 115 -33.5t41 -89.5q0 -57 -38 -89.5t-106 -37.5h-319v250zM459 713h299q103 0 151.5 -44.5
t48.5 -113.5q0 -163 -184 -160h-315v318z" />
    <glyph glyph-name="C" unicode="C" horiz-adv-x="1351" 
d="M51 831q0 -493 355 -714q97 -57 259 -76.5t273 4.5q110 21 207 81t194 173l-221 233q-72 -99 -195.5 -133t-242.5 -6q-106 27 -189 149t-83 289q0 173 70 284t200 153q74 22 147.5 19.5t151 -42t141.5 -112.5l221 229q-191 211 -401 254q-112 27 -273 7t-259 -79
q-355 -221 -355 -713z" />
    <glyph glyph-name="D" unicode="D" horiz-adv-x="1429" 
d="M1022 834q0 -206 -80.5 -321.5t-236.5 -115.5h-244v873h244q156 0 236.5 -116.5t80.5 -319.5zM1366 834q-1 177 -46 315.5t-135.5 238t-232.5 152t-331 53.5h-519v-1519h519q251 1 418.5 94t246.5 260.5t80 405.5z" />
    <glyph glyph-name="E" unicode="E" horiz-adv-x="1355" 
d="M1262 1270v323h-1160v-1519h797q263 0 373 28v318q-184 -23 -326 -23h-485v281h762v317l-762 -2v277h801z" />
    <glyph glyph-name="F" unicode="F" horiz-adv-x="1314" 
d="M102 74h367v569h362q271 0 371 25v317q-131 -16 -325 -16h-408v297h772v327h-1139v-1519z" />
    <glyph glyph-name="G" unicode="G" horiz-adv-x="1454" 
d="M932 424q-56 -41 -137.5 -50.5t-141.5 9.5q-110 33 -177.5 153t-67.5 295t66.5 288.5t193.5 154.5q225 75 419 -141l222 229q-194 212 -400 254q-114 26 -261 7t-245 -79q-352 -219 -352 -713q0 -506 334 -714q99 -59 254 -78.5t268 6.5q265 54 389 268q14 22 25.5 45.5
t20.5 42.5t16.5 47.5t12 43.5t9.5 49t7 46t5 52t3.5 48.5t3 54.5t2.5 53v149h-694v-313h313q0 -63 -24.5 -121.5t-63.5 -85.5z" />
    <glyph glyph-name="H" unicode="H" horiz-adv-x="1456" 
d="M102 1593v-1519h365v618h520v-618h365v1519h-365v-573h-520v573h-365z" />
    <glyph glyph-name="I" unicode="I" horiz-adv-x="571" 
d="M102 1593v-1519h365v1519h-365z" />
    <glyph glyph-name="J" unicode="J" horiz-adv-x="1011" 
d="M545 1593v-1009q0 -84 -31.5 -127.5t-79.5 -46.5q-97 -6 -207 118l-217 -258q80 -101 185 -161t188 -70q113 -11 224 16t175 95q72 78 98.5 174t26.5 260v1009h-362z" />
    <glyph glyph-name="K" unicode="K" horiz-adv-x="1372" 
d="M461 381l192 260l318 -567h389l-471 874l454 645h-397l-485 -678v678h-359v-1519h359v307z" />
    <glyph glyph-name="L" unicode="L" horiz-adv-x="1153" 
d="M748 74q262 0 372 28v324q-184 -23 -325 -23h-328v1190h-365v-1519h646z" />
    <glyph glyph-name="M" unicode="M" horiz-adv-x="1787" 
d="M719 74h348l274 985h11l8 -985h375l-95 1519h-419l-324 -1054h-10l-322 1054h-420l-94 -1519h375l8 985h10z" />
    <glyph glyph-name="N" unicode="N" horiz-adv-x="1456" 
d="M463 1018l553 -944h336v1519h-361v-913l-534 913h-355v-1519h361v944z" />
    <glyph glyph-name="O" unicode="O" 
d="M918 35q345 0 539 212.5t194 583.5t-194 584t-539 213q-342 0 -533.5 -213t-191.5 -584t191.5 -583.5t533.5 -212.5zM922 383q-162 0 -261.5 122t-99.5 326q0 195 101.5 322t259.5 127t259 -126.5t101 -322.5q0 -204 -99 -326t-261 -122z" />
    <glyph glyph-name="P" unicode="P" horiz-adv-x="1366" 
d="M102 1593v-1519h363v463h258q139 0 254 42t189.5 114t115.5 166.5t41 199.5q0 255 -165.5 394.5t-475.5 139.5h-580zM465 862v404h278q105 0 165.5 -56.5t60.5 -142.5q0 -82 -60 -143.5t-170 -61.5h-274z" />
    <glyph glyph-name="Q" unicode="Q" horiz-adv-x="1570" 
d="M1337 307q176 204 176 549q0 363 -193.5 567.5t-539.5 204.5q-343 0 -534 -204.5t-191 -567.5t191 -567.5t534 -204.5q124 0 240 29l92 -168l342 141zM780 420q-163 0 -259.5 112.5t-96.5 323.5q0 207 98 322.5t258 115.5q163 0 264 -115.5t101 -322.5
q0 -211 -99.5 -323.5t-265.5 -112.5z" />
    <glyph glyph-name="R" unicode="R" horiz-adv-x="1370" 
d="M1071 664q119 63 185.5 173.5t66.5 243.5q0 252 -164 382t-477 130h-580v-1519h363v510h250l215 -510h397zM465 907v359h278q108 0 167 -46t59 -130q0 -80 -59 -131.5t-171 -51.5h-274z" />
    <glyph glyph-name="S" unicode="S" horiz-adv-x="1318" 
d="M913 66q188 53 276 185t60 300q-16 120 -108.5 217.5t-294.5 189.5q-173 86 -237 132t-64 94t33 74t79 26q75 0 175 -41.5t174 -105.5l237 264q-102 109 -244.5 169t-312.5 60q-178 0 -317 -76.5t-207 -220.5q-34 -67 -37.5 -139t23.5 -142.5t90.5 -138t158.5 -120.5
q81 -43 209.5 -98.5t184.5 -94.5q45 -29 55.5 -73.5t-15.5 -83.5t-77 -52q-169 -42 -482 176l-241 -262q64 -71 169.5 -136.5t188.5 -94.5q133 -37 276 -38.5t248 30.5z" />
    <glyph glyph-name="T" unicode="T" horiz-adv-x="1220" 
d="M31 1593v-336h391v-1183h364v1183h402v336h-1157z" />
    <glyph glyph-name="U" unicode="U" horiz-adv-x="1415" 
d="M702 367q-104 0 -169.5 63t-65.5 186v977h-365v-1007q0 -263 163.5 -410t436.5 -147q182 0 318.5 64.5t213.5 191t77 301.5v1007h-365v-977q0 -123 -68.5 -186t-175.5 -63z" />
    <glyph glyph-name="V" unicode="V" horiz-adv-x="1378" 
d="M502 74h372l492 1519h-393l-285 -1001l-285 1001h-393z" />
    <glyph glyph-name="W" unicode="W" horiz-adv-x="1775" 
d="M1065 1593h-397l-195 -1052h-6l-80 1052h-379l232 -1519h393l227 1063h14l226 -1063h413l211 1519h-378l-78 -1052h-6z" />
    <glyph glyph-name="X" unicode="X" horiz-adv-x="1456" 
d="M29 1593l420 -759l-439 -760h443l276 471l275 -471h440l-459 760l442 759h-438l-260 -471l-258 471h-442z" />
    <glyph glyph-name="Y" unicode="Y" horiz-adv-x="1435" 
d="M905 664l518 929h-422l-284 -577l-285 577h-422l522 -929v-590h373v590z" />
    <glyph glyph-name="Z" unicode="Z" horiz-adv-x="1183" 
d="M809 401h-248l545 1037v155h-1016v-327h518l-557 -1063v-129h705q264 0 374 28v322q-158 -23 -321 -23z" />
    <glyph glyph-name="bracketleft" unicode="[" horiz-adv-x="675" 
d="M137 1669v-1675h477v317h-139v1041h139v317h-477z" />
    <glyph glyph-name="backslash" unicode="\" 
d="M1120 1593h-397l-76 -557h-115l-28 557h-359l70 -557h-166v-327h207l80 -635h393l100 635h185l100 -635h414l71 635h195v327h-160l64 557h-359l-28 -557h-115zM1241 709h53l-12 -250h-6zM961 1036h-78l32 203h15zM551 709h51l-33 -250h-6z" />
    <glyph glyph-name="bracketright" unicode="]" horiz-adv-x="675" 
d="M547 1669h-477v-317h139v-1041h-139v-317h477v1675z" />
    <glyph glyph-name="asciicircum" unicode="^" horiz-adv-x="1071" 
d="M705 1686h-326l-359 -752h396l125 336l127 -336h383z" />
    <glyph glyph-name="underscore" unicode="_" horiz-adv-x="995" 
d="M29 342v-307h938v307h-938z" />
    <glyph glyph-name="grave" unicode="`" horiz-adv-x="602" 
d="M430 1690h-354l155 -572h299z" />
    <glyph glyph-name="a" unicode="a" horiz-adv-x="1323" 
d="M885 74h354v1126h-354v-102q-48 52 -121 86.5t-158 38.5q-106 5 -201.5 -29.5t-171 -104t-122 -185t-50.5 -261.5q-4 -145 36 -258.5t114 -183.5t170.5 -106t210.5 -36q88 0 164.5 30t128.5 83v-98zM635 373q-97 0 -158 70.5t-61 199.5q0 130 68 200.5t159 65.5
q102 0 168 -79.5t66 -219.5q0 -35 -5 -55q-18 -91 -80.5 -136.5t-156.5 -45.5z" />
    <glyph glyph-name="b" unicode="b" horiz-adv-x="1320" 
d="M727 57q116 0 212.5 34.5t170.5 103t114 180t38 256.5q-3 283 -149.5 442t-375.5 148q-97 -3 -176.5 -37.5t-126.5 -87.5v497h-352v-1519h352v100q50 -54 128 -85.5t165 -31.5zM659 371q-99 6 -156 73.5t-57 165.5q0 133 67 215t171 82q93 0 163.5 -68t70.5 -198
q0 -75 -22.5 -130.5t-60 -85.5t-82 -43.5t-94.5 -10.5z" />
    <glyph glyph-name="c" unicode="c" horiz-adv-x="1210" 
d="M51 641q0 -293 169.5 -448.5t457.5 -153.5q304 0 479 227l-209 240q-66 -70 -127.5 -104.5t-144.5 -34.5q-110 0 -190 76.5t-80 197.5q0 117 80.5 193.5t185.5 78.5q80 0 138 -30.5t130 -108.5l211 242q-187 225 -473 225q-289 0 -458 -159.5t-169 -440.5z" />
    <glyph glyph-name="d" unicode="d" horiz-adv-x="1325" 
d="M588 57q90 0 169 31t132 86v-100h352v1519h-352v-497q-49 53 -130 87.5t-177 37.5q-150 7 -267.5 -60t-187 -204t-72.5 -326q-1 -145 39.5 -256.5t114.5 -180t169.5 -103t209.5 -34.5zM659 371q-50 -3 -93.5 10t-80 43.5t-58 86t-21.5 130.5q0 130 68 198t157 68
q107 0 176.5 -82t69.5 -215q0 -98 -59.5 -165.5t-158.5 -73.5z" />
    <glyph glyph-name="e" unicode="e" horiz-adv-x="1208" 
d="M57 631q-4 -273 152.5 -435.5t408.5 -162.5q316 0 492 241l-231 201q-101 -123 -246 -123q-91 0 -155 43.5t-70 118.5h739l8 113q0 278 -143 446t-394 168q-252 0 -406.5 -165t-154.5 -445zM809 788h-381q9 65 62 102.5t131 37.5q73 0 125.5 -36t62.5 -104z" />
    <glyph glyph-name="f" unicode="f" horiz-adv-x="763" 
d="M31 1200v-319h172v-807h354v807h174v319h-174v31q0 54 17.5 73t74.5 19h72v315h-215q-151 0 -227 -90t-76 -280v-68h-172z" />
    <glyph glyph-name="g" unicode="g" horiz-adv-x="1314" 
d="M639 432q-102 -2 -167.5 61t-59.5 183q6 130 73.5 191.5t153.5 56.5q99 -5 163 -72.5t64 -194.5q0 -98 -60 -161t-167 -64zM1231 268v932h-359v-80q-101 101 -268 107q-86 4 -163.5 -14.5t-145 -63t-117.5 -111t-80.5 -163.5t-34.5 -216q-3 -107 26.5 -196.5t81.5 -150
t121.5 -103t143 -61.5t148.5 -19q89 0 168.5 26.5t119.5 69.5v-49q0 -63 -44.5 -111t-139.5 -59q-113 -11 -216.5 16t-215.5 91l-147 -279q207 -120 438 -131q328 -14 491 96q115 82 154 188.5t39 280.5z" />
    <glyph glyph-name="h" unicode="h" horiz-adv-x="1216" 
d="M82 74h358v731q68 71 170 80q83 8 125.5 -48.5t42.5 -207.5v-555h359v688q0 209 -110 339t-310 130h-27q-74 -6 -143 -29t-107 -55v446h-358v-1519z" />
    <glyph glyph-name="i" unicode="i" horiz-adv-x="520" 
d="M82 1200v-1126h354v1126h-354zM436 1319v274h-354v-274h354z" />
    <glyph glyph-name="j" unicode="j" horiz-adv-x="565" 
d="M498 1319v274h-355v-274h355zM498 174v1026h-355v-985q0 -71 -11.5 -107.5t-47.5 -50.5q-23 -11 -61.5 -7.5t-75.5 16.5l-17 -297q212 -63 375 4q104 44 148.5 139t44.5 262z" />
    <glyph glyph-name="k" unicode="k" horiz-adv-x="1232" 
d="M438 414l86 94l281 -434h416l-459 692l405 434h-422l-307 -330v723h-356v-1519h356v340z" />
    <glyph glyph-name="l" unicode="l" horiz-adv-x="522" 
d="M82 1624v-1550h356v1550h-356z" />
    <glyph glyph-name="m" unicode="m" horiz-adv-x="1837" 
d="M82 74h346v731q48 39 86 57t94 19q78 3 118 -59.5t40 -213.5v-534h338v688q0 39 -2 57q37 32 70.5 46.5t84.5 15.5q51 2 83.5 -18.5t52.5 -83t20 -171.5v-534h340v719q0 209 -99.5 322.5t-293.5 113.5h-35q-61 0 -151.5 -37.5t-161.5 -91.5q-89 129 -289 129h-23
q-152 -15 -272 -99v70h-346v-1126z" />
    <glyph glyph-name="n" unicode="n" horiz-adv-x="1212" 
d="M82 74h358v737q49 37 83 52t89 18q41 2 67.5 -8t48.5 -38.5t32 -84t10 -142.5v-534h358v688q-2 218 -102.5 341.5t-300.5 123.5h-33q-71 -6 -141.5 -32.5t-110.5 -59.5v65h-358v-1126z" />
    <glyph glyph-name="o" unicode="o" horiz-adv-x="1325" 
d="M657 371q-107 0 -180.5 70t-73.5 198q0 124 74.5 196t179.5 72q109 0 186 -72t77 -196q0 -128 -76.5 -198t-186.5 -70zM662 47q270 0 441 163.5t171 428.5q0 180 -83.5 316.5t-221.5 206t-307 69.5t-307.5 -69.5t-222 -206t-83.5 -316.5q0 -265 171.5 -428.5
t441.5 -163.5z" />
    <glyph glyph-name="p" unicode="p" horiz-adv-x="1320" 
d="M727 57q92 0 172.5 21t148.5 66.5t116 111.5t74 161.5t24 211.5q-3 282 -149 439t-376 151q-98 -3 -177.5 -35.5t-125.5 -83.5v100h-352v-1382h352v356q50 -54 128 -85.5t165 -31.5zM668 371q-94 6 -158 75t-64 160q0 135 67 217t171 82q95 0 164.5 -67.5t69.5 -198.5
q0 -75 -21 -130t-57.5 -84.5t-79.5 -42.5t-92 -11z" />
    <glyph glyph-name="q" unicode="q" horiz-adv-x="1325" 
d="M588 57q91 0 169.5 30.5t131.5 86.5v-356h352v1382h-352v-102q-49 53 -129.5 85.5t-177.5 35.5q-112 3 -207.5 -35t-166 -112t-111 -187.5t-42.5 -255.5q-1 -145 39.5 -256.5t114.5 -179t169.5 -102t209.5 -34.5zM651 371q-105 -5 -175 59.5t-70 208.5q0 131 67 198.5
t158 67.5q107 0 176.5 -82t69.5 -217q0 -90 -66 -159.5t-160 -75.5z" />
    <glyph glyph-name="r" unicode="r" horiz-adv-x="737" 
d="M725 1210h-37q-74 -8 -129.5 -29t-112.5 -63v82h-364v-1126h364v723q105 75 246 75h33v338z" />
    <glyph glyph-name="s" unicode="s" horiz-adv-x="1054" 
d="M754 55q231 67 256 281q34 235 -201 356q-60 32 -170 71.5t-150 61.5q-23 13 -26 39t12.5 45.5t38.5 16.5q132 -9 287 -105l184 256q-226 175 -491 166q-321 -11 -404 -231q-49 -125 -10 -238t143 -176q83 -51 205.5 -97t140.5 -55q32 -14 41 -42.5t-10 -49t-55 -12.5
q-157 21 -377 137l-143 -278q167 -117 333 -148q248 -40 396 2z" />
    <glyph glyph-name="t" unicode="t" horiz-adv-x="819" 
d="M559 547v334h229v319h-229v393h-354v-393h-185v-319h185v-400q0 -165 44 -260t148 -137q95 -33 205.5 -26t194.5 46l-60 314q-48 -17 -74.5 -20t-48.5 5q-32 12 -43.5 44t-11.5 100z" />
    <glyph glyph-name="u" unicode="u" horiz-adv-x="1185" 
d="M1102 1200h-359v-737q-33 -36 -69.5 -52.5t-89.5 -17.5q-69 -2 -106.5 52.5t-37.5 199.5v555h-358v-708q0 -210 98 -327.5t297 -117.5h27q70 6 134 32t105 60v-65h359v1126z" />
    <glyph glyph-name="v" unicode="v" horiz-adv-x="1171" 
d="M0 1200l426 -1126h311l432 1126h-381l-202 -639l-203 639h-383z" />
    <glyph glyph-name="w" unicode="w" horiz-adv-x="1669" 
d="M834 659l190 -585h297l336 1126h-371l-143 -645l-160 645h-301l-158 -645l-145 645h-369l336 -1126h297z" />
    <glyph glyph-name="x" unicode="x" horiz-adv-x="1249" 
d="M23 1200l368 -563l-381 -563h400l211 299l210 -299h406l-387 563l358 563h-399l-188 -315l-189 315h-409z" />
    <glyph glyph-name="y" unicode="y" horiz-adv-x="1230" 
d="M446 334l-217 -467l357 -100l637 1433h-398l-192 -463l-221 463h-406z" />
    <glyph glyph-name="z" unicode="z" horiz-adv-x="970" 
d="M557 74q10 0 72.5 -0.5t88.5 0t74 2t81 5.5t59 11v314q-104 -13 -322 -13h-100l412 690v117h-869v-319h379l-395 -662v-145h520z" />
    <glyph glyph-name="braceleft" unicode="{" horiz-adv-x="774" 
d="M395 831q11 2 23 9t19.5 14t20 19t17.5 16q34 38 49.5 68t24 92.5t8.5 175.5q0 78 21.5 109t78.5 32l99 2v285l-60 2q-160 0 -245 -19q-75 -18 -125.5 -76t-53.5 -135q-1 -35 -3 -92t-3.5 -97t-3.5 -62q-6 -85 -60 -122.5t-163 -39.5v-361q109 -2 163 -39.5t60 -122.5
q2 -22 3.5 -62t3.5 -97t3 -92q3 -77 53.5 -135t125.5 -76q85 -19 245 -19l60 2v285l-99 2q-57 1 -78.5 32t-21.5 109q0 113 -8.5 175.5t-24 92.5t-49.5 68q-5 4 -17.5 16t-20 18.5t-19.5 13.5t-23 9z" />
    <glyph glyph-name="bar" unicode="|" horiz-adv-x="1193" 
d="M418 1692v-1717h358v1717h-358z" />
    <glyph glyph-name="braceright" unicode="}" horiz-adv-x="774" 
d="M395 831q-11 -2 -23 -9t-19.5 -13.5t-20 -18.5t-17.5 -16q-34 -38 -49.5 -68t-24 -92.5t-8.5 -175.5q0 -78 -21.5 -109t-78.5 -32l-98 -2v-285l59 -2q161 0 246 19q75 18 125 76t53 135q1 35 3 92t3.5 97t3.5 62q6 85 60.5 122.5t163.5 39.5v361q-109 2 -163.5 39.5
t-60.5 122.5q-2 22 -3.5 62t-3.5 97t-3 92q-3 77 -53 135t-125 76q-85 19 -246 19l-59 -2v-285l98 -2q57 -1 78.5 -32t21.5 -109q0 -113 8.5 -175.5t24 -92.5t49.5 -68q5 -4 17.5 -16t20 -19t19.5 -14t23 -9z" />
    <glyph glyph-name="asciitilde" unicode="~" horiz-adv-x="1275" 
d="M811 987q-20 0 -50.5 10.5t-55 22.5t-67 33.5t-63.5 31.5q-76 37 -138.5 43.5t-147.5 -16.5q-88 -27 -142 -111.5t-75 -242.5l-11 -70l330 -92l17 72q20 80 71 94q48 14 180 -57q75 -40 139 -57t148 -13q106 5 176.5 91.5t91.5 254.5l7 70l-330 92l-8 -66
q-9 -55 -23.5 -72.5t-48.5 -17.5z" />
    <glyph glyph-name="uni20A9" unicode="&#x20a9;" 
d="M1120 1593h-397l-76 -557h-115l-28 557h-359l70 -557h-166v-327h207l80 -635h393l100 635h185l100 -635h414l71 635h195v327h-160l64 557h-359l-28 -557h-115zM1241 709h53l-12 -250h-6zM961 1036h-78l32 203h15zM551 709h51l-33 -250h-6z" />
    <glyph glyph-name="uni2010" unicode="&#x2010;" horiz-adv-x="0" 
 />
    <glyph glyph-name="copyright" unicode="&#xa9;" horiz-adv-x="1658" 
d="M1622 735q0 155 -63 303q-64 140 -173 252q-105 105 -249 174q-153 64 -310 64q-162 0 -309 -64q-148 -68 -254 -174q-105 -108 -168 -252q-61 -143 -61 -303q0 -165 61 -305q62 -148 168 -254q108 -111 254 -172q138 -63 309 -63q166 0 310 63q142 62 249 172
q110 110 173 254t63 305zM258 735q0 128 55 238q51 105 138 186q85 76 184 121q98 43 192 43q115 0 224 -45q104 -49 182 -127q74 -80 121 -186q45 -115 45 -230q0 -120 -45 -229q-49 -113 -119 -189q-83 -83 -182 -124q-102 -48 -226 -48q-88 0 -180 35q-99 30 -186 105
q-92 73 -146 184q-57 108 -57 266zM1174 1085q-27 21 -56 50q-31 25 -67 45q-48 21 -90 34q-57 13 -117 13q-126 0 -211 -45q-87 -50 -135 -119q-53 -78 -70 -158q-23 -82 -20 -166q-3 -99 24 -188q24 -92 76 -156q52 -67 137 -104q77 -39 197 -39q60 0 116 12q44 8 91 29
q38 18 71 47q42 34 64 61l-127 150q-39 -52 -88 -74q-54 -29 -125 -26q-48 -3 -88 12q-43 12 -74 51q-32 28 -51 90q-21 56 -21 135q0 59 15 115q12 48 39 92q28 39 73 62q46 22 105 22q70 0 127 -31q50 -33 88 -71z" />
    <glyph glyph-name="Korea1.99" horiz-adv-x="0" 
 />
    <glyph glyph-name="Korea1.100" horiz-adv-x="0" 
 />
    <glyph glyph-name="uni3164" unicode="&#x3000;" 
 />
    <glyph glyph-name="uni3164" unicode="&#x3164;" 
 />
    <glyph glyph-name="uni3001" horiz-adv-x="0" 
 />
    <glyph glyph-name="uni3002" horiz-adv-x="0" 
 />
    <glyph glyph-name="uni30FB" unicode="&#x30fb;" horiz-adv-x="1161" 
d="M395 954v-346h371v346h-371z" />
    <glyph glyph-name="twodotenleader" unicode="&#x2025;" 
d="M1124 954v-346h365v346h-365zM354 954v-346h363v346h-363z" />
    <glyph glyph-name="uni22EF" unicode="&#x2026;" 
d="M1300 954v-346h330v346h-330zM754 954v-346h340v346h-340zM213 954v-346h338v346h-338z" />
    <glyph glyph-name="uni22EF" unicode="&#x22ef;" 
d="M1300 954v-346h330v346h-330zM754 954v-346h340v346h-340zM213 954v-346h338v346h-338z" />
    <glyph glyph-name="dieresis" unicode="&#xa8;" 
d="M1124 1692v-346h365v346h-365zM354 1692v-346h363v346h-363z" />
    <glyph glyph-name="uni3003" unicode="&#x3003;" 
d="M1040 473l201 305l121 195l-248 149l-291 -516zM707 578l170 319l104 205l-254 127l-248 -539z" />
    <glyph glyph-name="endash" unicode="&#x2013;" 
d="M356 1006v-328h1129v328h-1129z" />
    <glyph glyph-name="emdash" unicode="&#x2014;" 
d="M233 1006v-328h1375v328h-1375z" />
    <glyph glyph-name="uni2016" unicode="&#x2016;" 
d="M981 31h348v1601h-348v-1601zM512 31h348v1601h-348v-1601z" />
    <glyph glyph-name="uniFF3C" unicode="&#xff3c;" 
d="M1272 39l-316 1632l-387 -61l314 -1633z" />
    <glyph glyph-name="uniFF5E" unicode="&#xff5e;" 
d="M1067 1577q-10 0 -22 1.5t-27.5 7.5t-26.5 10t-32 14t-29.5 14.5t-33 17t-30.5 15.5q-114 59 -239 22q-154 -50 -189 -299l-8 -59l281 -78l14 60q9 35 21.5 51t35.5 22q47 15 154 -41q63 -35 118 -49t126 -10q91 3 151 76t78 215l4 59l-280 80l-9 -57q-5 -38 -17 -54.5
t-40 -17.5z" />
    <glyph glyph-name="quoteleft" unicode="&#x2018;" horiz-adv-x="514" 
d="M434 1120v375h-92l31 195h-234l-57 -267v-303h352z" />
    <glyph glyph-name="quoteright" unicode="&#x2019;" horiz-adv-x="514" 
d="M70 1690v-375h92l-10 -195h233l37 328v242h-352z" />
    <glyph glyph-name="quotedblleft" unicode="&#x201c;" horiz-adv-x="958" 
d="M444 1120v375h-92l31 195h-223l-58 -267v-303h342zM874 1120v375h-92l31 195h-223l-58 -267v-303h342z" />
    <glyph glyph-name="quotedblright" unicode="&#x201d;" horiz-adv-x="958" 
d="M512 1690v-375h92l-10 -195h223l37 328v242h-342zM82 1690v-375h92l-10 -195h223l37 328v242h-342z" />
    <glyph glyph-name="uni3014" unicode="&#x3014;" horiz-adv-x="634" 
d="M127 1597v-1531l457 -134v338l-119 41v1041l119 41v338z" />
    <glyph glyph-name="uni3015" unicode="&#x3015;" horiz-adv-x="634" 
d="M516 1597l-457 134v-338l119 -41v-1041l-119 -41v-338l457 134v1531z" />
    <glyph glyph-name="uni3008" unicode="&#x3008;" horiz-adv-x="757" 
d="M29 868v-67l362 -815l320 129l-308 721l312 718l-322 129z" />
    <glyph glyph-name="uni3009" unicode="&#x3009;" horiz-adv-x="757" 
d="M733 868l-364 815l-322 -129l311 -718l-307 -721l320 -129l362 815v67z" />
    <glyph glyph-name="uni300A" unicode="&#x300a;" horiz-adv-x="1105" 
d="M104 866v-67l240 -856l299 67l-203 824l207 821l-301 67zM541 866v-67l207 -809l288 67l-190 777l194 755l-290 68z" />
    <glyph glyph-name="uni300B" unicode="&#x300b;" horiz-adv-x="1105" 
d="M1012 866l-242 856l-301 -67l207 -821l-203 -824l299 -67l240 856v67zM575 866l-208 791l-291 -68l194 -755l-190 -777l289 -67l206 809v67z" />
    <glyph glyph-name="uni300C" unicode="&#x300c;" horiz-adv-x="604" 
d="M37 956h358v447h176v328h-534v-775z" />
    <glyph glyph-name="uni300D" unicode="&#x300d;" horiz-adv-x="585" 
d="M553 707h-358v-447h-177v-328h535v775z" />
    <glyph glyph-name="uni300E" unicode="&#x300e;" horiz-adv-x="604" 
d="M418 1591v-55h-172v-410h-56v465h228zM37 956h358v447h176v328h-534v-775z" />
    <glyph glyph-name="uni300F" unicode="&#x300f;" horiz-adv-x="585" 
d="M172 72v55h172v410h55v-465h-227zM553 707h-358v-447h-177v-328h535v775z" />
    <glyph glyph-name="uni3010" unicode="&#x3010;" horiz-adv-x="737" 
d="M74 1731v-1799h637q-114 163 -181 420.5t-65 478.5q-2 221 65 479t181 421h-637z" />
    <glyph glyph-name="uni3011" unicode="&#x3011;" horiz-adv-x="737" 
d="M666 -68v1799h-637q113 -163 180 -421t65 -479q2 -221 -65 -478.5t-180 -420.5h637z" />
    <glyph glyph-name="plusminus" unicode="&#xb1;" horiz-adv-x="1191" 
d="M422 1200h-305v-317h305v-312h350v312h305v317h-305v313h-350v-313zM96 473v-307h1000v307h-1000z" />
    <glyph glyph-name="multiply" unicode="&#xd7;" horiz-adv-x="1222" 
d="M608 1085l-293 293l-239 -239l293 -291l-293 -291l239 -240l293 293l291 -293l238 240l-293 291l295 293l-240 239z" />
    <glyph glyph-name="divide" unicode="&#xf7;" horiz-adv-x="1126" 
d="M1071 983h-995v-307h995v307zM573 1118q96 0 157 55.5t61 151.5q0 91 -65 149t-153 58t-152.5 -58t-64.5 -149q0 -96 60.5 -151.5t156.5 -55.5zM573 137q96 0 157 55.5t61 151.5q0 91 -65 149t-153 58t-152.5 -58t-64.5 -149q0 -96 60.5 -151.5t156.5 -55.5z" />
    <glyph glyph-name="notequal" unicode="&#x2260;" horiz-adv-x="1232" 
d="M84 1241v-313h375l-39 -203h-336v-317h276l-71 -388l379 -61l82 449h397v317h-338l39 203h299v313h-242l76 401l-377 62l-88 -463h-432z" />
    <glyph glyph-name="lessequal" unicode="&#x2264;" horiz-adv-x="1740" 
d="M532 1051l951 307l-84 305l-1221 -424v-377l1221 -444l84 305zM141 344v-297h1375v297h-1375z" />
    <glyph glyph-name="greaterequal" unicode="&#x2265;" horiz-adv-x="1740" 
d="M1126 1051l-950 -328l84 -305l1221 444v377l-1221 424l-84 -305zM1518 344h-1375v-297h1375v297z" />
    <glyph glyph-name="infinity" unicode="&#x221e;" 
d="M526 590q-71 6 -116.5 61.5t-44.5 139.5q1 92 56 156.5t130 64.5q125 0 215 -152q-6 -17 -17.5 -47.5t-15.5 -42.5q-32 -89 -88.5 -137.5t-118.5 -42.5zM893 1096q-142 167 -340 178q-79 8 -169 -23.5t-161 -93.5q-179 -167 -151 -438q12 -138 85 -242t179 -145
q96 -37 215.5 -33.5t198.5 47.5q79 40 145 137q62 -76 147.5 -125t188.5 -53q108 -6 181 21.5t149 93.5q44 36 81 98.5t61 141t18 173t-48 179.5q-69 140 -177 204.5t-273 57.5q-193 -9 -330 -178zM1006 713q2 6 6 17.5t6 17.5q40 120 91 185.5t120 65.5q40 0 73.5 -10.5
t62.5 -33t45.5 -64.5t16.5 -100q0 -100 -59 -160t-137 -58q-139 3 -225 140z" />
    <glyph glyph-name="therefore" unicode="&#x2234;" 
d="M922 1047q90 0 147 52t57 144q0 86 -60.5 141.5t-143.5 55.5t-144 -55.5t-61 -141.5q0 -91 57.5 -143.5t147.5 -52.5zM473 248q92 0 149.5 52t57.5 144q0 87 -61 142t-146 55q-83 0 -144 -55.5t-61 -141.5q0 -91 57.5 -143.5t147.5 -52.5zM1370 248q90 0 147.5 52.5
t57.5 143.5q0 86 -61 141.5t-144 55.5q-85 0 -146 -55t-61 -142q0 -92 57.5 -144t149.5 -52z" />
    <glyph glyph-name="degree" unicode="&#xb0;" 
d="M922 1192q120 0 195 68t75 190q0 113 -80 185.5t-190 72.5t-190.5 -72.5t-80.5 -185.5q0 -121 75.5 -189.5t195.5 -68.5zM922 1389q-27 0 -45.5 18.5t-18.5 42.5q0 25 17.5 43t46.5 18t46 -18t17 -43q0 -24 -18 -42.5t-45 -18.5z" />
    <glyph glyph-name="minute" unicode="&#x2032;" 
d="M795 1661l-101 -543h299l156 543h-354z" />
    <glyph glyph-name="second" unicode="&#x2033;" 
d="M621 1661l-101 -543h268l146 543h-313zM1020 1661l-141 -543h288l156 543h-303z" />
    <glyph glyph-name="uni2103" unicode="&#x2103;" 
d="M532 758q0 -434 340 -647q90 -54 239 -72t253 6q205 39 375 234l-207 219q-65 -90 -170.5 -119t-212.5 -10q-48 9 -97 40.5t-91 80.5t-68.5 119.5t-26.5 148.5t24 145.5t64 115t89.5 80t103.5 46.5q44 12 90 12t96.5 -11.5t102 -43.5t96.5 -82l207 215q-180 193 -375 233
q-105 26 -253 8t-239 -73q-340 -210 -340 -645zM393 1202q120 0 195.5 68.5t75.5 189.5q0 113 -80.5 185.5t-190.5 72.5t-190 -72.5t-80 -185.5q0 -122 75 -190t195 -68zM393 1399q-27 0 -45 18.5t-18 42.5q0 25 17 43.5t46 18.5t46.5 -18.5t17.5 -43.5q0 -24 -18.5 -42.5
t-45.5 -18.5z" />
    <glyph glyph-name="uni212B" unicode="&#x212b;" 
d="M920 1061l137 -416h-283zM926 1389q-27 0 -45.5 18.5t-18.5 42.5q0 25 17.5 43t46.5 18t46 -18t17 -43q0 -24 -18 -42.5t-45 -18.5zM1616 72l-488 1177q80 73 80 201q0 118 -84 194t-198 76t-198.5 -76t-84.5 -194q0 -110 64 -184l-482 -1194h363l104 278h447l112 -278
h365z" />
    <glyph glyph-name="uniFFE0" unicode="&#xffe0;" 
d="M279 831q0 -396 292 -614l-61 -192l352 -93l53 164q151 -13 256 8q220 41 392 240l-211 223q-52 -71 -143.5 -107t-190.5 -38l239 756q50 -28 95 -80l211 219q-100 109 -207 170l51 158l-350 92l-53 -166q-105 -2 -205 -23t-162 -59q-358 -220 -358 -658zM891 1223
l-201 -631q-72 105 -72 239q0 154 73.5 251t199.5 141z" />
    <glyph glyph-name="uniFFE1" unicode="&#xffe1;" 
d="M1481 1133q-3 234 -124.5 367.5t-367.5 133.5q-111 0 -205.5 -32.5t-167 -95.5t-114 -164.5t-41.5 -231.5l-2 -117h-133v-307h133v-47q0 -212 -35 -258h-121v-307h817q222 0 341.5 104t119.5 316v38h-338v-24q0 -127 -145 -127h-318q37 68 37 250v55h359v307h-357v148
q0 90 43.5 138t114.5 48q79 0 121 -46.5t45 -147.5h338z" />
    <glyph glyph-name="uniFFE5" unicode="&#xffe5;" 
d="M1120 672h385v293h-299l391 628h-391l-274 -454l-295 454h-391l411 -628h-338v-293h429v-121h-429v-297h429v-180h372v180h385v297h-385v121z" />
    <glyph glyph-name="male" unicode="&#x2642;" 
d="M922 1677l-629 -518l215 -246l240 193v-184q-157 -42 -251 -157t-94 -276q0 -207 141 -331.5t378 -124.5t377.5 124t140.5 332q0 161 -94 276t-250 157v184l239 -193l215 246zM922 340q-74 0 -127.5 39.5t-53.5 109.5q0 69 55.5 109.5t125.5 40.5t125 -40.5t55 -109.5
q0 -70 -53 -109.5t-127 -39.5z" />
    <glyph glyph-name="female" unicode="&#x2640;" 
d="M741 752v-115h-354v-328h354v-276h359v276h354v328h-354v113q160 43 250 157.5t90 278.5q0 136 -68.5 241t-186 160t-263.5 55q-224 0 -371.5 -125.5t-147.5 -330.5q0 -165 89.5 -279t248.5 -155zM922 1036q-74 0 -127.5 40t-53.5 110q0 69 55 109t126 40t125.5 -40
t54.5 -109q0 -70 -53 -110t-127 -40z" />
    <glyph glyph-name="angle" unicode="&#x2220;" 
d="M188 188v-157h1465v327h-916l795 1164l-283 190z" />
    <glyph glyph-name="perpendicular" unicode="&#x22a5;" 
d="M168 358v-327h1505v327h-573v1233h-359v-1233h-573z" />
    <glyph glyph-name="uni2312" unicode="&#x2312;" 
d="M922 1083q170 0 283.5 -106.5t146.5 -310.5l336 61q-40 321 -245.5 502.5t-520.5 181.5t-520.5 -181.5t-245.5 -502.5l336 -61q33 204 146.5 310.5t283.5 106.5z" />
    <glyph glyph-name="partialdiff" unicode="&#x2202;" horiz-adv-x="2027" 
d="M813 424q-20 0 -20 4q-2 0 -2 25q0 52 26 92q27 38 68 65q36 29 86 45q38 11 88 17q-14 -37 -31 -68q-4 -7 -57 -84q-38 -44 -78 -65q-45 -31 -80 -31zM723 866q70 78 131 113q52 25 113 25q54 0 77 -23q18 -16 25 -82q-104 -3 -203 -25q-110 -28 -184 -77
q-80 -55 -133 -135q-51 -83 -51 -205q0 -58 18 -103q14 -50 55 -94q29 -42 86 -70q40 -26 107 -26q113 0 219 53q112 59 195 145q90 94 139 213q51 119 51 265q0 62 -25 153q-25 77 -69 135q-42 55 -115 99q-77 41 -158 41q-157 0 -284 -99q-113 -98 -242 -303h248z" />
    <glyph glyph-name="gradient" unicode="&#x2207;" 
d="M635 1352h670l-334 -656zM922 29l768 1562h-1538z" />
    <glyph glyph-name="equivalence" unicode="&#x2261;" 
d="M254 1401v-277h1333v277h-1333zM254 623v-277h1333v277h-1333zM254 1012v-277h1333v277h-1333z" />
    <glyph glyph-name="uni2252" unicode="&#x2252;" 
d="M555 1253q86 0 140.5 49.5t54.5 135.5q0 80 -58.5 132t-136.5 52t-136.5 -52t-58.5 -132q0 -86 54.5 -135.5t140.5 -49.5zM317 1180v-293h1207v293h-1207zM317 776v-297h1207v297h-1207zM1288 43q86 0 140.5 49t54.5 135q0 81 -58.5 133t-136.5 52t-136 -52t-58 -133
q0 -86 54 -135t140 -49z" />
    <glyph glyph-name="section" unicode="&#xa7;" 
d="M881 766q-68 81 -68 145q0 14 6.5 24t20.5 9q59 -8 135 -100q36 -42 65 -99q13 -29 13 -61q0 -9 -7 -15t-16 -5q-35 6 -74 30q-43 31 -75 72zM641 1343q0 -66 43 -124q44 -70 82 -103q-57 -12 -100 -61q-45 -45 -58 -119q-18 -96 23 -180q36 -95 92 -148l96 -100
q74 -78 92 -96q35 -45 60 -80q26 -43 33 -66q10 -57 10 -69q0 -59 -15 -82q-11 -23 -47 -23q-24 0 -32 2q-13 0 -15 2q-4 0 -4 6q-4 0 -4 7q0 5 -6 55q-6 43 -27 67q-18 21 -67 43q-50 13 -84 -2q-29 -18 -43 -45q-13 -33 -13 -57q0 -28 15 -68q14 -38 53 -77q31 -39 88 -64
q49 -27 123 -27q67 0 119 27q47 22 88 72q35 44 53 108q13 66 10 129q-11 89 -45 160q-10 16 -18.5 31.5t-15.5 28t-9 16.5q30 7 70 53q37 42 53 119q12 89 -22 180q-44 86 -95 146l-96 102q-45 38 -94 96q-44 44 -62 76q-25 42 -30 68q-9 30 -6 73q0 61 12 82q15 21 49 21
q12 -2 31 -2q8 -4 14 -4q0 -5 6 -5l2 -8q0 -7 6 -51q6 -45 29 -68q14 -33 64 -45q50 -15 86 2q29 19 43 48q12 27 12 55q0 14 -14 65q-19 37 -54 78q-42 42 -86 66q-53 26 -125 26q-70 0 -118 -26q-50 -24 -91 -72q-39 -56 -49 -108q-18 -62 -12 -130z" />
    <glyph glyph-name="uni203B" unicode="&#x203b;" 
d="M1135 834l460 462l-213 211l-458 -463l-461 463l-211 -211l463 -462l-463 -461l209 -211l463 463l460 -463l213 211zM924 1239q87 0 143.5 52t56.5 139q0 82 -59.5 136t-140.5 54q-78 0 -138.5 -54t-60.5 -136q0 -87 56.5 -139t142.5 -52zM924 45q87 0 143.5 52t56.5 139
q0 82 -59.5 136t-140.5 54q-78 0 -138.5 -54t-60.5 -136q0 -87 56.5 -139t142.5 -52zM346 647q87 0 144 51.5t57 137.5q0 84 -60 138t-141 54q-80 0 -140.5 -54.5t-60.5 -137.5q0 -86 57 -137.5t144 -51.5zM1497 647q87 0 144 51.5t57 137.5q0 83 -60.5 137.5t-140.5 54.5
q-81 0 -141 -54t-60 -138q0 -86 57 -137.5t144 -51.5z" />
    <glyph glyph-name="uni2606" unicode="&#x2606;" 
d="M1069 969l285 -39l-207 -215l51 -291l-276 139l-277 -139l49 291l-207 215l287 39l148 284zM1518 0q-28 306 -82 635q197 225 374 471q-331 77 -559 115q-192 318 -329 522q-151 -212 -330 -522q-251 -47 -559 -115q169 -237 375 -471q-34 -193 -84 -635q350 138 598 254
q315 -149 596 -254z" />
    <glyph glyph-name="uni2605" unicode="&#x2605;" 
d="M1518 0q-28 306 -82 635q197 225 374 471q-331 77 -559 115q-192 318 -329 522q-151 -212 -330 -522q-251 -47 -559 -115q169 -237 375 -471q-34 -193 -84 -635q350 138 598 254q315 -149 596 -254z" />
    <glyph glyph-name="circle" unicode="&#x25cb;" 
d="M1724 831q0 217 -107.5 402t-292.5 293t-402 108t-402 -108t-293 -293t-108 -402t108 -402t293 -292.5t402 -107.5q163 0 311.5 63.5t256 171t171 256t63.5 311.5zM1391 831q0 -125 -64 -233t-172 -172t-233 -64t-233 64t-172 172t-64 233t64 233t172 172t233 64t233 -64
t172 -172t64 -233z" />
    <glyph glyph-name="H18533" unicode="&#x25cf;" 
d="M1724 831q0 217 -107.5 402t-292.5 293t-402 108t-402 -108t-293 -293t-108 -402t108 -402t293 -292.5t402 -107.5q163 0 311.5 63.5t256 171t171 256t63.5 311.5z" />
    <glyph glyph-name="uni25CE" unicode="&#x25ce;" 
d="M922 37q181 0 332 58.5t255.5 163t162 252.5t57.5 323t-57.5 323t-162 252t-255.5 162.5t-332 58.5t-332 -58.5t-255.5 -162.5t-162 -252t-57.5 -323t57.5 -323t162 -252.5t255.5 -163t332 -58.5zM922 207q-283 0 -460 173t-177 454q0 280 176.5 453t460.5 173
t460.5 -173t176.5 -453q0 -281 -177 -454t-460 -173zM922 315q238 0 382 144.5t144 374.5t-144 374t-382 144t-382.5 -144t-144.5 -374t144.5 -374.5t382.5 -144.5zM922 500q-152 0 -247 96t-95 238t95 237.5t247 95.5t247 -95.5t95 -237.5t-95 -238t-247 -96z" />
    <glyph glyph-name="uni25C7" unicode="&#x25c7;" horiz-adv-x="1935" 
d="M16 834l906 -906l905 906l-905 903zM473 834l449 448l448 -448l-448 -449z" />
    <glyph glyph-name="uni25C6" unicode="&#x25c6;" horiz-adv-x="1935" 
d="M16 834l906 -906l905 906l-905 903z" />
    <glyph glyph-name="H22073" unicode="&#x25a1;" 
d="M485 1270h873v-873h-873v873zM162 1593v-1519h1519v1519h-1519z" />
    <glyph glyph-name="filledbox" unicode="&#x25a0;" 
d="M162 1593v-1519h1519v1519h-1519z" />
    <glyph glyph-name="uni25B3" unicode="&#x25b3;" 
d="M72 74h1697l-847 1601zM588 373l334 631l331 -631h-665z" />
    <glyph glyph-name="triagup" unicode="&#x25b2;" 
d="M72 74h1697l-847 1601z" />
    <glyph glyph-name="uni25BD" unicode="&#x25bd;" 
d="M72 1593l850 -1601l847 1601h-1697zM588 1294h665l-331 -630z" />
    <glyph glyph-name="triagdn" unicode="&#x25bc;" 
d="M72 1593l850 -1601l847 1601h-1697z" />
    <glyph glyph-name="arrowright" unicode="&#x2192;" 
d="M1692 772l-518 629l-246 -215l213 -250h-991v-328h991l-213 -250l246 -215z" />
    <glyph glyph-name="arrowleft" unicode="&#x2190;" 
d="M150 772l518 -629l245 215l-213 250h992v328h-992l213 250l-245 215z" />
    <glyph glyph-name="arrowup" unicode="&#x2191;" 
d="M922 1667l-629 -518l219 -246l236 209v-1038h348v1038l235 -209l219 246z" />
    <glyph glyph-name="arrowdown" unicode="&#x2193;" 
d="M922 0l628 518l-219 246l-235 -209v1038h-348v-1038l-236 209l-219 -246z" />
    <glyph glyph-name="arrowboth" unicode="&#x2194;" 
d="M1276 608l-193 -260l246 -205l436 629l-436 629l-246 -205l193 -260h-709l193 260l-246 205l-436 -629l436 -629l246 205l-193 260h709z" />
    <glyph glyph-name="uni3013" unicode="&#x3013;" 
d="M274 1229v-318h1293v318h-1293zM274 741v-317h1293v317h-1293z" />
    <glyph glyph-name="guillemotleft" unicode="&#xab;" 
d="M135 766l780 -821l226 200l-623 672l627 666l-227 207l-783 -822v-102zM719 764l760 -801l225 211l-612 641l616 635l-227 217l-762 -801v-102z" />
    <glyph glyph-name="guillemotright" unicode="&#xbb;" 
d="M1708 766v102l-782 822l-228 -207l627 -666l-623 -672l226 -200zM1124 764v102l-762 801l-227 -217l617 -635l-613 -641l226 -211z" />
    <glyph glyph-name="radical" unicode="&#x221a;" 
d="M356 186h320l61 303l146 -374h350l252 1435h-309l-185 -975l-98 293h-344z" />
    <glyph glyph-name="uni223D" unicode="&#x223d;" 
d="M526 590q-150 13 -161 201q-9 90 49.5 155.5t136.5 65.5q61 0 100 -15.5t92 -58.5l123 219q-90 66 -146 88.5t-167 28.5q-79 8 -169 -23.5t-161 -93.5q-179 -167 -151 -438q12 -137 85.5 -240.5t178.5 -146.5q88 -36 212 -32.5t202 46.5q166 86 268 402q40 120 91 185.5
t120 65.5q40 0 73.5 -10.5t62.5 -33t45.5 -64.5t16.5 -100q0 -98 -57.5 -154.5t-138.5 -63.5q-84 -7 -191 66l-120 -223q69 -59 138 -85t173 -26q112 0 184.5 25.5t145.5 89.5q44 36 81 98.5t61 141t18 173t-48 179.5q-69 140 -177 205.5t-273 56.5q-116 -4 -190.5 -45.5
t-141.5 -134.5q-75 -95 -158 -324q-32 -89 -88.5 -137.5t-118.5 -42.5z" />
    <glyph glyph-name="proportional" unicode="&#x221d;" 
d="M1546 915l107 254q-60 53 -142.5 82t-164.5 23q-113 -4 -188.5 -45.5t-145.5 -134.5q-4 -4 -4 -7q-49 81 -137.5 131t-190.5 56q-81 8 -172 -23.5t-160 -93.5q-181 -169 -153 -436q13 -138 87 -242t179 -147q88 -36 211 -32.5t200 46.5q93 51 165.5 164t105.5 238
q30 106 83.5 169t127.5 72q54 5 106.5 -15t85.5 -59zM893 862q-32 -82 -35 -92q-32 -88 -89 -136.5t-120 -41.5q-148 10 -162 199q-7 89 52 155t135 66q60 0 111 -34t108 -116zM1368 598q-37 -3 -93.5 12t-111.5 43l-123 -235q140 -119 316 -119q208 0 311 111l-123 260
q-63 -72 -176 -72z" />
    <glyph glyph-name="uni2235" unicode="&#x2235;" 
d="M922 600q-90 0 -147.5 -52.5t-57.5 -144.5q0 -86 61 -141t144 -55t143.5 55t60.5 141q0 92 -57 144.5t-147 52.5zM1370 1399q-92 0 -149.5 -52.5t-57.5 -144.5q0 -87 61 -141.5t146 -54.5q83 0 144 55t61 141q0 92 -57.5 144.5t-147.5 52.5zM473 1399q-90 0 -147.5 -52.5
t-57.5 -144.5q0 -86 61 -141t144 -55q85 0 146 54.5t61 141.5q0 92 -57.5 144.5t-149.5 52.5z" />
    <glyph glyph-name="integral" unicode="&#x222b;" 
d="M774 733q9 -145 8.5 -253t-16.5 -173v17q-14 15 -70 15t-94 -22q-92 -50 -84 -167q3 -40 31 -78t63 -54q37 -19 89.5 -23.5t107.5 9.5q137 49 213 246q61 158 74 457q6 139 -9 374q-11 174 -16 236l-8 18q16 -20 55.5 -26.5t81.5 -1.5q63 7 96.5 48t38.5 93
q12 119 -90 174q-32 20 -92 24t-111 -14q-188 -72 -243 -385q-40 -223 -25 -514z" />
    <glyph glyph-name="uni222C" unicode="&#x222c;" 
d="M465 733q9 -145 8.5 -253t-16.5 -173v17q-14 15 -70 15t-94 -22q-92 -50 -84 -167q3 -40 31 -78t63 -54q37 -19 89.5 -23.5t107.5 9.5q137 49 213 246q59 155 73 457q6 149 -8 374q-11 174 -16 236l-8 18q16 -20 55.5 -26.5t81.5 -1.5q63 7 96.5 48t38.5 93
q12 119 -90 174q-32 20 -92 24t-111 -14q-189 -72 -244 -385q-39 -219 -24 -514zM1069 733q9 -145 8.5 -253t-16.5 -173v17q-14 15 -70 15t-94 -22q-92 -50 -84 -167q3 -40 31 -78t63 -54q37 -19 89.5 -23.5t107.5 9.5q137 49 213 246q61 158 74 457q6 139 -9 374
q-11 174 -16 236l-8 18q16 -20 55.5 -26.5t81.5 -1.5q63 7 96.5 48t38.5 93q12 119 -90 174q-32 20 -92 24t-111 -14q-188 -72 -243 -385q-40 -223 -25 -514z" />
    <glyph glyph-name="element" unicode="&#x2208;" 
d="M793 154h868v286h-840q-115 0 -193.5 70t-92.5 176h1126v287h-1126q14 106 92.5 176t193.5 70h840v286h-868q-187 0 -327.5 -88t-213 -240.5t-72.5 -347.5t72.5 -347t212.5 -240t328 -88z" />
    <glyph glyph-name="suchthat" unicode="&#x220b;" 
d="M1049 154q187 0 327.5 88t212.5 240t72 347q0 146 -42 270t-119.5 214t-193.5 141t-257 51h-869v-286h840q115 0 194 -70t93 -176h-1127v-287h1127q-14 -106 -93 -176t-194 -70h-840v-286h869z" />
    <glyph glyph-name="reflexsubset" unicode="&#x2286;" 
d="M1661 379h-1456v-307h1456v307zM528 1081q0 106 88 150.5t271 44.5h774v317h-807q-323 0 -498.5 -131t-175.5 -381q0 -257 174 -384.5t500 -127.5h807v318h-774q-183 0 -271 44.5t-88 149.5z" />
    <glyph glyph-name="reflexsuperset" unicode="&#x2287;" 
d="M180 379v-307h1456v307h-1456zM1313 1081q0 -105 -88 -149.5t-271 -44.5h-774v-318h807q326 0 500 127.5t174 384.5q0 250 -175.5 381t-498.5 131h-807v-317h774q183 0 271 -44.5t88 -150.5z" />
    <glyph glyph-name="propersubset" unicode="&#x2282;" 
d="M528 829q6 101 43 174.5t93 112t114.5 55.5t122.5 17h760v307h-827q-189 0 -338.5 -85t-232.5 -237t-83 -344q0 -144 48.5 -267.5t134.5 -211t207.5 -137t263.5 -49.5h827v307h-760q-64 0 -122.5 17t-114.5 55t-93 111.5t-43 174.5z" />
    <glyph glyph-name="propersuperset" unicode="&#x2283;" 
d="M1313 829q-6 -101 -43 -174.5t-93 -111.5t-114.5 -55t-122.5 -17h-760v-307h828q189 0 338 84.5t232 236.5t83 344t-83 344t-232 237t-338 85h-828v-307h760q64 0 122.5 -17t114.5 -55.5t93 -112t43 -174.5z" />
    <glyph glyph-name="union" unicode="&#x222a;" 
d="M922 338q-82 5 -145 31t-100.5 63t-61.5 86t-33 95.5t-9 97.5v880h-337v-948q0 -141 52.5 -257t144.5 -193t217.5 -119.5t271.5 -42.5t271.5 42.5t217.5 119.5t144.5 193t52.5 257v948h-338v-880q0 -51 -8.5 -97.5t-32.5 -95.5t-61.5 -86t-100.5 -63t-145 -31z" />
    <glyph glyph-name="intersection" unicode="&#x2229;" 
d="M922 1325q82 -5 145 -31t100.5 -63t61.5 -86t32.5 -95.5t8.5 -97.5v-880h338v948q0 141 -52.5 257t-144.5 193t-217.5 119.5t-271.5 42.5t-271.5 -42.5t-217.5 -119.5t-144.5 -193t-52.5 -257v-948h337v880q0 51 9 97.5t33 95.5t61.5 86t100.5 63t145 31z" />
    <glyph glyph-name="logicaland" unicode="&#x2227;" 
d="M922 1679l-793 -1605h330l465 950l462 -950h328z" />
    <glyph glyph-name="logicalor" unicode="&#x2228;" 
d="M922 -14l792 1605h-328l-462 -950l-465 950h-330z" />
    <glyph glyph-name="uniFFE2" unicode="&#xffe2;" 
d="M1688 -113v496h-1534v-307h1159v-189h375z" />
    <glyph glyph-name="arrowdblright" unicode="&#x21d2;" 
d="M1341 772l-88 -123h-1103v-256h923l-125 -178l266 -154l478 711l-478 711l-266 -154l125 -178h-923v-256h1105z" />
    <glyph glyph-name="arrowdblboth" unicode="&#x21d4;" 
d="M1434 772l-88 -125h-848l-88 125l84 121h854zM1167 1149h-491l127 180l-266 154l-478 -711l478 -711l266 154l-125 176h485l-123 -176l267 -154l477 711l-477 711l-267 -154z" />
    <glyph glyph-name="universal" unicode="&#x2200;" 
d="M1653 1593h-398l-114 -317h-443l-114 317h-396l568 -1519h321zM924 518l-131 430h254z" />
    <glyph glyph-name="existential" unicode="&#x2203;" 
d="M346 1270h801v-277l-762 2v-317h762v-281h-485q-142 0 -326 23v-318q110 -28 373 -28h796v1519h-1159v-323z" />
    <glyph glyph-name="acute" unicode="&#xb4;" 
d="M795 1690l-101 -572h299l156 572h-354z" />
    <glyph glyph-name="tilde" unicode="&#x2dc;" horiz-adv-x="0" 
 />
    <glyph glyph-name="caron" unicode="&#x2c7;" 
d="M924 1503l-191 187h-327l518 -492l514 492h-328z" />
    <glyph glyph-name="breve" unicode="&#x2d8;" 
d="M922 1178q263 0 389.5 133.5t126.5 378.5h-318q-8 -116 -55.5 -171t-142.5 -55t-143 55t-56 171h-317q0 -245 126.5 -378.5t389.5 -133.5z" />
    <glyph glyph-name="hungarumlaut" unicode="&#x2dd;" 
d="M639 1690l-139 -492h248l204 492h-313zM1038 1690l-200 -492h268l235 492h-303z" />
    <glyph glyph-name="ring" unicode="&#x2da;" 
d="M922 1202q120 0 195 68t75 190q0 113 -80 185.5t-190 72.5t-190.5 -72.5t-80.5 -185.5q0 -121 75.5 -189.5t195.5 -68.5zM922 1399q-27 0 -45.5 18.5t-18.5 42.5q0 25 17.5 43.5t46.5 18.5t46 -18.5t17 -43.5q0 -24 -18 -42.5t-45 -18.5z" />
    <glyph glyph-name="dotaccent" unicode="&#x2d9;" 
d="M922 1208q117 0 190.5 66.5t73.5 185.5q0 110 -78.5 181t-185.5 71t-186 -71t-79 -181q0 -118 74 -185t191 -67z" />
    <glyph glyph-name="cedilla" unicode="&#xb8;" 
d="M664 686v-315l184 -146l-184 -143v-309l514 452z" />
    <glyph glyph-name="ogonek" unicode="&#x2db;" 
d="M1180 -227v311l-185 143l185 146v315l-516 -461z" />
    <glyph glyph-name="exclamdown" unicode="&#xa1;" 
d="M1100 37v1010h-359v-1010h359zM1100 1229v401h-359v-401h359z" />
    <glyph glyph-name="questiondown" unicode="&#xbf;" 
d="M1137 1307v360h-359v-360h359zM807 543q0 69 42 129t175 188q121 118 121 279v49h-365q-7 -86 -41.5 -144.5t-107.5 -128.5q-126 -121 -169 -248t1 -288q42 -155 178 -244.5t350 -75.5q168 11 285 118t164 296l-318 96q-19 -75 -57.5 -113t-106.5 -44t-109.5 33t-41.5 98
z" />
    <glyph glyph-name="uni2236" unicode="&#x2236;" 
d="M1217 1493h-594l295 -561zM623 166h596l-301 551z" />
    <glyph glyph-name="uni222E" unicode="&#x222e;" 
d="M774 733q0 -32 4 -90q-106 51 -106 178q0 129 100 176q-7 -133 2 -264zM801 1260q-186 -33 -287.5 -151.5t-101.5 -287.5q0 -148 99 -269t267 -163q-3 -44 -12 -82v17q-14 15 -70 15t-94 -22q-92 -50 -84 -167q3 -40 31 -78t63 -54q37 -19 89.5 -23.5t107.5 9.5
q137 49 213 246q18 47 35 131q187 33 297 158t110 282q0 169 -101.5 287.5t-287.5 151.5q-4 40 -4 57l-8 18q16 -20 55.5 -26.5t81.5 -1.5q63 7 96.5 48t38.5 93q12 119 -90 174q-32 20 -92 24t-111 -14q-184 -71 -241 -372zM1092 1004q112 -47 112 -183q0 -132 -112 -180
q1 11 2 33.5t2 32.5q5 152 -4 297z" />
    <glyph glyph-name="summation" unicode="&#x2211;" 
d="M840 834l-533 -676v-84h1229v297h-670l359 463l-359 462h670v297h-1229v-84z" />
    <glyph glyph-name="product" unicode="&#x220f;" 
d="M795 74v286h-117v947h485v-947h-116v-286h563v286h-119v947h119v286h-1379v-286h119v-947h-119v-286h564z" />
    <glyph glyph-name="currency" unicode="&#xa4;" 
d="M930 125q201 0 352 74l158 -193l284 217l-178 215q100 168 103 404q-3 210 -99 385l172 196l-262 240l-166 -188q-165 84 -364 84q-188 0 -342 -74l-156 178l-266 -240l156 -176q-111 -174 -111 -405q0 -252 117 -426l-160 -193l285 -217l149 182q138 -63 328 -63z
M930 455q-162 0 -265.5 100t-103.5 287q0 178 106 282.5t263 104.5t262.5 -104t105.5 -283q0 -187 -103 -287t-265 -100z" />
    <glyph glyph-name="uni2109" unicode="&#x2109;" 
d="M369 1202q120 0 195 68t75 190q0 113 -80 185.5t-190 72.5t-190.5 -72.5t-80.5 -185.5q0 -121 75.5 -189.5t195.5 -68.5zM369 1399q-27 0 -45.5 18.5t-18.5 42.5q0 25 17.5 43.5t46.5 18.5t46 -18.5t17 -43.5q0 -24 -18 -42.5t-45 -18.5zM737 74h367v569h250
q270 0 370 25v317q-131 -16 -325 -16h-295v297h659v327h-1026v-1519z" />
    <glyph glyph-name="perthousand" unicode="&#x2030;" 
d="M1128 1669l-1101 -1421l219 -207l1102 1440zM328 1028q136 0 214.5 87t78.5 261q0 175 -79 261.5t-214 86.5t-214 -86.5t-79 -261.5q0 -174 78.5 -261t214.5 -87zM328 1268q-70 0 -70 108q0 56 19.5 82.5t50.5 26.5q30 0 49.5 -26.5t19.5 -82.5q0 -108 -69 -108zM907 -51
q136 0 214.5 87t78.5 261q0 175 -79 261.5t-214 86.5t-214 -86.5t-79 -261.5q0 -174 78.5 -261t214.5 -87zM907 188q-69 0 -69 109q0 56 19.5 82.5t49.5 26.5q31 0 50.5 -26.5t19.5 -82.5q0 -109 -70 -109zM1526 -51q136 0 214.5 87t78.5 261q0 175 -79 261.5t-214 86.5
t-214 -86.5t-79 -261.5q0 -174 78.5 -261t214.5 -87zM1526 188q-70 0 -70 109q0 56 19.5 82.5t50.5 26.5q30 0 49.5 -26.5t19.5 -82.5q0 -109 -69 -109z" />
    <glyph glyph-name="uni25C1" unicode="&#x25c1;" 
d="M1649 1657l-1456 -830l1456 -825v1655zM1354 1141v-623l-537 309z" />
    <glyph glyph-name="uni25C0" unicode="&#x25c0;" 
d="M1649 1657l-1456 -830l1456 -825v1655z" />
    <glyph glyph-name="uni25B7" unicode="&#x25b7;" 
d="M193 1657v-1655l1456 825zM487 1141l537 -314l-537 -309v623z" />
    <glyph glyph-name="uni25B6" unicode="&#x25b6;" 
d="M193 1657v-1655l1456 825z" />
    <glyph glyph-name="uni2664" unicode="&#x2664;" horiz-adv-x="1880" 
d="M1481 360q105 40 165 124.5t68 191.5q8 139 -63.5 265t-247.5 265q-327 256 -402 475h-159q-75 -219 -402 -475q-176 -139 -247.5 -265t-63.5 -265q8 -107 68 -191.5t165 -124.5q46 -21 128 -21t124 19q-25 -37 -77 -53q-97 -30 -220 -33v-229h1209v229q-122 3 -219 33
q-53 17 -78 53q42 -19 124 -19t128 21zM922 1350q20 -38 48 -74t64 -71t60 -57t66 -56.5t54 -44.5q112 -94 159 -157.5t50 -133.5t-39.5 -123t-107.5 -64q-71 -15 -160.5 7.5t-134.5 70.5l-14 -14q-11 -71 -4.5 -207.5t28.5 -189.5h-139q22 53 28.5 189.5t-3.5 207.5l-15 14
q-45 -48 -134.5 -70.5t-160.5 -7.5q-65 11 -107.5 64t-39.5 123t50 133.5t159 157.5q1 1 66.5 55.5t89.5 77t68 73t69 97.5z" />
    <glyph glyph-name="spade" unicode="&#x2660;" horiz-adv-x="1880" 
d="M1481 360q105 40 165 124.5t68 191.5q8 139 -63.5 265t-247.5 265q-327 256 -402 475h-159q-75 -219 -402 -475q-176 -139 -247.5 -265t-63.5 -265q8 -107 68 -191.5t165 -124.5q46 -21 149.5 -21t145.5 19q-4 -7 -10 -13t-14.5 -11t-14.5 -8.5t-17 -7t-15.5 -5t-16 -5
t-12.5 -3.5q-92 -29 -240 -33v-229h1209v229q-148 4 -240 33q-1 0 -12.5 3.5t-16 5t-15.5 5t-17 7t-14.5 8.5t-14.5 11t-10 13q42 -19 145.5 -19t149.5 21z" />
    <glyph glyph-name="uni2661" unicode="&#x2661;" horiz-adv-x="1824" 
d="M930 51q345 207 540 428q287 321 287 621q0 216 -112 354.5t-297 157.5q-137 13 -251 -42.5t-175 -160.5q-61 105 -175 160.5t-251 42.5q-186 -19 -298 -157.5t-112 -354.5q0 -300 287 -621q195 -221 540 -428h17zM922 393q-211 147 -314 250q-193 202 -219 377
q-21 137 30.5 213.5t153.5 89.5q94 12 185 -61t153 -218h21q62 145 153 218t185 61q102 -13 153.5 -89.5t30.5 -213.5q-26 -175 -219 -377q-105 -105 -313 -250z" />
    <glyph glyph-name="heart" unicode="&#x2665;" horiz-adv-x="1824" 
d="M86 1100q0 -300 287 -621q195 -221 540 -428h17q345 207 540 428q287 321 287 621q0 216 -110 354t-295 158q-141 15 -259.5 -74.5t-170.5 -239.5q-52 150 -170.5 239.5t-259.5 74.5q-185 -20 -295.5 -158t-110.5 -354z" />
    <glyph glyph-name="uni2667" unicode="&#x2667;" horiz-adv-x="1880" 
d="M922 1696q-156 0 -261.5 -56t-168.5 -172q-35 -66 -37.5 -161.5t22.5 -149.5l-6 -12q-106 -3 -197 -64q-108 -74 -141 -211.5t21 -273.5q52 -135 169 -199t295 -37q-16 -40 -61 -55q-99 -30 -240 -33v-229h1209v229q-141 3 -240 33q-45 15 -61 55q178 -27 295.5 37
t169.5 199q53 136 20 271t-141 208q-53 37 -97.5 53t-99.5 17l-6 12q25 54 22.5 149t-36.5 162q-118 228 -430 228zM922 1434q80 0 140 -42.5t79 -107.5q20 -70 4.5 -151t-62.5 -144l25 -28q41 27 110.5 28t114.5 -24q69 -34 101 -99t14 -155q-18 -85 -90 -128.5t-170 -37.5
q-119 8 -197 92l-24 -10q-9 -87 -3.5 -212.5t27.5 -178.5h-139q22 53 28 178.5t-3 212.5l-25 10q-78 -84 -197 -92q-98 -6 -170 37.5t-90 128.5q-18 90 14 155t101 99q45 25 114.5 24t110.5 -28l25 28q-47 63 -62.5 144t4.5 151q19 65 79.5 107.5t140.5 42.5z" />
    <glyph glyph-name="club" unicode="&#x2663;" horiz-adv-x="1880" 
d="M922 1696q-156 0 -261.5 -56t-168.5 -172q-35 -66 -37.5 -161.5t22.5 -149.5l-6 -12q-106 -3 -197 -64q-108 -74 -141 -211.5t21 -273.5q50 -130 186.5 -191.5t318.5 -33.5q-16 -49 -65 -66q-83 -29 -277 -33v-229h1209v229q-194 4 -277 33q-29 10 -43 25.5t-22 40.5
q182 -28 319 33.5t187 191.5q53 136 20 271t-141 208q-53 37 -97.5 53t-99.5 17l-6 12q25 54 22.5 149t-36.5 162q-118 228 -430 228z" />
    <glyph glyph-name="uni25C9" unicode="&#x25c9;" 
d="M922 1630q-246 0 -429 -99.5t-279.5 -280.5t-96.5 -421q0 -364 217 -582t588 -218t587.5 217.5t216.5 582.5q0 240 -96.5 421t-279 280.5t-428.5 99.5zM922 1403q276 0 431.5 -153t155.5 -421t-155.5 -420.5t-431.5 -152.5t-432 152.5t-156 420.5t156 421t432 153z
M922 1239q-184 0 -296 -111.5t-112 -298.5t112 -298t296 -111t295.5 111t111.5 298t-111.5 298.5t-295.5 111.5z" />
    <glyph glyph-name="uni25C8" unicode="&#x25c8;" horiz-adv-x="1935" 
d="M16 834l906 -906l905 906l-905 903zM496 834l426 -426l426 426l-426 426zM301 834l621 620l620 -620l-620 -621z" />
    <glyph glyph-name="uni25A3" unicode="&#x25a3;" 
d="M383 1372h1077v-1077h-1077v1077zM162 1593v-1519h1519v1519h-1519zM526 1229v-791h791v791h-791z" />
    <glyph glyph-name="uni25D0" unicode="&#x25d0;" 
d="M1724 831q0 217 -107.5 402t-292.5 293t-402 108t-402 -108t-293 -293t-108 -402t108 -402t293 -292.5t402 -107.5q163 0 311.5 63.5t256 171t171 256t63.5 311.5zM926 1352q224 -9 365 -150.5t141 -370.5t-140.5 -370t-365.5 -150v1041z" />
    <glyph glyph-name="uni25D1" unicode="&#x25d1;" 
d="M119 831q0 -217 108 -402t293 -292.5t402 -107.5q163 0 311.5 63.5t256 171t171 256t63.5 311.5q0 217 -107.5 402t-292.5 293t-402 108t-402 -108t-293 -293t-108 -402zM918 1352v-1041q-225 9 -365.5 150t-140.5 370t141 370.5t365 150.5z" />
    <glyph glyph-name="shade" unicode="&#x2592;" horiz-adv-x="1935" 
d="M487 1434q0 63 -55 116.5t-119 53.5t-117 -53.5t-53 -116.5q0 -65 53 -118.5t117 -53.5q65 0 119.5 54t54.5 118zM895 1434q0 63 -54 116.5t-120 53.5q-64 0 -117 -53.5t-53 -116.5q0 -65 53 -118.5t117 -53.5q66 0 120 53.5t54 118.5zM1294 1434q0 64 -54 117t-116 53
q-65 0 -119.5 -53t-54.5 -117t54.5 -118t119.5 -54q62 0 116 54t54 118zM1702 1434q0 63 -53.5 116.5t-116.5 53.5q-66 0 -120 -53.5t-54 -116.5q0 -65 54 -118.5t120 -53.5q63 0 116.5 54t53.5 118zM487 1038q0 63 -55 116.5t-119 53.5t-117 -53.5t-53 -116.5
q0 -67 52.5 -120.5t117.5 -53.5t119.5 53.5t54.5 120.5zM895 1038q0 63 -54 116.5t-120 53.5q-64 0 -117 -53.5t-53 -116.5q0 -67 52.5 -120.5t117.5 -53.5q66 0 120 53.5t54 120.5zM1294 1038q0 64 -54 117t-116 53q-65 0 -119.5 -53t-54.5 -117q0 -67 54.5 -120.5
t119.5 -53.5q62 0 116 54t54 120zM1702 1038q0 63 -53.5 116.5t-116.5 53.5q-66 0 -120 -53.5t-54 -116.5q0 -67 54 -120.5t120 -53.5q64 0 117 53.5t53 120.5zM487 635q0 65 -54 119.5t-120 54.5q-64 0 -117 -54.5t-53 -119.5q0 -62 53 -116t117 -54q65 0 119.5 54
t54.5 116zM895 635q0 65 -53.5 119.5t-120.5 54.5q-64 0 -117 -54.5t-53 -119.5q0 -62 53 -116t117 -54q67 0 120.5 53.5t53.5 116.5zM1294 635q0 64 -54 119t-116 55q-66 0 -120 -54.5t-54 -119.5q0 -63 54 -116.5t120 -53.5q62 0 116 53.5t54 116.5zM1702 635
q0 65 -53 119.5t-117 54.5q-66 0 -120 -54.5t-54 -119.5q0 -62 54.5 -116t119.5 -54q64 0 117 54t53 116zM487 240q0 62 -55 118t-119 56t-117 -55.5t-53 -118.5q0 -64 52.5 -117t117.5 -53t119.5 53t54.5 117zM895 240q0 63 -54.5 118.5t-119.5 55.5q-64 0 -117 -55.5
t-53 -118.5q0 -64 52.5 -117t117.5 -53q66 0 120 53t54 117zM1294 240q0 64 -54 119t-116 55q-64 0 -119 -55t-55 -119t54.5 -117t119.5 -53q62 0 116 53t54 117zM1702 240q0 62 -54 118t-116 56q-65 0 -119.5 -55.5t-54.5 -118.5q0 -64 54 -117t120 -53q63 0 116.5 53
t53.5 117z" />
    <glyph glyph-name="uni25A4" unicode="&#x25a4;" horiz-adv-x="1935" 
d="M1444 1362v-96h-1045v96h1045zM1444 309h-1045v97h1045v-97zM1444 633h-1045v94h1045v-94zM1444 944h-1045v94h1045v-94zM162 76h1519v1519h-1519v-1519z" />
    <glyph glyph-name="uni25A5" unicode="&#x25a5;" horiz-adv-x="1935" 
d="M1446 307h-90v1057h90v-1057zM397 307v1057h90v-1057h-90zM719 307v1057h94v-1057h-94zM1034 307v1057h90v-1057h-90zM162 1595v-1519h1519v1519h-1519z" />
    <glyph glyph-name="uni25A8" unicode="&#x25a8;" horiz-adv-x="1935" 
d="M1448 1184v-230l-647 -645h-230zM1448 625v-316h-315zM395 1362h312l-312 -311v311zM1044 1362h226l-875 -875v228zM162 76h1519v1519h-1519v-1519z" />
    <glyph glyph-name="uni25A7" unicode="&#x25a7;" horiz-adv-x="1935" 
d="M395 1184l877 -875h-230l-647 645v230zM395 625l316 -316h-316v316zM1448 1362v-311l-311 311h311zM799 1362l649 -647v-228l-875 875h226zM1681 76v1519h-1519v-1519h1519z" />
    <glyph glyph-name="uni25A6" unicode="&#x25a6;" horiz-adv-x="1935" 
d="M1446 1360v-92h-90v92h90zM1124 1360v-92h-88v92h88zM813 1360v-92h-94v92h94zM487 1360v-92h-90v92h90zM1446 311h-90v92h90v-92zM1124 403v-92h-88v92h88zM813 403v-92h-94v92h94zM487 403v-92h-90v92h90zM1446 635h-90v90h90v-90zM1124 725v-90h-88v90h88zM813 725
v-90h-94v90h94zM487 725v-90h-90v90h90zM1446 946h-90v90h90v-90zM1124 1036v-90h-88v90h88zM813 1036v-90h-94v90h94zM487 1036v-90h-90v90h90zM162 76h1519v1519h-1519v-1519z" />
    <glyph glyph-name="uni25A9" unicode="&#x25a9;" horiz-adv-x="1935" 
d="M1440 317h-62l62 60v-60zM1440 498l-68 61l68 66v-127zM1200 385l62 -68h-129zM1440 1051l-66 63l66 60v-123zM1200 940l111 -104l-109 -109l-106 109zM922 664l106 -109l-106 -111l-109 111zM639 381l61 -64h-118zM1262 1354l-62 -68l-63 68h125zM922 1223l106 -111
l-106 -104l-107 108zM641 942l107 -106l-107 -109l-111 109zM403 614l64 -61l-64 -57v118zM711 1354l-68 -68l-57 68h125zM403 1174l66 -60l-66 -63v123zM162 1595v-1519h1519v1519h-1519z" />
    <glyph glyph-name="uni2668" unicode="&#x2668;" 
d="M840 252q32 0 53 18q24 15 31 47q1 3 7 24t11 32q9 27 35 84q11 20 72 149q32 74 32 146q0 33 -6 63q-2 9 -8 29.5t-8 32.5l-21 65q-12 36 -18 68q-23 51 -31 92q-12 32 -12 74q0 53 8 84q8 39 19 65q2 8 7 26t7 29q6 27 6 72v64q-4 40 -4 43q0 19 -16 67q-3 6 -3 12
q-10 29 -38 54q-36 22 -60 22q-30 -15 -37 -45q-8 -24 -8 -43q0 -23 -4 -55q-2 -12 -8 -33t-6 -22q-2 -9 -7.5 -27t-7.5 -27q-11 -19 -22 -53q-17 -32 -47 -119q-23 -74 -23 -139q0 -68 17 -121q11 -45 30 -88q17 -33 31 -80q12 -54 12 -112q0 -55 -14 -113q-5 -22 -16 -58
t-13 -42q-12 -42 -20 -76q-8 -36 -8 -88q0 -47 24 -78q27 -43 64 -43zM911 -27q413 7 617 115q105 57 168.5 157t60.5 193q-3 105 -34.5 169t-100.5 116q-44 36 -93 57t-122 39l-27 2q-7 98 -59 228q-15 36 -23 81t-4 76q2 11 11.5 46.5t16.5 70t9 61.5q-4 85 -12 148
q-11 34 -47 74q-30 24 -64 18q-37 -32 -41 -80q0 -47 -14 -98q-5 -17 -35 -94q-19 -39 -43 -113q-22 -98 -4 -188q9 -30 28 -82t25 -70q14 -49 17 -145q0 -36 -13 -99q-55 -150 -53 -241q3 -34 22.5 -64t53.5 -47q48 -6 68 23q9 14 21.5 50.5t29.5 72.5q11 25 34 72t35.5 75
t14.5 37q85 -18 141 -84q28 -29 20.5 -93t-51.5 -96q-71 -52 -168.5 -80.5t-255.5 -48.5q-106 -14 -260.5 -4t-275.5 43q-83 24 -136 77t-53 130q0 35 25.5 74t62.5 61q42 26 111 35q0 -2 -10 -12q-30 -99 -47 -164q-11 -92 16 -154q20 -23 52.5 -25.5t56.5 19.5
q11 10 20 23t13 22.5t11 26.5t11 25q12 23 29.5 63t31.5 64q45 108 54 135q11 60 2 123q-19 72 -35 116q-49 128 -57 205q-2 43 24 131q18 49 21 117q-1 21 -4 60.5t-3 54.5q-17 52 -53 106q-32 25 -65 19q-21 -12 -33 -39q-4 -15 -9.5 -61t-11.5 -77q-9 -27 -36 -96.5
t-41 -111.5q-21 -61 -21 -123q0 -71 14 -109q11 -39 56 -151l2 -5q-2 -1 -17.5 -3t-36.5 -6t-34 -7q-109 -24 -182 -68t-126 -112q-58 -76 -58.5 -197.5t54.5 -195.5q58 -82 179 -146.5t292 -93.5q169 -30 338 -27z" />
    <glyph glyph-name="uni260F" unicode="&#x260f;" 
d="M1120 993q8 -40 35 -71q21 -31 43 -45q12 -12 33 -39q16 -21 35 -64l129 -475l-6 -41h-932l-4 39l127 471q14 47 32 70q28 36 31 39q23 16 45 45q21 28 35 71l199 15zM553 1036q11 81 22 99q4 6 15 15t12 13v-47q0 -40 -10 -53q-6 -11 -39 -27zM1290 1032q-3 2 -14.5 9.5
t-17 12t-7.5 9.5q-8 8 -8 53v39q1 -2 11.5 -9t13.5 -11q8 -15 22 -103zM1139 1411q20 -3 66.5 -11t72.5 -11q26 -7 71 -21t58 -18q88 -27 156 -117q43 -52 49 -152q0 -28 -4 -28q-4 -4 -25 -4h-98q-17 0 -21 4q-6 3 -6 22q-21 79 -57 127q-43 53 -70 72q-86 40 -170 59
q-139 25 -239 25q-102 0 -238 -25q-94 -21 -172 -59q-40 -26 -70 -72q-37 -49 -55 -127q-4 -20 -8 -22q-4 -4 -23 -4h-98q-18 0 -22 4q-6 0 -3 28q6 103 50 152q58 87 153 117q116 36 129 39l137 22q128 19 219 19t218 -19zM922 303q136 0 212 88.5t76 241.5
q0 158 -82.5 249t-205.5 91q-117 0 -203 -92.5t-86 -247.5q0 -154 75 -242t214 -88zM922 471q-56 0 -97 47.5t-41 124.5q0 82 39.5 126t98.5 44t98 -44t39 -126q0 -77 -40.5 -124.5t-96.5 -47.5zM924 1227q32 0 57 -16.5t37 -45.5l2 -14h-197v14q30 62 101 62zM203 864h186
q25 0 35 4q13 0 14 6q0 2 -2 3l6 -5l-2 -8v-2l-2 -2l-198 -536l16 -170q0 -38 25 -60q26 -22 53 -22h1171q33 0 56 20q23 16 26 62l19 170l-197 538l-2 8q4 -2 14 -2q8 -4 31 -4h188q26 0 57 13t48 36q39 45 39 156q-8 141 -82.5 250.5t-202.5 159.5q-82 33 -165 53.5
t-163 28.5t-129.5 10t-119.5 2q-101 0 -169 -3.5t-184.5 -25.5t-224.5 -65q-128 -50 -202.5 -159.5t-82.5 -250.5q0 -111 39 -156q17 -23 48 -36t57 -13z" />
    <glyph glyph-name="uni260E" unicode="&#x260e;" 
d="M1309 1012q-25 17 -58 37q-8 8 -8 34v74q27 -27 33 -35q25 -36 33 -110zM924 1227q32 0 57 -16.5t37 -45.5l2 -14h-197v14q30 62 101 62zM922 303q-121 0 -205 95.5t-84 244.5q0 78 25.5 142.5t67 104.5t92.5 61.5t104 21.5t103.5 -21.5t92 -61.5t67 -104.5t25.5 -142.5
q0 -149 -83.5 -244.5t-204.5 -95.5zM537 1012q8 76 32 110q6 8 33 35v-74q0 -26 -8 -34q-26 -15 -57 -37zM203 864h186q25 0 35 4q13 0 14 6q0 2 -2 3l6 -5l-2 -8v-2l-2 -2l-176 -536l19 -170q4 -40 22.5 -56.5t52.5 -25.5h1127q67 7 78 82l22 170l-174 538l-2 8
q24 -6 45 -6h188q26 0 57 13t48 36q39 45 39 156q-8 141 -82.5 250.5t-202.5 159.5q-82 33 -165 53.5t-163 28.5t-129.5 10t-119.5 2q-101 0 -169 -3.5t-184.5 -25.5t-224.5 -65q-128 -50 -202.5 -159.5t-82.5 -250.5q0 -111 39 -156q17 -23 48 -36t57 -13z" />
    <glyph glyph-name="uni261C" unicode="&#x261c;" 
d="M362 1210q-13 0 -67 -4q-15 -4 -82 -24q-42 -20 -70 -56q-28 -35 -28 -82q0 -49 28 -81q29 -41 70 -52q35 -21 82 -24q27 -6 67 -6h127q-2 -25 -2 -31v-8q0 -9 2 -13q0 -6 5 -26q-22 -33 -27 -43q-7 -13 -16 -39q-7 -18 -5 -31q0 -16 9 -57q-22 -36 -25 -49
q-10 -20 -10 -43q0 -60 41 -101q41 -50 135 -80q21 -8 51 -8q16 -6 53 -6q54 0 84 12q32 16 47 39h154q35 0 53 4q18 2 47 13q5 2 15 5t18 6t15 7q21 12 45 21q15 11 49 24q5 2 17 8.5t16 6.5h10v-105h397v776h-397v-67q-6 0 -8 2q-7 0 -7 2q-6 0 -6 6q-3 0 -6 8
q-11 6 -65 43l-74 39q-31 15 -88 37q-55 10 -101 10q-35 0 -59 -6q-13 -4 -47 -27h-447zM362 995q-14 0 -22 4q-20 0 -33 5q-6 0 -26 10q-13 6 -13 33q0 19 13 26q5 2 14 5.5t12 4.5l33 11q4 0 11.5 1t10.5 1h330l-61 -101h-269zM1042 979l-102 76l-115 -140
q-14 -19 -32 -26q-20 -10 -31 -10h-12q-13 0 -13 12q-2 2 -1.5 15.5t3.5 21.5l131 166q2 2 27 22q16 8 31 8q45 0 110 -39q72 -42 121 -75q11 -10 58 -39q17 -10 53 -23v-94q-69 -27 -113 -35q-52 -14 -86 -14h-31q-16 0 -22 4q-6 0 -14 4q-10 0 -13 6q-6 3 -6 8q-3 0 -8 11
q-1 2 -3 5t-3 5q-5 3 -10 24zM1253 608q-34 -4 -49 -8q-22 -11 -43 -18q-6 -2 -15 -7t-13 -6q-13 -10 -17 -10q-28 -14 -33 -16l-34 -17q-24 -8 -33 -8q-12 -4 -31 -4h-82q3 26 17 53q2 5 5 17.5t5 17.5q12 6 43 37q23 26 33 59q48 -3 118 9q88 20 146 49v-148h-17z
M1427 516h-38v522h38v-522zM836 705q-27 0 -54 14q-32 5 -75 29q-41 23 -43 24q-19 9 -21 19q-9 9 -2 38q0 11 10 21q0 -16 13 -29q8 -14 24 -14q11 -14 31 -14q10 -2 39 -2q23 0 37 2q21 0 41 14q15 -11 24 -27q12 -21 12 -30q0 -31 -12 -37q-11 -8 -24 -8zM637 616
q-24 9 -33 21q-12 15 -12 43q0 14 2 18q0 9 8 9q2 0 29 -9q21 -8 37 -22q16 -16 57 -27q43 -16 59 -16q0 -38 -6 -41q-6 -6 -24 -6q-29 0 -47 6q-33 3 -70 24zM684 449q-48 0 -84 20q-45 15 -45 51q0 27 4 33q0 8 4 8q7 -13 27 -20q6 -5 35 -17q10 -3 27.5 -7.5t23.5 -6.5
q11 -6 43 -10h4q0 -2 4 -2h6q0 -45 -16 -45q-12 -4 -33 -4z" />
    <glyph glyph-name="uni261E" unicode="&#x261e;" 
d="M1481 1210h-447q-34 23 -47 27q-24 6 -59 6q-46 0 -101 -10q-57 -22 -88 -37l-73 -39q-51 -36 -66 -43q-3 -8 -6 -8q0 -6 -6 -6q0 -2 -6 -2q-2 -2 -9 -2v67h-397v-776h397v105h11q4 0 15.5 -6.5t16.5 -8.5q36 -13 50 -24q24 -9 45 -21q3 -1 47 -18q28 -11 47 -13
q18 -4 53 -4h154q16 -23 47 -39q30 -12 84 -12q37 0 53 6q30 0 51 8q94 30 135 80q41 41 41 101q0 23 -10 43q-4 15 -24 49q8 36 8 57q2 15 -4 31q-7 22 -17 39q-8 16 -26 43q4 16 4 26q2 4 2 13v8q0 6 -2 31h127q40 0 67 6q47 3 82 24q41 11 70 52q29 33 29 81q0 46 -29 82
q-28 36 -70 56q-67 20 -82 24q-54 4 -67 4zM1481 995h-269l-61 101h330q3 0 10.5 -1t11.5 -1l33 -11q4 -1 13 -4.5t14 -5.5q12 -6 12 -26q0 -27 -12 -33q-20 -10 -27 -10q-12 -5 -33 -5q-8 -4 -22 -4zM801 979l82 -107q-5 -21 -11 -24q-1 -2 -3 -5t-3 -5q-6 -11 -8 -11
q0 -5 -6 -8q-3 -6 -12 -6q-8 -4 -15 -4q-6 -4 -22 -4h-31q-34 0 -86 14q-44 8 -113 35v94q39 15 54 23q45 27 57 39q49 33 121 75q65 39 110 39q15 0 31 -8q25 -20 27 -22l131 -166q3 -8 3.5 -21.5t-1.5 -15.5q0 -12 -12 -12h-13q-10 0 -30 10q-19 8 -33 26l-115 140z
M590 608h-17v148q58 -29 146 -49q70 -12 119 -9q11 -35 32 -59q31 -31 43 -37q1 -4 5 -16.5t6 -18.5q12 -25 16 -53h-82q-19 0 -31 4q-8 0 -32 8q-6 3 -17.5 8.5t-17.5 8.5q-5 2 -33 16q-3 0 -16 10q-4 1 -13.5 6t-15.5 7q-21 7 -43 18q-15 4 -49 8zM416 516v522h39v-522
h-39zM1008 705q-14 0 -25 8q-12 6 -12 37q0 9 12 30q8 14 25 27q20 -14 41 -14q14 -2 36 -2q29 0 39 2q20 0 31 14q17 0 25 14q12 12 12 29q10 -10 10 -21q7 -29 -2 -38q-3 -10 -20 -19q-3 -1 -43 -24q-42 -24 -76 -29q-27 -14 -53 -14zM1206 616q-37 -21 -69 -24
q-18 -6 -47 -6q-19 0 -25 6q-6 3 -6 41q16 0 59 16q43 12 58 27q17 14 36 22q27 9 29 9q8 0 8 -9q2 -4 2 -18q0 -28 -12 -43q-9 -12 -33 -21zM1159 449q-21 0 -33 4q-16 0 -16 45h6q4 0 4 2h4q32 4 43 10q6 2 24 6.5t28 7.5q26 11 34 17q20 7 27 20q4 0 4 -8q4 -6 4 -33
q0 -36 -45 -51q-36 -20 -84 -20z" />
    <glyph glyph-name="paragraph" unicode="&#xb6;" 
d="M1171 1593v-1519h328v1519h-328zM668 1593q-151 0 -237.5 -95t-86.5 -232t87 -232.5t237 -95.5h71v-864h328v1519h-399z" />
    <glyph glyph-name="dagger" unicode="&#x2020;" 
d="M752 1200h-390v-307h390v-819h338v819h389v307h-389v393h-338v-393z" />
    <glyph glyph-name="daggerdbl" unicode="&#x2021;" 
d="M756 1303h-394v-297h394v-154h-332v-297h332v-481h329v481h332v297h-332v154h394v297h-394v290h-329v-290z" />
    <glyph glyph-name="arrowupdn" unicode="&#x2195;" 
d="M748 1174v-691l-236 209l-219 -246l629 -518l628 518l-219 246l-235 -209v691l235 -209l219 245l-628 519l-629 -519l219 -245z" />
    <glyph glyph-name="uni2197" unicode="&#x2197;" 
d="M1579 1645l-821 -21l30 -328l277 15l-903 -1075l135 -111l133 -113l901 1075l37 -274l311 27z" />
    <glyph glyph-name="uni2199" unicode="&#x2199;" 
d="M262 14l821 21l-30 327l-277 -14l903 1075l-135 111l-133 113l-901 -1076l-37 275l-311 -27z" />
    <glyph glyph-name="uni2196" unicode="&#x2196;" 
d="M262 1645l-100 -805l311 -27l37 274l901 -1075l133 113l135 111l-903 1075l277 -15l30 328z" />
    <glyph glyph-name="uni2198" unicode="&#x2198;" 
d="M1579 14l100 805l-311 27l-37 -275l-901 1076l-133 -113l-135 -111l903 -1075l-277 14l-30 -327z" />
    <glyph glyph-name="uni266D" unicode="&#x266d;" 
d="M449 1532v-1417l403 20q157 62 277 168.5t186 231.5q57 112 42.5 249.5t-83.5 214.5q-86 94 -223.5 112t-262.5 -60l-22 -9v490h-317zM768 377v389q47 58 112.5 71.5t114.5 -24.5t52 -118.5t-48 -155.5q-73 -103 -194 -164z" />
    <glyph glyph-name="uni2669" unicode="&#x2669;" 
d="M1194 1554h-252v-1040q-45 3 -98 -21t-88 -63q-63 -69 -75 -143t38 -131q46 -49 143 -50.5t191 54.5q74 47 107.5 120t33.5 181v1093z" />
    <glyph glyph-name="musicalnote" unicode="&#x266a;" 
d="M961 1079q72 -23 121 -90t63 -158q17 -114 -15 -211t-120 -204l135 -86q284 254 276 544q-4 148 -88.5 276.5t-230.5 227.5q-120 81 -176 178l-217 -94v-948q-45 3 -98.5 -21t-88.5 -63q-63 -69 -75 -143t38 -131q46 -49 143 -50.5t191 54.5q142 89 142 301v618z" />
    <glyph glyph-name="uni266C" unicode="&#x266c;" 
d="M1335 1176l-532 -82v67l532 80v-65zM1587 1599l-1038 -143v-938q-44 3 -98 -21t-89 -63q-62 -70 -74 -144.5t38 -131.5q47 -48 142.5 -49t190.5 55q144 88 144 299v330l532 81v-278q-45 3 -99 -21t-87 -63q-63 -71 -75.5 -145t38.5 -131q47 -48 143 -49t191 55
q141 88 141 299v1058z" />
    <glyph glyph-name="uni327F" unicode="&#x327f;" 
d="M31 866v-129h411v234h-153q9 207 200 379q9 9 11 10v-1067l-2 2q-85 68 -139.5 167t-63.5 212h-250q9 -149 84.5 -293.5t194.5 -243.5q243 -200 608 -200t594 213q140 128 212 293.5t72 351.5v129h-456v-234h198q-12 -188 -172 -348l-299 522l299 461q68 -65 112.5 -153
t53.5 -185h250q-9 149 -84 294t-194 243q-243 200 -609 200q-349 0 -587 -213q-291 -253 -291 -645zM1239 1421h-92l-373 -534v534h-186q139 74 321 74q173 0 330 -74zM625 221h149v283l133 168l244 -451h59q-125 -55 -278 -55q-167 0 -307 55z" />
    <glyph glyph-name="uni321C" unicode="&#x321c;" 
d="M31 834q0 -259 68 -483.5t204 -391.5l236 115q-121 199 -176.5 381.5t-55.5 378.5q0 198 60 397.5t172 361.5l-236 115q-136 -167 -204 -391.5t-68 -482.5zM1812 834q0 258 -68 482.5t-204 391.5l-235 -115q112 -161 171.5 -360.5t59.5 -398.5q0 -196 -55 -379t-176 -381
l235 -115q136 167 204 391.5t68 483.5zM764 90h317v324h355v266h-1043l-2 -266h373v-324zM1307 1491h-807v-266h463q-43 -72 -191 -143.5t-344 -114.5l104 -242q270 41 467 168q151 -48 304 -162l110 230q-99 76 -211 122q97 138 105 310v98z" />
    <glyph glyph-name="afii61352" unicode="&#x2116;" 
d="M365 813l176 -739h309v448q23 -232 122 -354.5t257 -122.5q160 0 258 113v-125h295v370h-187q21 119 21 234q-3 592 -387 592q-89 0 -158 -35t-114 -99t-71 -148t-36 -189v835h-301v-852l-141 852h-347v-1519h304v739zM1229 905q47 0 65.5 -65.5t18.5 -202.5t-20 -202.5
t-64 -65.5q-45 0 -64.5 65t-19.5 203q0 137 18.5 202.5t65.5 65.5z" />
    <glyph glyph-name="uni33C7" unicode="&#x33c7;" 
d="M31 831q-1 -276 58 -443.5t185 -266.5q67 -52 182 -71t210 -3q157 27 249 168q109 -170 316 -170q177 0 289 133v-145h295v370h-191q25 106 25 234q0 274 -105.5 433t-312.5 159t-311.5 -159t-104.5 -433q0 -119 23 -227l-109 100q-33 -62 -86 -92.5t-106 -22.5
q-90 13 -142.5 135t-52.5 301t52.5 300.5t142.5 136.5q122 20 190 -107l227 195q-50 105 -130 169t-177 89q-84 22 -189 2.5t-175 -72.5q-255 -195 -252 -713zM1231 905q50 0 80 -70.5t30 -197.5q0 -129 -31.5 -198.5t-78.5 -69.5q-48 0 -79.5 69.5t-31.5 198.5
q0 127 30.5 197.5t80.5 70.5z" />
    <glyph glyph-name="trademark" unicode="&#x2122;" 
d="M82 1593v-268h211v-678h289v678h219v268h-719zM1149 647h233l113 565h6l4 -565h256l-59 946h-301l-125 -610h-2l-123 610h-301l-59 -946h256l4 565h6z" />
    <glyph glyph-name="uni33C2" unicode="&#x33c2;" 
d="M500 74h264v1126h-264v-102q-23 56 -65.5 88t-84.5 37q-136 5 -217 -140.5t-90 -439.5q-2 -134 12 -238t38.5 -168t59 -105.5t68.5 -57t72 -15.5q79 0 123 24t84 89v-98zM399 373q-92 0 -92 270q0 131 28.5 198.5t72.5 67.5q84 0 84 -299l-5 -55q-11 -96 -35 -139
t-53 -43zM844 74h262v751q13 44 23 60t28 16q16 0 23.5 -13.5t11.5 -63t4 -154.5v-596h270v745q15 64 25 74q8 8 20 8q13 0 19 -5.5t11 -30.5t6 -68.5t1 -126.5v-596h262v739q0 210 -42 313t-142 103h-33q-30 0 -81.5 -37t-90.5 -92q-19 65 -54 97t-77 32h-20
q-48 -8 -92 -33.5t-72 -65.5v70h-262v-1126z" />
    <glyph glyph-name="uni33D8" unicode="&#x33d8;" 
d="M821 74h262v751q12 41 24.5 58.5t31.5 17.5q16 0 23.5 -13.5t11.5 -63t4 -154.5v-596h270v745q11 48 20.5 65t28.5 17q13 0 19 -5.5t11 -30.5t6 -68.5t1 -126.5v-596h262v739q0 210 -42 313t-142 103h-33q-30 0 -83.5 -37t-92.5 -92q-19 65 -54 97t-77 32h-21
q-49 -8 -95 -33.5t-73 -65.5v70h-262v-1126zM481 57q132 0 205 141.5t72 430.5q-3 290 -80 443t-219 147q-57 -3 -84.5 -30.5t-55.5 -88.5v100h-272v-1382h272v356q57 -117 162 -117zM397 350q-34 4 -52.5 70.5t-18.5 175.5q0 162 16 232.5t61 76.5q26 3 42.5 -19.5
t26 -85.5t9.5 -171q0 -161 -20 -223t-64 -56z" />
    <glyph glyph-name="uni2121" unicode="&#x2121;" 
d="M41 1593v-336h197v-1183h294v1183h228v336h-719zM596 631q-5 -277 120 -437.5t345 -160.5q225 0 354 196l-158 189q-65 -96 -184 -96q-84 0 -135 52.5t-53 139.5h549l8 113q0 131 -22 238.5t-69.5 193.5t-130.5 134t-196 48q-207 0 -317.5 -161.5t-110.5 -448.5z
M1186 768h-291q0 72 43.5 126t105.5 54q56 0 98.5 -51.5t43.5 -128.5zM1505 1624v-1550h295v1550h-295z" />
    <glyph glyph-name="uniFF01" unicode="&#xff01;" 
d="M743 1630v-1009h359v1009h-359zM741 438v-401h359v401h-359z" />
    <glyph glyph-name="uniFF02" unicode="&#xff02;" horiz-adv-x="780" 
d="M694 1122l21 363v205h-277l11 -568h245zM317 1122l21 363v205h-277l11 -568h245z" />
    <glyph glyph-name="uniFF03" unicode="&#xff03;" 
d="M1630 1040v338h-209l17 250h-346l-17 -250h-254l17 250h-338l-17 -250h-241v-338h219l-23 -352h-225v-338h205l-21 -313h344l19 313h250l-19 -313h346l19 313h250v338h-228l23 352h229zM1055 1040l-23 -352h-252l21 352h254z" />
    <glyph glyph-name="uniFF04" unicode="&#xff04;" 
d="M1157 121q177 50 257 165t54 285q-16 105 -111 207.5t-267 186.5q-203 99 -238 163q-20 31 -1.5 65.5t69.5 37.5q68 4 162.5 -34.5t158.5 -96.5l215 254q-134 162 -350 209v127h-369v-138q-189 -52 -266 -211q-30 -66 -34 -140t18.5 -147.5t80 -143t144.5 -119.5
q90 -52 200 -105.5t152 -77.5q42 -23 46.5 -62.5t-23.5 -70t-70 -31.5q-95 -2 -196 34.5t-230 129.5l-219 -252q55 -75 152.5 -137.5t179.5 -89.5q37 -11 65 -16v-140h369v136q8 2 25.5 6t25.5 6z" />
    <glyph glyph-name="uniFF05" unicode="&#xff05;" 
d="M1272 1649l-981 -1452l274 -195l979 1473zM850 1253q0 151 -110 261t-261 110t-260.5 -110t-109.5 -261t109.5 -260.5t260.5 -109.5t261 109.5t110 260.5zM573 1253q0 -35 -29.5 -64.5t-64.5 -29.5t-64.5 29.5t-29.5 64.5t29.5 65t64.5 30t64.5 -30t29.5 -65zM1733 391
q0 151 -110 261t-261 110t-261 -110t-110 -261t110 -261t261 -110t261 110t110 261zM1456 391q0 -35 -29.5 -64.5t-64.5 -29.5t-64.5 29.5t-29.5 64.5t29.5 64.5t64.5 29.5t64.5 -29.5t29.5 -64.5z" />
    <glyph glyph-name="uniFF06" unicode="&#xff06;" 
d="M827 1032q-86 78 -108 144q-21 59 13.5 104t101.5 53q59 8 100 -23.5t41 -92.5q0 -54 -39.5 -102t-108.5 -83zM741 635l224 -219q-64 -80 -166 -68q-114 9 -144 105q-16 46 6 98.5t80 83.5zM1036 811q101 66 165 138t89.5 145t21.5 144t-36 144q-37 88 -115 150
t-172.5 87t-189.5 15q-352 -37 -426 -325q-30 -103 4.5 -218.5t138.5 -213.5q-89 -48 -148.5 -122t-82 -155t-18 -162.5t37.5 -150.5q61 -130 188 -209t300 -72q264 12 413 168l168 -160l248 246l-201 189l158 196l-264 193l-129 -168z" />
    <glyph glyph-name="uniFF07" unicode="&#xff07;" horiz-adv-x="436" 
d="M346 1122l21 375v193h-299l10 -568h268z" />
    <glyph glyph-name="uniFF08" unicode="&#xff08;" horiz-adv-x="768" 
d="M113 834q0 -259 68 -483.5t204 -391.5l307 115q-121 198 -176 381t-55 379q0 199 59.5 398.5t171.5 360.5l-307 115q-136 -167 -204 -391.5t-68 -482.5z" />
    <glyph glyph-name="uniFF09" unicode="&#xff09;" horiz-adv-x="768" 
d="M664 834q0 258 -68.5 482.5t-204.5 391.5l-307 -115q112 -161 171.5 -360.5t59.5 -398.5q0 -196 -55 -379t-176 -381l307 -115q136 167 204.5 392t68.5 483z" />
    <glyph glyph-name="uniFF0A" unicode="&#xff0a;" horiz-adv-x="1001" 
d="M500 590l133 -187l278 201l-141 158l188 57l-100 322l-184 -54l4 205h-356l4 -205l-185 54l-100 -322l190 -57l-143 -164l279 -197z" />
    <glyph glyph-name="uniFF0B" unicode="&#xff0b;" horiz-adv-x="1214" 
d="M422 1016h-336v-338h336v-373h371v373h335v338h-335v375h-371v-375z" />
    <glyph glyph-name="uniFF0C" unicode="&#xff0c;" horiz-adv-x="675" 
d="M66 426v-350h112l-10 -174h264l37 286v238h-403z" />
    <glyph glyph-name="uniFF0D" unicode="&#xff0d;" horiz-adv-x="1064" 
d="M979 1006h-893v-328h893v328z" />
    <glyph glyph-name="uniFF0E" unicode="&#xff0e;" horiz-adv-x="675" 
d="M489 35v371h-403v-371h403z" />
    <glyph glyph-name="uniFF0F" unicode="&#xff0f;" horiz-adv-x="808" 
d="M53 20l389 -61l314 1683l-387 62z" />
    <glyph glyph-name="uniFF10" unicode="&#xff10;" 
d="M922 53q555 0 555 781q0 174 -30 309.5t-80.5 222.5t-123 143.5t-151 79.5t-170.5 23t-170.5 -23t-151 -79.5t-123 -143.5t-80.5 -222.5t-30 -309.5q0 -781 555 -781zM922 360q-42 0 -78.5 24t-67.5 76.5t-49 148t-18 225.5q0 109 12 192.5t32 135.5t48.5 85t57.5 45.5
t63 12.5t63 -12.5t57.5 -45.5t48.5 -85t32 -135.5t12 -192.5q0 -130 -18 -225.5t-49 -148t-67.5 -76.5t-78.5 -24z" />
    <glyph glyph-name="uniFF11" unicode="&#xff11;" 
d="M823 1155v-1081h359v1519h-275q-27 -57 -96.5 -92t-151.5 -47v-311z" />
    <glyph glyph-name="uniFF12" unicode="&#xff12;" 
d="M397 74h723q223 0 344 26v314q-90 -19 -268 -19h-258q152 139 225.5 218t145.5 188q58 88 86.5 191t25 193.5t-34.5 155.5q-58 127 -193.5 206t-299.5 73q-220 -6 -351 -142.5t-163 -371.5l354 -62q7 102 56 162.5t118 63.5q54 3 102 -35.5t52 -101.5q12 -117 -180 -334
q-113 -125 -206.5 -215.5t-277.5 -257.5v-252z" />
    <glyph glyph-name="uniFF13" unicode="&#xff13;" 
d="M788 713q3 0 125 6q87 6 144 -45t51 -135q-6 -80 -76.5 -124.5t-157.5 -29.5q-74 12 -132.5 87t-69.5 167l-336 -66q23 -229 160.5 -367t349.5 -157q224 -17 385.5 69t216.5 253q22 65 23.5 138t-15.5 142.5t-59.5 130.5t-104.5 97q103 87 132.5 231t-25.5 264
q-61 138 -217 203.5t-351 38.5q-188 -25 -308.5 -146.5t-147.5 -322.5l334 -64q6 86 55 141t117 70q91 20 147 -23.5t51 -117.5q-9 -164 -311 -176z" />
    <glyph glyph-name="uniFF14" unicode="&#xff14;" 
d="M963 1128v-481h-226zM858 1593l-500 -983v-274h594v-262h348v262h27q95 0 156 16v307q-47 -12 -135 -12h-48v946h-442z" />
    <glyph glyph-name="uniFF15" unicode="&#xff15;" 
d="M791 1059l20 213h537v321h-867l-80 -790l287 -80q92 110 240 80q98 -22 143.5 -90t32.5 -154q-13 -94 -80 -142t-166 -40q-69 6 -123.5 55t-79.5 123l-315 -96q48 -183 181.5 -292t303.5 -118q235 -15 392 75.5t215 285.5q51 166 0.5 323.5t-172.5 247.5
q-95 70 -233.5 90t-235.5 -12z" />
    <glyph glyph-name="uniFF16" unicode="&#xff16;" 
d="M688 592q13 90 83 136t163 32q93 -12 146 -82.5t38 -149.5q-13 -82 -88 -127.5t-160 -33.5q-91 14 -142.5 76.5t-39.5 148.5zM371 434q32 -163 160 -266.5t311 -118.5q137 -12 258.5 24.5t212.5 121.5t127 208q49 168 -1 320.5t-167 228.5q-87 57 -217.5 78t-218.5 -2v16
q82 247 245 519l-358 71q-187 -303 -301 -649q-51 -157 -64 -280.5t13 -270.5z" />
    <glyph glyph-name="uniFF17" unicode="&#xff17;" 
d="M651 80l357 -35q40 389 149.5 698t308.5 598v252h-1091v-321h655v-19q-154 -244 -251.5 -552.5t-127.5 -620.5z" />
    <glyph glyph-name="uniFF18" unicode="&#xff18;" 
d="M922 47q191 0 344.5 89.5t197.5 250.5q39 150 -14.5 287.5t-175.5 208.5q104 73 139 205.5t-16 259.5q-50 128 -185 201t-290 73q-101 0 -195 -30.5t-170.5 -94t-110.5 -149.5q-51 -127 -16 -259.5t139 -205.5q-122 -71 -175.5 -208.5t-14.5 -287.5q44 -161 198 -250.5
t345 -89.5zM922 1004q-77 0 -128 43t-51 114q0 70 54 114t125 44t124.5 -44t53.5 -114q0 -71 -50.5 -114t-127.5 -43zM922 360q-84 0 -141.5 48t-57.5 122q0 85 57 136t142 51q84 0 141 -51t57 -136q0 -74 -57 -122t-141 -48z" />
    <glyph glyph-name="uniFF19" unicode="&#xff19;" 
d="M1155 1081q-11 -82 -80.5 -130.5t-169.5 -35.5q-96 13 -144.5 81.5t-35.5 150.5q13 85 86 130t158 32q104 -17 150.5 -78.5t35.5 -149.5zM1470 1237q-32 163 -159 266.5t-310 118.5q-137 12 -258.5 -24.5t-212.5 -121.5t-127 -208q-49 -168 1 -320.5t167 -228.5
q87 -57 221 -78.5t222 2.5v-16q-37 -122 -102 -266t-140 -269l365 -55q183 312 284 649q33 112 48.5 195t18 176.5t-17.5 179.5z" />
    <glyph glyph-name="uniFF1A" unicode="&#xff1a;" horiz-adv-x="552" 
d="M457 281v411h-361v-411h361zM457 977v412h-361v-412h361z" />
    <glyph glyph-name="uniFF1B" unicode="&#xff1b;" horiz-adv-x="555" 
d="M463 977v412h-371v-412h371zM92 733v-391h90l-10 -174h254l37 287v278h-371z" />
    <glyph glyph-name="uniFF1C" unicode="&#xff1c;" horiz-adv-x="993" 
d="M418 825l540 594l-247 264l-648 -690v-336l648 -690l247 264z" />
    <glyph glyph-name="uniFF1D" unicode="&#xff1d;" horiz-adv-x="1193" 
d="M84 1210v-313h1022v313h-1022zM84 756v-318h1022v318h-1022z" />
    <glyph glyph-name="uniFF1E" unicode="&#xff1e;" horiz-adv-x="993" 
d="M584 825l-541 -594l248 -264l647 690v336l-647 690l-248 -264z" />
    <glyph glyph-name="uniFF1F" unicode="&#xff1f;" 
d="M705 397v-360h358v360h-358zM1034 1161q0 -69 -42 -129t-175 -188q-121 -118 -121 -279v-49h365q7 86 41.5 144t107.5 128q125 121 168.5 248.5t-0.5 288.5q-42 155 -178 244.5t-350 75.5q-168 -11 -285 -118t-164 -296l318 -96q19 75 57.5 113t106.5 44t109.5 -33
t41.5 -98z" />
    <glyph glyph-name="uniFF20" unicode="&#xff20;" 
d="M887 651q-66 0 -101.5 45.5t-29.5 130.5q6 82 41 129.5t92 47.5q56 0 94.5 -46t38.5 -131q0 -39 -2 -47q-8 -66 -46.5 -97.5t-86.5 -31.5zM1360 360q181 28 287 168t106 346q0 366 -221.5 573.5t-609.5 207.5q-244 0 -433.5 -105t-294 -295t-104.5 -434
q0 -388 230 -602.5t620 -214.5q128 0 221.5 19.5t188.5 70.5l-109 256q-119 -65 -319 -65q-244 0 -391.5 137.5t-147.5 406.5q0 133 44 239.5t119.5 173.5t171.5 102.5t204 35.5q255 0 391.5 -126.5t136.5 -389.5q0 -130 -64 -200q-25 -25 -46 -18.5t-21 42.5v543h-283v-70
q-28 37 -79 57.5t-107 20.5q-74 0 -140.5 -24t-121.5 -72t-88.5 -129.5t-34.5 -186.5q-1 -109 27.5 -191t81.5 -131.5t123.5 -74t156.5 -24.5q120 0 199 69q7 -16 32 -37.5t63.5 -43.5t95.5 -32.5t116 -1.5z" />
    <glyph glyph-name="uniFF21" unicode="&#xff21;" 
d="M1653 74l-580 1519h-321l-564 -1519h396l110 317h443l118 -317h398zM920 1149l122 -430h-254z" />
    <glyph glyph-name="uniFF22" unicode="&#xff22;" 
d="M305 74h686q245 0 376.5 100.5t152.5 292.5q14 135 -44 254.5t-173 171.5q93 40 142.5 140.5t35.5 199.5q-14 171 -151.5 265.5t-414.5 94.5h-610v-1519zM662 1272h307q74 0 114.5 -33.5t40.5 -89.5q0 -57 -37.5 -89.5t-105.5 -37.5h-319v250zM662 713h299
q103 0 151.5 -44.5t48.5 -113.5q0 -163 -184 -160h-315v318z" />
    <glyph glyph-name="uniFF23" unicode="&#xff23;" 
d="M276 831q0 -493 355 -714q97 -57 259 -76.5t273 4.5q222 42 402 254l-222 233q-72 -99 -195.5 -133t-242.5 -6q-106 27 -189 149t-83 289q0 173 70 284t200 153q74 22 147.5 19.5t151 -42t141.5 -112.5l222 229q-191 211 -402 254q-112 27 -273 7t-259 -79
q-355 -221 -355 -713z" />
    <glyph glyph-name="uniFF24" unicode="&#xff24;" 
d="M1208 834q0 -206 -80.5 -321.5t-236.5 -115.5h-244v873h244q156 0 236.5 -116.5t80.5 -319.5zM1552 834q-1 177 -46 315.5t-135.5 238t-232.5 152t-331 53.5h-518v-1519h518q251 1 418.5 94t246.5 260.5t80 405.5z" />
    <glyph glyph-name="uniFF25" unicode="&#xff25;" 
d="M1495 1270v323h-1159v-1519h797q262 0 372 28v318q-184 -23 -325 -23h-486v281h762v317l-762 -2v277h801z" />
    <glyph glyph-name="uniFF26" unicode="&#xff26;" 
d="M352 74h367v569h362q271 0 371 25v317q-131 -16 -326 -16h-407v297h772v327h-1139v-1519z" />
    <glyph glyph-name="uniFF27" unicode="&#xff27;" 
d="M1126 424q-56 -41 -137 -50.5t-141 9.5q-111 33 -178.5 153.5t-67.5 294.5q0 175 66.5 288.5t193.5 154.5q225 75 420 -141l221 229q-103 113 -199.5 173t-199.5 81q-114 26 -261 7t-245 -79q-352 -219 -352 -713q0 -506 334 -714q99 -59 254 -78.5t268 6.5
q265 54 389 268q15 24 27.5 47.5t22.5 52.5t16.5 48t12 54.5t8.5 50t6.5 57t4 53t3.5 61t3 58.5v149h-694v-313h313q0 -63 -24.5 -121.5t-63.5 -85.5z" />
    <glyph glyph-name="uniFF28" unicode="&#xff28;" 
d="M297 1593v-1519h365v618h520v-618h364v1519h-364v-573h-520v573h-365z" />
    <glyph glyph-name="uniFF29" unicode="&#xff29;" 
d="M739 1593v-1519h365v1519h-365z" />
    <glyph glyph-name="uniFF2A" unicode="&#xff2a;" 
d="M1008 1593v-1009q0 -84 -31.5 -127.5t-79.5 -46.5q-97 -6 -207 118l-217 -258q80 -101 185 -161t188 -70q113 -11 224 16t175 95q72 78 98.5 174t26.5 260v1009h-362z" />
    <glyph glyph-name="uniFF2B" unicode="&#xff2b;" 
d="M651 381l193 260l317 -567h389l-471 874l455 645h-397l-486 -678v678h-358v-1519h358v307z" />
    <glyph glyph-name="uniFF2C" unicode="&#xff2c;" 
d="M1057 74q263 0 373 28v324q-184 -23 -326 -23h-328v1190h-364v-1519h645z" />
    <glyph glyph-name="uniFF2D" unicode="&#xff2d;" 
d="M748 74h348l274 985h10l9 -985h374l-94 1519h-420l-323 -1054h-11l-321 1054h-420l-94 -1519h375l8 985h10z" />
    <glyph glyph-name="uniFF2E" unicode="&#xff2e;" 
d="M657 1018l553 -944h336v1519h-360v-913l-535 913h-354v-1519h360v944z" />
    <glyph glyph-name="uniFF2F" unicode="&#xff2f;" 
d="M918 35q345 0 539 212.5t194 583.5t-194 584t-539 213q-342 0 -533.5 -213t-191.5 -584t191.5 -583.5t533.5 -212.5zM922 383q-162 0 -261.5 122t-99.5 326q0 195 101.5 322t259.5 127t259 -126.5t101 -322.5q0 -204 -99 -326t-261 -122z" />
    <glyph glyph-name="uniFF30" unicode="&#xff30;" 
d="M311 1593v-1519h363v463h258q139 0 254 42t189.5 114t115.5 166.5t41 199.5q0 255 -165.5 394.5t-475.5 139.5h-580zM674 862v404h278q105 0 165.5 -56.5t60.5 -142.5q0 -82 -60 -143.5t-170 -61.5h-274z" />
    <glyph glyph-name="uniFF31" unicode="&#xff31;" 
d="M1475 307q176 204 176 549q0 363 -193.5 567.5t-539.5 204.5q-343 0 -534 -204.5t-191 -567.5t191 -567.5t534 -204.5q120 0 239 29l92 -168l342 141zM918 420q-163 0 -260 112.5t-97 323.5q0 207 98.5 322.5t258.5 115.5q163 0 263.5 -115.5t100.5 -322.5
q0 -211 -99 -323.5t-265 -112.5z" />
    <glyph glyph-name="uniFF32" unicode="&#xff32;" 
d="M1278 664q119 63 185.5 173.5t66.5 243.5q0 252 -164 382t-477 130h-580v-1519h363v510h250l215 -510h397zM672 907v359h278q108 0 167 -46t59 -130q0 -80 -59 -131.5t-171 -51.5h-274z" />
    <glyph glyph-name="uniFF33" unicode="&#xff33;" 
d="M1176 66q188 53 275.5 185t59.5 300q-16 120 -108.5 217.5t-294.5 189.5q-173 86 -237 132t-64 94t33 74t80 26q74 0 174 -41.5t174 -105.5l237 264q-102 109 -244.5 169t-312.5 60q-178 0 -317 -76.5t-207 -220.5q-34 -67 -37.5 -139t23.5 -142.5t90.5 -138
t158.5 -120.5q81 -43 209.5 -98.5t184.5 -94.5q45 -29 55.5 -73.5t-15.5 -83.5t-77 -52q-169 -42 -481 176l-242 -262q64 -71 169.5 -136.5t188.5 -94.5q133 -37 276.5 -38.5t248.5 30.5z" />
    <glyph glyph-name="uniFF34" unicode="&#xff34;" 
d="M342 1593v-336h391v-1183h365v1183h401v336h-1157z" />
    <glyph glyph-name="uniFF35" unicode="&#xff35;" 
d="M918 367q-104 0 -170 63t-66 186v977h-365v-1007q0 -263 164 -410t437 -147q276 0 442 147t166 410v1007h-365v-977q0 -123 -68.5 -186t-174.5 -63z" />
    <glyph glyph-name="uniFF36" unicode="&#xff36;" 
d="M735 74h373l491 1519h-393l-284 -1001l-285 1001h-393z" />
    <glyph glyph-name="uniFF37" unicode="&#xff37;" 
d="M1120 1593h-397l-195 -1052h-6l-80 1052h-379l232 -1519h393l227 1063h15l225 -1063h414l211 1519h-379l-78 -1052h-6z" />
    <glyph glyph-name="uniFF38" unicode="&#xff38;" 
d="M223 1593l420 -759l-438 -760h442l277 471l274 -471h440l-458 760l442 759h-438l-260 -471l-258 471h-443z" />
    <glyph glyph-name="uniFF39" unicode="&#xff39;" 
d="M1110 664l518 929h-422l-284 -577l-285 577h-422l522 -929v-590h373v590z" />
    <glyph glyph-name="uniFF3A" unicode="&#xff3a;" 
d="M1139 401h-248l545 1037v155h-1016v-327h518l-557 -1063v-129h704q265 0 375 28v322q-158 -23 -321 -23z" />
    <glyph glyph-name="uniFF3B" unicode="&#xff3b;" horiz-adv-x="634" 
d="M137 1669v-1675h477v317h-139v1041h139v317h-477z" />
    <glyph glyph-name="uniFFE6" unicode="&#xffe6;" 
d="M1120 1593h-397l-76 -557h-115l-28 557h-359l70 -557h-166v-327h207l80 -635h393l100 635h185l100 -635h414l71 635h195v327h-160l64 557h-359l-28 -557h-115zM1241 709h53l-12 -250h-6zM961 1036h-78l32 203h15zM551 709h51l-33 -250h-6z" />
    <glyph glyph-name="uniFF3D" unicode="&#xff3d;" horiz-adv-x="634" 
d="M506 1669h-477v-317h139v-1041h-139v-317h477v1675z" />
    <glyph glyph-name="uniFF3E" unicode="&#xff3e;" horiz-adv-x="1071" 
d="M705 1686h-326l-359 -752h396l125 336l127 -336h383z" />
    <glyph glyph-name="uniFF3F" unicode="&#xff3f;" 
d="M111 362v-327h1622v327h-1622z" />
    <glyph glyph-name="uniFF40" unicode="&#xff40;" horiz-adv-x="602" 
d="M430 1690h-354l155 -572h299z" />
    <glyph glyph-name="uniFF41" unicode="&#xff41;" 
d="M1161 74h355v1126h-355v-102q-108 116 -278 125q-106 5 -201.5 -29.5t-171 -104t-122 -185t-50.5 -261.5q-4 -145 36 -258.5t113.5 -183.5t170 -106t210.5 -36q88 0 164.5 30t128.5 83v-98zM911 373q-97 0 -158 70.5t-61 199.5q0 130 68.5 200.5t159.5 65.5
q102 0 167.5 -79.5t65.5 -219.5q0 -39 -4 -55q-18 -91 -81 -136.5t-157 -45.5z" />
    <glyph glyph-name="uniFF42" unicode="&#xff42;" 
d="M973 57q116 0 212.5 34.5t170 103t113.5 180t38 256.5q-3 283 -149 442t-375 148q-97 -3 -176.5 -37.5t-126.5 -87.5v497h-352v-1519h352v100q50 -54 128 -85.5t165 -31.5zM905 371q-99 6 -156 73.5t-57 165.5q0 133 67 215t171 82q93 0 163 -68t70 -198
q0 -75 -22 -130.5t-59.5 -85.5t-82 -43.5t-94.5 -10.5z" />
    <glyph glyph-name="uniFF43" unicode="&#xff43;" 
d="M369 641q0 -293 169 -448.5t457 -153.5q305 0 480 227l-209 240q-65 -70 -127.5 -104.5t-145.5 -34.5q-110 0 -190 76.5t-80 197.5q0 117 80.5 193.5t185.5 78.5q80 0 138 -30.5t130 -108.5l211 242q-187 225 -473 225q-289 0 -457.5 -159.5t-168.5 -440.5z" />
    <glyph glyph-name="uniFF44" unicode="&#xff44;" 
d="M862 57q90 0 169 31t132 86v-100h353v1519h-353v-497q-49 53 -130 87.5t-177 37.5q-112 5 -207.5 -32.5t-165.5 -112t-110.5 -189t-42.5 -256.5q-1 -145 39.5 -256.5t114 -180t169 -103t209.5 -34.5zM934 371q-50 -3 -94 10t-80.5 43.5t-58 86t-21.5 130.5q0 130 68 198
t157 68q107 0 176.5 -82t69.5 -215q0 -98 -59 -165.5t-158 -73.5z" />
    <glyph glyph-name="uniFF45" unicode="&#xff45;" 
d="M375 631q-4 -273 152.5 -435.5t408.5 -162.5q315 0 491 241l-231 201q-101 -123 -246 -123q-91 0 -155 43.5t-70 118.5h739l9 113q0 278 -143 446t-394 168q-252 0 -406.5 -165t-154.5 -445zM1126 788h-381q9 65 62 102.5t131 37.5q73 0 125.5 -36t62.5 -104z" />
    <glyph glyph-name="uniFF46" unicode="&#xff46;" 
d="M571 1200v-319h172v-807h355v807h174v319h-174v31q0 54 17.5 73t74.5 19h72v315h-215q-151 0 -227.5 -90.5t-76.5 -279.5v-68h-172z" />
    <glyph glyph-name="uniFF47" unicode="&#xff47;" 
d="M920 432q-102 -2 -168 61t-60 183q6 130 74 191.5t154 56.5q99 -5 163 -72.5t64 -194.5q0 -98 -60 -161t-167 -64zM1511 268v932h-358v-80q-101 101 -268 107q-86 4 -163.5 -14.5t-145 -63t-117.5 -111t-80.5 -163.5t-34.5 -216q-3 -107 26.5 -196.5t81.5 -150t121 -103
t142.5 -61.5t148.5 -19q89 0 169 26.5t120 69.5v-49q0 -63 -44.5 -111t-139.5 -59q-113 -11 -216.5 16t-215.5 91l-148 -279q207 -120 438 -131q329 -14 492 96q115 82 153.5 188.5t38.5 280.5z" />
    <glyph glyph-name="uniFF48" unicode="&#xff48;" 
d="M393 74h359v731q68 71 170 80q83 8 125.5 -48.5t42.5 -207.5v-555h358v688q0 209 -110 339t-310 130h-27q-74 -6 -142.5 -29t-106.5 -55v446h-359v-1519z" />
    <glyph glyph-name="uniFF49" unicode="&#xff49;" 
d="M743 1200v-1126h355v1126h-355zM1098 1319v274h-355v-274h355z" />
    <glyph glyph-name="uniFF4A" unicode="&#xff4a;" 
d="M1204 1319v274h-354v-274h354zM1204 174v1026h-354v-985q0 -71 -11.5 -107.5t-47.5 -50.5q-23 -11 -62 -7.5t-76 16.5l-16 -297q212 -63 375 4q104 43 148 138t44 263z" />
    <glyph glyph-name="uniFF4B" unicode="&#xff4b;" 
d="M709 414l86 94l280 -434h416l-459 692l406 434h-422l-307 -330v723h-357v-1519h357v340z" />
    <glyph glyph-name="uniFF4C" unicode="&#xff4c;" 
d="M743 1624v-1550h357v1550h-357z" />
    <glyph glyph-name="uniFF4D" unicode="&#xff4d;" 
d="M86 74h346v731q48 39 86 57t94 19q78 3 118 -59.5t40 -213.5v-534h338v688q0 39 -2 57q37 32 71 46.5t85 15.5q51 2 83.5 -18.5t52 -83t19.5 -171.5v-534h340v719q0 209 -99.5 322.5t-293.5 113.5h-35q-61 0 -151.5 -37.5t-161.5 -91.5q-89 129 -289 129h-22
q-153 -15 -273 -99v70h-346v-1126z" />
    <glyph glyph-name="uniFF4E" unicode="&#xff4e;" 
d="M397 74h359v737q49 37 83 52t89 18q55 2 86.5 -16.5t51 -80.5t19.5 -176v-534h359v688q-2 218 -103 341.5t-301 123.5h-32q-71 -6 -141.5 -32.5t-110.5 -59.5v65h-359v-1126z" />
    <glyph glyph-name="uniFF4F" unicode="&#xff4f;" 
d="M918 371q-107 0 -180.5 70t-73.5 198q0 124 74.5 196t179.5 72q108 0 185 -72t77 -196q0 -128 -76 -198t-186 -70zM922 47q270 0 441 163.5t171 428.5q0 180 -83.5 316.5t-221.5 206t-307 69.5t-307.5 -69.5t-222 -206t-83.5 -316.5q0 -265 171.5 -428.5t441.5 -163.5z
" />
    <glyph glyph-name="uniFF50" unicode="&#xff50;" 
d="M973 57q116 0 212.5 34t170 102t113.5 179.5t38 256.5q-3 282 -148.5 439t-375.5 151q-98 -3 -177.5 -35.5t-125.5 -83.5v100h-352v-1382h352v356q50 -54 128 -85.5t165 -31.5zM913 371q-94 6 -157.5 75t-63.5 160q0 135 67 217t171 82q95 0 164 -67.5t69 -198.5
q0 -75 -21 -130t-57.5 -84.5t-79.5 -42.5t-92 -11z" />
    <glyph glyph-name="uniFF51" unicode="&#xff51;" 
d="M862 57q91 0 169.5 30.5t131.5 86.5v-356h353v1382h-353v-102q-49 53 -129.5 85.5t-177.5 35.5q-112 3 -207.5 -35t-165.5 -112t-110.5 -187.5t-42.5 -255.5q-1 -145 39.5 -256.5t114 -179.5t169 -102t209.5 -34zM926 371q-105 -5 -175.5 59.5t-70.5 208.5
q0 131 67 198.5t158 67.5q107 0 176.5 -82t69.5 -217q0 -90 -65.5 -159.5t-159.5 -75.5z" />
    <glyph glyph-name="uniFF52" unicode="&#xff52;" 
d="M1243 1210h-37q-74 -8 -129 -28.5t-112 -63.5v82h-365v-1126h365v723q105 75 245 75h33v338z" />
    <glyph glyph-name="uniFF53" unicode="&#xff53;" 
d="M1149 55q231 67 256 281q34 235 -201 356q-60 32 -169.5 71t-149.5 62q-23 13 -26 39t12 45.5t38 16.5q132 -9 287 -105l184 256q-226 175 -491 166q-321 -11 -404 -231q-49 -125 -10 -238t143 -176q83 -51 206 -97t141 -55q32 -14 40.5 -42.5t-10.5 -49t-55 -12.5
q-157 21 -377 137l-143 -278q167 -116 334 -148q247 -40 395 2z" />
    <glyph glyph-name="uniFF54" unicode="&#xff54;" 
d="M1071 547v334h229v319h-229v393h-354v-393h-185v-319h185v-400q0 -165 44 -260t148 -137q95 -33 205.5 -26t194.5 46l-60 314q-48 -17 -74.5 -20t-48.5 5q-32 12 -43.5 44t-11.5 100z" />
    <glyph glyph-name="uniFF55" unicode="&#xff55;" 
d="M1432 1200h-359v-737q-33 -36 -70 -52.5t-90 -17.5q-69 -2 -106 52.5t-37 199.5v555h-358v-708q0 -210 98 -327.5t297 -117.5h27q70 6 134 32t105 60v-65h359v1126z" />
    <glyph glyph-name="uniFF56" unicode="&#xff56;" 
d="M336 1200l426 -1126h311l432 1126h-381l-202 -639l-203 639h-383z" />
    <glyph glyph-name="uniFF57" unicode="&#xff57;" 
d="M922 659l190 -585h297l336 1126h-371l-143 -645l-160 645h-301l-158 -645l-145 645h-369l336 -1126h297z" />
    <glyph glyph-name="uniFF58" unicode="&#xff58;" 
d="M319 1200l369 -563l-381 -563h400l211 299l210 -299h406l-387 563l358 563h-399l-188 -315l-189 315h-410z" />
    <glyph glyph-name="uniFF59" unicode="&#xff59;" 
d="M754 334l-217 -467l356 -100l637 1433h-397l-193 -463l-221 463h-406z" />
    <glyph glyph-name="uniFF5A" unicode="&#xff5a;" 
d="M993 74q10 0 72.5 -0.5t88.5 0t74 2t81 5.5t59 11v314q-104 -13 -321 -13h-101l412 690v117h-869v-319h379l-395 -662v-145h520z" />
    <glyph glyph-name="uniFF5B" unicode="&#xff5b;" horiz-adv-x="774" 
d="M395 831q11 2 23 9t19.5 14t20 19t17.5 16q34 38 49.5 68t24 92.5t8.5 175.5q0 78 21.5 109t78.5 32l99 2v285l-60 2q-160 0 -245 -19q-75 -18 -125.5 -76t-53.5 -135q-1 -35 -3 -92t-3.5 -97t-3.5 -62q-6 -85 -60 -122.5t-163 -39.5v-361q109 -2 163 -39.5t60 -122.5
q2 -22 3.5 -62t3.5 -97t3 -92q3 -77 53.5 -135t125.5 -76q85 -19 245 -19l60 2v285l-99 2q-57 1 -78.5 32t-21.5 109q0 113 -8.5 175.5t-24 92.5t-49.5 68q-5 4 -17.5 16t-20 18.5t-19.5 13.5t-23 9z" />
    <glyph glyph-name="uniFF5C" unicode="&#xff5c;" horiz-adv-x="1193" 
d="M418 1692v-1717h358v1717h-358z" />
    <glyph glyph-name="uniFF5D" unicode="&#xff5d;" horiz-adv-x="774" 
d="M395 831q-11 -2 -23 -9t-19.5 -13.5t-20 -18.5t-17.5 -16q-34 -38 -49.5 -68t-24 -92.5t-8.5 -175.5q0 -78 -21.5 -109t-78.5 -32l-98 -2v-285l59 -2q161 0 246 19q75 18 125 76t53 135q1 35 3 92t3.5 97t3.5 62q6 85 60.5 122.5t163.5 39.5v361q-109 2 -163.5 39.5
t-60.5 122.5q-2 22 -3.5 62t-3.5 97t-3 92q-3 77 -53 135t-125 76q-85 19 -246 19l-59 -2v-285l98 -2q57 -1 78.5 -32t21.5 -109q0 -113 8.5 -175.5t24 -92.5t49.5 -68q5 -4 17.5 -16t20 -19t19.5 -14t23 -9z" />
    <glyph glyph-name="uniFFE3" unicode="&#xffe3;" 
d="M111 1710v-328h1622v328h-1622z" />
    <glyph glyph-name="uni3131" unicode="&#x3131;" 
d="M1184 274h366q25 318 25 1176h-1309v-313h938q0 -606 -20 -863z" />
    <glyph glyph-name="uni3132" unicode="&#x3132;" 
d="M492 274h362q25 366 25 1176h-641v-313h274q0 -574 -20 -863zM1214 274h365q25 366 25 1176h-654v-313h287q0 -568 -23 -863z" />
    <glyph glyph-name="uni3133" unicode="&#x3133;" 
d="M485 272h357q2 29 2 47l184 -118q158 211 221 356q46 -82 156 -336l270 164q-97 254 -305 561q40 239 37 510h-356q7 -323 -39.5 -526.5t-155.5 -376.5q8 279 8 893h-694v-311h338q0 -568 -23 -863z" />
    <glyph glyph-name="uni3134" unicode="&#x3134;" 
d="M637 1450h-389v-1176h1012q264 0 335 37v305q-20 -5 -42 -9.5t-37.5 -7t-42.5 -5t-37.5 -3.5t-43 -2t-38.5 -1.5t-43.5 -1t-40.5 -0.5h-633v864z" />
    <glyph glyph-name="uni3135" unicode="&#x3135;" 
d="M516 1446h-373v-1210h441q34 0 141 -1.5t165.5 0t90.5 7.5q175 112 268 237q118 -132 207 -272l246 219q-109 169 -264 328q118 236 118 600v92h-702v-311h360q-20 -166 -134 -333t-265 -263q-68 -2 -203 -2h-96v909z" />
    <glyph glyph-name="uni3136" unicode="&#x3136;" 
d="M545 1450h-371v-1214h447q110 0 166.5 4.5t113.5 19.5v76q6 -18 46.5 -43.5t121 -48.5t170.5 -23q201 0 309.5 112t108.5 296q0 87 -24 158.5t-72.5 128t-130.5 87.5t-191 31q-108 0 -189 -31t-129 -87.5t-71 -128t-23 -158.5q0 -40 4 -76q-29 -3 -57.5 -3.5t-58.5 0
t-84 -0.5h-86v901zM1669 1077v285h-256v141h-346v-141h-252v-285h854zM1239 485q-48 0 -79.5 36.5t-31.5 107.5q0 72 31.5 108.5t79.5 36.5q49 0 79 -36t30 -109q0 -72 -30 -108t-79 -36z" />
    <glyph glyph-name="uni3137" unicode="&#x3137;" 
d="M1239 575h-625v572h947v303h-1317v-1176h1005q243 0 350 37v289q-147 -25 -360 -25z" />
    <glyph glyph-name="uni3138" unicode="&#x3138;" 
d="M1597 1147v303h-663v-1176h471q165 0 229 21v297q-85 -17 -213 -17h-118v572h294zM848 274v301h-275v572h281v303h-643v-1176h637z" />
    <glyph glyph-name="uni3139" unicode="&#x3139;" 
d="M209 1012v-756h1423v301h-1061v154h1035v755h-1389v-301h1026v-153h-1034z" />
    <glyph glyph-name="uni313A" unicode="&#x313a;" 
d="M1270 256h362q21 455 21 1210h-660v-311h291q0 -483 -14 -899zM190 1012v-756h742v301h-393v154h366v755h-706v-301h358v-153h-367z" />
    <glyph glyph-name="uni313B" unicode="&#x313b;" 
d="M1667 256v1210h-725v-1210h725zM1360 557h-111v608h111v-608zM176 1012v-756h694v301h-344v154h318v755h-658v-301h310v-153h-320z" />
    <glyph glyph-name="uni313C" unicode="&#x313c;" 
d="M1370 1466v-327h-119v327h-307v-1210h733v1210h-307zM1251 840h119v-283h-119v283zM168 1012v-756h702v301h-354v154h328v755h-668v-301h320v-153h-328z" />
    <glyph glyph-name="uni313D" unicode="&#x313d;" 
d="M158 1008v-756h725v43l166 -111q145 183 213 355q61 -103 159 -342l265 182q-103 258 -304 559q42 232 39 535h-354q7 -318 -37 -530.5t-147 -373.5v-14h-381v156h342v753h-678v-303h334v-153h-342z" />
    <glyph glyph-name="uni313E" unicode="&#x313e;" 
d="M1452 557h-166v154h350v301h-350v153h367v301h-727v-1210h456q213 0 299 20v287q-75 -6 -229 -6zM162 1012v-756h704v301h-356v154h330v755h-670v-301h322v-153h-330z" />
    <glyph glyph-name="uni313F" unicode="&#x313f;" 
d="M1315 557h-68v608h68v-608zM967 1165v-608h-68v-301h778v301h-82v608h82v301h-778v-301h68zM168 1012v-756h659v301h-315v154h285v755h-621v-301h279v-153h-287z" />
    <glyph glyph-name="uni3140" unicode="&#x3140;" 
d="M1679 1069v283h-223v151h-344v-151h-221v-283h788zM1282 221q200 0 293.5 109.5t93.5 298.5q0 88 -20 158.5t-63 127.5t-120.5 88t-183.5 31q-104 0 -179.5 -31t-118.5 -87.5t-63 -127.5t-20 -159q0 -92 21 -164.5t65.5 -128t119 -85.5t175.5 -30zM1282 485
q-86 0 -86 144q0 77 21.5 111t64.5 34q44 0 66 -34t22 -111q0 -144 -88 -144zM164 1012v-756h690v301h-346v154h317v755h-653v-301h309v-153h-317z" />
    <glyph glyph-name="uni3141" unicode="&#x3141;" 
d="M1595 274v1176h-1349v-1176h1349zM1233 575h-623v572h623v-572z" />
    <glyph glyph-name="uni3142" unicode="&#x3142;" 
d="M1233 1458v-319h-623v319h-364v-1194h1349v1194h-362zM610 840h623v-273h-623v273z" />
    <glyph glyph-name="uni3143" unicode="&#x3143;" 
d="M569 1458v-338h-86v338h-309v-1194h700v1194h-305zM483 850h86v-311h-86v311zM1360 850v-311h-88v311h88zM1272 1120v338h-305v-1194h700v1194h-307v-338h-88z" />
    <glyph glyph-name="uni3144" unicode="&#x3144;" 
d="M586 1464v-348h-119v348h-317v-1212h753v20l125 -79q155 204 227 358q67 -112 168 -363l273 168q-101 253 -316 576q45 218 45 532h-356q7 -290 -35 -487.5t-131 -351.5v839h-317zM467 842h119v-316h-119v316z" />
    <glyph glyph-name="uni3145" unicode="&#x3145;" 
d="M162 477l219 -270q377 241 541 489q127 -82 261 -212.5t238 -278.5l258 264q-106 146 -272.5 288.5t-337.5 243.5q69 210 72 465h-383q-8 -215 -76 -385.5t-191 -309.5t-329 -294z" />
    <glyph glyph-name="uni3146" unicode="&#x3146;" 
d="M133 414l277 -195q185 221 266 430q50 -50 115 -135q-65 -93 -121 -164l295 -184q193 221 276 426q100 -128 223 -371l246 195q-67 137 -161.5 271t-198.5 241q49 216 49 528h-357q17 -375 -94 -639q-68 90 -176 184q31 177 31 455h-359q2 -345 -61 -563.5t-250 -478.5z
" />
    <glyph glyph-name="uni3147" unicode="&#x3147;" 
d="M922 528q-140 0 -234 93.5t-94 240.5q0 148 90 241t238 93t237.5 -93t89.5 -241q0 -147 -93.5 -240.5t-233.5 -93.5zM922 217q167 0 301 51.5t219 140t129.5 203t44.5 244.5q0 94 -26.5 185.5t-83 176t-136.5 148.5t-195.5 102.5t-252.5 38.5t-253 -38.5t-196 -102.5
t-136.5 -148.5t-83 -176t-26.5 -185.5q0 -130 45 -244.5t129.5 -203t219 -140t301.5 -51.5z" />
    <glyph glyph-name="uni3148" unicode="&#x3148;" 
d="M1548 1444h-1280v-311h832q-98 -147 -346.5 -326t-589.5 -320l168 -303q206 77 386 172.5t300 186.5q103 -71 198.5 -154t223.5 -211l239 252q-183 203 -407 361q252 270 276 559v94z" />
    <glyph glyph-name="uni3149" unicode="&#x3149;" 
d="M125 442l254 -221q217 182 323 373q39 -39 107 -121q-44 -38 -92 -86l233 -223q207 148 314 315q114 -150 184 -282l270 206q-134 229 -286 377q122 281 129 547v117h-603v-311h222q-7 -99 -50.5 -208t-111.5 -202q-82 99 -182 186q59 204 59 447v88h-643v-311h289
q-23 -191 -124.5 -358.5t-291.5 -332.5z" />
    <glyph glyph-name="uni314A" unicode="&#x314a;" 
d="M723 1292h-453v-301h852q-70 -108 -337.5 -266.5t-628.5 -286.5l155 -297q328 99 684 305q240 -111 480 -323l213 272q-225 191 -428 281q265 242 290 518v98h-450v209h-377v-209z" />
    <glyph glyph-name="uni314B" unicode="&#x314b;" 
d="M1227 254h364q23 377 23 1194h-1387v-315h1020q0 -150 -2 -248h-991v-312h985q-2 -88 -12 -319z" />
    <glyph glyph-name="uni314C" unicode="&#x314c;" 
d="M1268 557h-699v154h1014v301h-1014v153h1033v301h-1389v-1210h1063q244 0 354 37v289q-154 -25 -362 -25z" />
    <glyph glyph-name="uni314D" unicode="&#x314d;" 
d="M1057 567h-275v588h275v-588zM428 1155v-588h-211v-303h1407v303h-213v588h213v303h-1407v-303h211z" />
    <glyph glyph-name="uni314E" unicode="&#x314e;" 
d="M1624 1018v295h-514v188h-379v-188h-514v-295h1407zM915 406q-158 0 -237.5 35t-79.5 98q0 67 82 102t235 35q149 0 231.5 -35t82.5 -102q0 -63 -80 -98t-234 -35zM915 131q169 0 300.5 32t213 88t123 129t41.5 159q0 87 -41.5 160t-122.5 128.5t-212.5 87t-301.5 31.5
q-172 0 -304 -31.5t-213 -87.5t-121.5 -128.5t-40.5 -159.5q0 -86 41 -159t122 -129t213 -88t303 -32z" />
    <glyph glyph-name="uni314F" unicode="&#x314f;" 
d="M1237 1112q-149 0 -252 -37v584h-379v-1649h379v715q116 33 252 33v354z" />
    <glyph glyph-name="uni3150" unicode="&#x3150;" 
d="M1001 723v-721h334v1657h-334v-606h-155v606h-336v-1657h336v703q72 3 155 18z" />
    <glyph glyph-name="uni3151" unicode="&#x3151;" 
d="M1237 1399q-156 0 -252 -15v275h-379v-1649h379v426q110 15 252 15v354q-162 0 -252 -14v239q103 14 252 14v355z" />
    <glyph glyph-name="uni3152" unicode="&#x3152;" 
d="M1001 1034v-329h-155v321q113 4 155 8zM846 1380v279h-336v-1657h336v348q110 4 155 6v-354h334v1657h-334v-279h-155z" />
    <glyph glyph-name="uni3153" unicode="&#x3153;" 
d="M948 756v-748h359v1651h-359v-596h-409v-328h86q207 4 323 21z" />
    <glyph glyph-name="uni3154" unicode="&#x3154;" 
d="M674 8h336v1651h-336v-623h-314v-338q170 0 314 15v-705zM1151 8h334v1651h-334v-1651z" />
    <glyph glyph-name="uni3155" unicode="&#x3155;" 
d="M942 8h358v1651h-358v-299q-68 -4 -237 -4h-162v-328h116q176 0 283 16v-237q-68 -6 -237 -6h-162v-328h116q156 0 283 19v-484z" />
    <glyph glyph-name="uni3156" unicode="&#x3156;" 
d="M1130 8h334v1651h-334v-1651zM653 8h336v1651h-336v-295h-272v-328q6 0 43.5 -1t71 -1.5t79.5 1.5t78 7v-262h-272v-327q186 0 272 10v-455z" />
    <glyph glyph-name="uni3157" unicode="&#x3157;" 
d="M74 317h1693v328h-661v445h-371v-445h-661v-328z" />
    <glyph glyph-name="uni3158" unicode="&#x3158;" 
d="M6 498v-297h832q274 0 370 57v-248h379v695q104 32 252 32v338q-146 0 -252 -37v621h-379v-1124q-70 -37 -334 -37h-131v368h-378v-368h-359z" />
    <glyph glyph-name="uni3159" unicode="&#x3159;" 
d="M1477 723v-721h323v1657h-323v-606h-115v606h-326v-1133q-85 -28 -317 -28h-39v387h-338v-387h-299v-297h639q250 0 354 49v-248h326v703q63 6 115 18z" />
    <glyph glyph-name="uni315A" unicode="&#x315a;" 
d="M131 498v-297h832q274 0 370 57v-248h379v1649h-379v-1124q-70 -37 -334 -37h-131v368h-379v-368h-358z" />
    <glyph glyph-name="uni315B" unicode="&#x315b;" 
d="M74 317h1693v328h-305v445h-358v-445h-369v445h-358v-445h-303v-328z" />
    <glyph glyph-name="uni315C" unicode="&#x315c;" 
d="M713 152h395v428h659v327h-1693v-327h639v-428z" />
    <glyph glyph-name="uni315D" unicode="&#x315d;" 
d="M1026 166h98q187 0 248 31v-189h359v1651h-359v-703q-85 -32 -399 -32h-860v-318h344v-598h383v598h147q293 0 385 37v-151q-100 -25 -244 -25h-102v-301z" />
    <glyph glyph-name="uni315E" unicode="&#x315e;" 
d="M33 924v-318h231v-598h373v598h51q270 0 365 39v-147q-54 -13 -113 -13l-160 -4v-311q210 0 273 16v-178h325v1651h-325v-703q-40 -21 -133 -26.5t-267 -5.5h-620zM1489 8h323v1651h-323v-1651z" />
    <glyph glyph-name="uni315F" unicode="&#x315f;" 
d="M113 883v-338h385v-537h383v537h106q293 0 385 37v-574h359v1651h-359v-744q-85 -32 -399 -32h-860z" />
    <glyph glyph-name="uni3160" unicode="&#x3160;" 
d="M324 152h395v428h383v-428h395v428h270v327h-1693v-327h250v-428z" />
    <glyph glyph-name="uni3161" unicode="&#x3161;" 
d="M74 459h1693v327h-1693v-327z" />
    <glyph glyph-name="uni3162" unicode="&#x3162;" 
d="M131 518v-297h832q272 0 370 58v-269h379v1649h-379v-1104q-70 -37 -334 -37h-868z" />
    <glyph glyph-name="uni3163" unicode="&#x3163;" 
d="M733 10h379v1649h-379v-1649z" />
    <glyph glyph-name="uni3165" unicode="&#x3165;" 
d="M563 1450h-362v-1176h372q214 0 301 23v297q-167 -8 -241 -8h-70v864zM1319 1450h-363v-1176h424q172 0 262 23v297q-177 -8 -243 -8h-80v864z" />
    <glyph glyph-name="uni3166" unicode="&#x3166;" 
d="M563 1450h-362v-1176h403q113 0 169.5 4.5t111.5 18.5v297q-167 -8 -242 -8h-80v864zM1606 1147v303h-650v-1176h455q167 0 231 21v297q-85 -17 -212 -17h-111v572h287z" />
    <glyph glyph-name="uni3167" unicode="&#x3167;" 
d="M524 1446h-364v-1174h446q173 0 242 15v-2l125 -84q74 95 111 144t80 114.5t63 113.5q5 -9 28.5 -49t37 -64t35.5 -65.5t42 -85.5t39 -92l274 168q-102 255 -331 582q37 212 37 489h-357q6 -281 -46 -475t-165 -391q-78 -6 -196 -6h-101v862z" />
    <glyph glyph-name="uni3168" unicode="&#x3168;" 
d="M1145 541l84 323l82 -323h-166zM176 272h1514l-412 1198h-104l-300 -884q-80 -2 -233 -2h-100v862h-365v-1174z" />
    <glyph glyph-name="uni3169" unicode="&#x3169;" 
d="M813 252h301v31l150 -64q100 201 129 297q36 -105 86 -317l262 118q-74 317 -230 687q31 222 31 458h-317q-3 -563 -101 -809q6 258 6 811h-444v-293h143q0 -535 -16 -919zM104 997v-745h596v285h-297v182h252v745h-540v-282h241v-185h-252z" />
    <glyph glyph-name="uni316A" unicode="&#x316a;" 
d="M1448 557h-133v608h332v301h-686v-1210h415q213 0 299 20v287q-75 -6 -227 -6zM168 1012v-756h723v301h-379v154h352v755h-688v-301h342v-153h-350z" />
    <glyph glyph-name="uni316B" unicode="&#x316b;" 
d="M1194 629v837h-252v-350h-55v350h-252v-1214h559v18l127 -63q90 197 117 295q5 -18 75 -295l230 121q-73 319 -209 651q27 221 27 485h-287q6 -593 -80 -835zM887 836h55v-299h-55v299zM102 999v-747h478v285h-189v182h178v747h-456v-284h166v-183h-177z" />
    <glyph glyph-name="uni316C" unicode="&#x316c;" 
d="M1176 522l47 201l47 -201h-94zM184 1012v-756h1477l-387 1210h-107l-282 -909h-355v154h353v755h-688v-301h342v-153h-353z" />
    <glyph glyph-name="uni316D" unicode="&#x316d;" 
d="M1679 1145v285h-788v-285h788zM1282 217q102 0 178 33t121 92.5t66.5 135t21.5 167.5q0 69 -12 131t-40.5 120t-71.5 99.5t-110.5 66.5t-152.5 25q-83 0 -149 -25t-108.5 -66.5t-71 -99.5t-40.5 -120t-12 -131q0 -92 21 -167.5t65.5 -135t119.5 -92.5t175 -33zM1282 483
q-40 0 -63 46.5t-23 123.5q0 82 22.5 128t63.5 46q42 0 65 -46t23 -128q0 -77 -23 -123.5t-65 -46.5zM164 1008v-754h670v301h-326v156h297v755h-633v-303h289v-155h-297z" />
    <glyph glyph-name="uni316E" unicode="&#x316e;" 
d="M1364 1458v-319h-80v319h-309v-1194h698v1194h-309zM1284 840h80v-273h-80v273zM481 1155h80v-588h-80v588zM870 1458h-698v-1194h698v1194z" />
    <glyph glyph-name="uni316F" unicode="&#x316f;" 
d="M874 598v858h-716v-1194h716v43l168 -104q144 190 201 329q104 -177 154 -319l291 164q-62 158 -135.5 287.5t-180.5 285.5q40 228 37 508h-354q12 -510 -181 -858zM465 1153h100v-590h-100v590z" />
    <glyph glyph-name="uni3170" unicode="&#x3170;" 
d="M1186 532l47 252l45 -252h-92zM483 1155h101v-588h-101v588zM174 266h1497l-387 1200h-106l-287 -866v858h-717v-1192z" />
    <glyph glyph-name="uni3171" unicode="&#x3171;" 
d="M1597 856v643h-1349v-643h1349zM1233 1133h-623v92h623v-92zM922 401q-109 0 -174.5 3t-104 11t-52 20t-13.5 32q0 22 25.5 35.5t103 21.5t215.5 8t215.5 -8t103 -21.5t25.5 -35.5q0 -20 -13.5 -32t-52 -20t-104 -11t-174.5 -3zM922 133q250 0 407 41t224 113t67 180
q0 80 -38 140t-120 104t-217.5 67t-322.5 23t-323 -23t-217.5 -67t-120 -104t-38.5 -140q0 -108 67 -180t224.5 -113t407.5 -41z" />
    <glyph glyph-name="uni3172" unicode="&#x3172;" 
d="M612 1458v-338h-108v338h-318v-1194h746v1194h-320zM504 850h108v-311h-108v311zM1272 264h360q25 369 25 1194h-658v-311h295q0 -601 -22 -883z" />
    <glyph glyph-name="uni3173" unicode="&#x3173;" 
d="M598 1458v-338h-100v338h-316v-1194h736v1194h-320zM498 850h100v-311h-100v311zM1626 1155v303h-625v-1194h433q154 0 229 21v297q-87 -15 -213 -15h-92v588h268z" />
    <glyph glyph-name="uni3174" unicode="&#x3174;" 
d="M477 1464v-348h-61v348h-299v-1212h633l133 -62q114 209 153 326q30 -82 97 -323l266 98q-65 221 -121.5 378.5t-132.5 299.5q29 185 29 495h-308q6 -252 -20.5 -447.5t-69.5 -309.5v757h-299zM416 842h61v-316h-61v316zM1403 252h305q16 407 16 1212h-485v-293h180
q0 -535 -16 -919z" />
    <glyph glyph-name="uni3175" unicode="&#x3175;" 
d="M471 1466v-348h-63v348h-289v-1212h612l117 -41q91 164 151 332q44 -102 99 -334l162 43h249q154 0 217 20v287q-79 -14 -192 -14h-2v624h186v295h-485v-774q-6 20 -43.5 108t-81.5 179q31 225 31 487h-301q7 -258 -15 -454.5t-63 -309.5v764h-289zM408 842h63v-314h-63
v314z" />
    <glyph glyph-name="uni3176" unicode="&#x3176;" 
d="M582 1456v-340h-117v340h-320v-1194h754v98l143 -147q158 121 252 274q44 -59 168 -276l238 188q-103 205 -242 383q109 250 109 580v94h-594v-303h264q-19 -170 -115.5 -344.5t-222.5 -296.5v944h-317zM465 842h117v-305h-117v305z" />
    <glyph glyph-name="uni3177" unicode="&#x3177;" 
d="M586 1458v-338h-101v338h-315v-1194h735v1194h-319zM485 850h101v-311h-101v311zM1634 1165v293h-624v-1194h432q154 0 229 21v288q-80 -16 -213 -16h-102v160h270v291h-270v157h278z" />
    <glyph glyph-name="uni3178" unicode="&#x3178;" 
d="M922 385q-112 0 -175 2.5t-103 10t-53 19t-13 32.5q0 22 25.5 35.5t103 21.5t215.5 8t215.5 -8t103 -21.5t25.5 -35.5q0 -21 -13 -32.5t-53 -19t-103 -10t-175 -2.5zM922 133q253 0 408 35.5t222.5 104t67.5 176.5q0 164 -165 249.5t-533 85.5t-533.5 -85.5
t-165.5 -249.5q0 -108 68 -176.5t223 -104t408 -35.5zM1243 1509v-90h-639v90h-356v-680h1349v680h-354zM604 1165h639v-69h-639v69z" />
    <glyph glyph-name="uni3179" unicode="&#x3179;" 
d="M922 385q-113 0 -177.5 2.5t-106.5 10t-56.5 19t-14.5 32.5q0 22 28 35.5t108 21.5t219 8q137 0 216 -8t106.5 -21.5t27.5 -35.5q0 -21 -14 -32.5t-55.5 -19t-105.5 -10t-175 -2.5zM922 133q372 0 539 77.5t167 238.5q0 335 -706 335q-711 0 -711 -335q0 -161 168 -238.5
t543 -77.5zM578 1509v-98h-99v98h-299v-680h694v680h-296zM479 1174h99v-97h-99v97zM1364 1174v-97h-100v97h100zM1264 1411v98h-297v-680h696v680h-299v-98h-100z" />
    <glyph glyph-name="uni317A" unicode="&#x317a;" 
d="M1272 272h352q23 374 23 1174h-693v-311h340q0 -583 -22 -863zM195 385l303 -186q140 204 207 366q62 -112 161 -346l277 164q-99 249 -320 586q39 206 45 485h-366q-3 -252 -35.5 -433t-95 -322t-176.5 -314z" />
    <glyph glyph-name="uni317B" unicode="&#x317b;" 
d="M1370 1456h-362v-979q-21 73 -53 151t-49.5 115t-72.5 139t-67 126q29 193 35 446h-365q-1 -352 -63 -582.5t-228 -509.5l314 -159q121 175 182 332q58 -114 107 -336l260 110v-37h426q108 0 157 4t105 17v297q-121 -6 -240 -6h-86v872z" />
    <glyph glyph-name="uni317C" unicode="&#x317c;" 
d="M166 362l313 -159q120 169 183 332q55 -116 104 -336l246 106v-33h432q166 0 231 19v297q-87 -15 -213 -15h-88v580h264v303h-626v-895q-9 39 -36.5 95t-91 171t-98.5 181q29 193 35 446h-364q-1 -352 -63 -582.5t-228 -509.5z" />
    <glyph glyph-name="uni317D" unicode="&#x317d;" 
d="M154 362l303 -163q125 184 174 319q49 -108 104 -319l230 102v-39h725v1194h-316v-340h-92v340h-317v-911q-39 142 -209 446q29 199 35 463h-357q-2 -357 -60 -587t-220 -505zM1374 842v-305h-92v305h92z" />
    <glyph glyph-name="uni317E" unicode="&#x317e;" 
d="M133 362l305 -163q115 165 174 321q46 -96 107 -321l248 110l116 -96q162 146 242 295q48 -102 109 -293l276 150q-102 272 -233 487q71 239 71 510v94h-604v-303h277q-18 -156 -93 -318.5t-186 -293.5q-55 185 -205 450q29 199 35 463h-356q-2 -357 -61 -587t-222 -505z
" />
    <glyph glyph-name="uni317F" unicode="&#x317f;" 
d="M233 279h1379l-688 1306zM690 528l234 441l231 -441h-465z" />
    <glyph glyph-name="uni3180" unicode="&#x3180;" 
d="M508 510q-90 0 -90 352t90 352q44 0 62 -82.5t18 -269.5q0 -190 -19.5 -271t-60.5 -81zM508 217q193 0 289 149.5t96 489.5q0 350 -92 500.5t-293 150.5t-293 -150.5t-92 -500.5q0 -340 96 -489.5t289 -149.5zM1335 510q-41 0 -60.5 81t-19.5 271q0 187 18 269.5t62 82.5
t62 -82.5t18 -269.5q0 -190 -19.5 -271t-60.5 -81zM1315 217q96 0 168.5 34.5t126.5 109t82 199t28 296.5q0 350 -92 500.5t-293 150.5t-293 -150.5t-92 -500.5q0 -343 88 -491t277 -148z" />
    <glyph glyph-name="uni3181" unicode="&#x3181;" 
d="M922 199q168 0 300 41.5t218 117.5t131 181t45 233q0 209 -132 367.5t-374 201.5v201h-379v-201q-242 -43 -373 -201t-131 -368q0 -262 180.5 -417.5t514.5 -155.5zM922 510q-145 0 -236 69t-92 203q1 126 89 196.5t239 70.5t238.5 -70.5t88.5 -196.5q-1 -134 -91.5 -203
t-235.5 -69z" />
    <glyph glyph-name="uni3182" unicode="&#x3182;" 
d="M520 221q104 0 181 35t114 100l258 -170q147 200 209 357q76 -130 158 -342l268 182q-110 269 -307 559q44 227 41 535h-355q7 -337 -40 -556t-148 -360q-4 -12 -4 3q0 9 2 43q6 101 6 169q0 244 -53 375.5t-166 171.5v219h-328v-221q-111 -42 -165 -173t-54 -372
q0 -292 93.5 -423.5t289.5 -131.5zM520 485q-24 0 -39.5 22.5t-25 90.5t-9.5 188q0 297 74 297q76 0 76 -297q0 -90 -5.5 -151t-16 -93t-23.5 -44.5t-31 -12.5z" />
    <glyph glyph-name="uni3183" unicode="&#x3183;" 
d="M537 221q196 0 289.5 131.5t93.5 423.5q0 245 -54 377t-168 172v219h-325v-221q-112 -42 -165.5 -173.5t-53.5 -373.5q0 -292 93.5 -423.5t289.5 -131.5zM537 487q-18 0 -30.5 12t-23 44t-15.5 92t-5 151q0 299 74 299q73 0 73 -299q0 -120 -9.5 -187.5t-24.5 -89.5
t-39 -22zM1223 524l47 238l45 -238h-92zM1319 1470h-105l-362 -1214h838z" />
    <glyph glyph-name="uni3184" unicode="&#x3184;" 
d="M1075 1104h-311v131h311v-131zM410 1235v-131h-193v-275h1407v275h-194v131h194v274h-1407v-274h193zM922 385q-112 0 -176 2.5t-104.5 10t-53.5 19t-13 32.5q0 22 26 35.5t104 21.5t217 8q137 0 214 -8t102.5 -21.5t25.5 -35.5q0 -21 -13 -32.5t-53 -19t-102.5 -10
t-173.5 -2.5zM922 133q252 0 406.5 35.5t222 104t67.5 176.5q0 164 -165 249.5t-531 85.5q-369 0 -535 -85.5t-166 -249.5q0 -108 68 -176.5t223.5 -104t409.5 -35.5z" />
    <glyph glyph-name="uni3185" unicode="&#x3185;" 
d="M1702 1143v282h-735v-282h735zM1323 217q367 0 367 424q0 71 -9.5 132t-35 120t-65.5 101t-106 67.5t-151 25.5q-83 0 -147.5 -25.5t-104.5 -67.5t-66 -101t-36.5 -120.5t-10.5 -131.5q0 -93 18.5 -166.5t59.5 -133t114 -92t173 -32.5zM1323 481q-68 0 -68 170
q0 168 68 168q38 0 54 -42t16 -126q0 -170 -70 -170zM877 1143v282h-736v-282h736zM520 217q100 0 173 32.5t114 92t59.5 133t18.5 166.5q0 71 -9.5 132t-35 120t-66 101t-105.5 67.5t-149 25.5q-83 0 -148 -25.5t-105 -67.5t-66.5 -101t-36.5 -120.5t-10 -131.5
q0 -424 366 -424zM520 481q-69 0 -69 170q0 84 15.5 126t53.5 42q68 0 68 -168q0 -170 -68 -170z" />
    <glyph glyph-name="uni3186" unicode="&#x3186;" 
d="M1624 1133v292h-1407v-292h1407zM915 498q-176 0 -247.5 41.5t-71.5 119.5q0 80 72.5 125t246.5 45q314 0 314 -170q0 -78 -71 -119.5t-243 -41.5zM915 217q145 0 260 22.5t192.5 62.5t129 96.5t74 121t22.5 139.5q0 92 -37.5 165.5t-116 130t-211.5 87.5t-313 31
q-182 0 -316 -30.5t-212.5 -87.5t-116 -130.5t-37.5 -165.5q0 -95 37 -172.5t115.5 -139.5t213 -96t316.5 -34z" />
    <glyph glyph-name="uni3187" unicode="&#x3187;" 
d="M6 498v-297h832q274 0 370 57v-248h379v406q87 8 252 8v338q-149 0 -252 -14v262q94 8 252 8v338q-166 0 -252 -15v318h-379v-1124q-55 -28 -223 -35v469h-348v-471h-150v471h-348v-471h-133z" />
    <glyph glyph-name="uni3188" unicode="&#x3188;" 
d="M1477 1024v-352h-115v344q96 5 115 8zM1362 1350v309h-326v-1133q-51 -17 -162 -24v465h-296v-469h-113v469h-297v-469h-125v-297h639q250 0 354 49v-248h326v336q96 5 115 8v-344h323v1657h-323v-309h-115z" />
    <glyph glyph-name="uni3189" unicode="&#x3189;" 
d="M131 498v-297h832q274 0 370 57v-248h379v1649h-379v-1124q-55 -28 -223 -35v469h-348v-471h-150v471h-348v-471h-133z" />
    <glyph glyph-name="uni318A" unicode="&#x318a;" 
d="M1108 53h57q122 0 207 17v-62h359v1651h-359v-574q-129 -18 -399 -18h-860v-317h118v-742h342v742h95v-742h342v742q245 4 362 26v-80q-113 -10 -203 -10h-61v-280h57q125 0 207 14v-78q-91 -8 -203 -8h-61v-281z" />
    <glyph glyph-name="uni318B" unicode="&#x318b;" 
d="M33 1087v-317h78v-762h290v762h93v-762h290v762q191 4 269 12v-71q-55 -4 -133 -4h-58v-283q113 0 191 4v-66q-66 -4 -133 -4h-58v-282q145 0 191 6v-74h325v1645h-325v-557q-105 -9 -441 -9h-579zM1489 8h323v1651h-323v-1651z" />
    <glyph glyph-name="uni318C" unicode="&#x318c;" 
d="M113 1026v-317h159v-701h342v701h197v-701h342v705q143 7 219 22v-727h359v1651h-359v-615q-129 -18 -399 -18h-860z" />
    <glyph glyph-name="uni318D" unicode="&#x318d;" 
d="M922 666q94 0 152.5 53t58.5 147q0 88 -63 144.5t-148 56.5t-148 -56.5t-63 -144.5q0 -94 58.5 -147t152.5 -53z" />
    <glyph glyph-name="uni318E" unicode="&#x318e;" 
d="M1051 10h379v1649h-379v-1649zM625 666q94 0 152.5 53t58.5 147q0 88 -63 144.5t-148 56.5t-148 -56.5t-63 -144.5q0 -94 58.5 -147t152.5 -53z" />
    <glyph glyph-name="uni2170" unicode="&#x2170;" 
d="M739 1200v-1126h365v1126h-365zM1104 1319v274h-365v-274h365z" />
    <glyph glyph-name="uni2171" unicode="&#x2171;" 
d="M446 1200v-1126h355v1126h-355zM801 1319v274h-355v-274h355zM1040 1200v-1126h355v1126h-355zM1395 1319v274h-355v-274h355z" />
    <glyph glyph-name="uni2172" unicode="&#x2172;" 
d="M279 1200v-1126h333v1126h-333zM612 1319v274h-333v-274h333zM760 1200v-1126h334v1126h-334zM1094 1319v274h-334v-274h334zM1231 1200v-1126h334v1126h-334zM1565 1319v274h-334v-274h334z" />
    <glyph glyph-name="uni2173" unicode="&#x2173;" 
d="M567 1319v274h-354v-274h354zM854 1200h-641v-1126h354v864l320 -864h311l432 1126h-381l-202 -639z" />
    <glyph glyph-name="uni2174" unicode="&#x2174;" 
d="M336 1200l426 -1126h311l432 1126h-381l-202 -639l-203 639h-383z" />
    <glyph glyph-name="uni2175" unicode="&#x2175;" 
d="M1276 1319h354v274h-354v-274zM1630 1200h-641l-192 -639l-203 639h-381l432 -1126h311l320 864v-864h354v1126z" />
    <glyph glyph-name="uni2176" unicode="&#x2176;" 
d="M958 1319h304v274h-304v-274zM1681 1200h-303v-1126h303v1126zM1378 1319h303v274h-303v-274zM1262 1200h-549l-111 -639l-121 639h-319l289 -1126h311l196 811v-811h304v1126z" />
    <glyph glyph-name="uni2177" unicode="&#x2177;" 
d="M754 1319h264v274h-264v-274zM1368 1200h-262v-1126h262v1126zM1106 1319h262v274h-262v-274zM1712 1200h-262v-1126h262v1126zM1450 1319h262v274h-262v-274zM1018 1200h-459l-80 -741l-90 741h-258l217 -1126h270l136 757v-757h264v1126z" />
    <glyph glyph-name="uni2178" unicode="&#x2178;" 
d="M199 1200v-1126h344l-2 -2h379l170 299l170 -299h385l-347 563l318 563h-379l-147 -315l-148 315h-389l307 -563l-307 -543v1108h-354zM553 1319v274h-354v-274h354z" />
    <glyph glyph-name="uni2179" unicode="&#x2179;" 
d="M322 1200l368 -563l-381 -563h400l211 299l210 -299h406l-387 563l358 563h-399l-188 -315l-189 315h-409z" />
    <glyph glyph-name="uni2160" unicode="&#x2160;" 
d="M739 1593v-1519h365v1519h-365z" />
    <glyph glyph-name="uni2161" unicode="&#x2161;" 
d="M399 1593v-1519h355v1519h-355zM1087 1591v-1519h355v1519h-355z" />
    <glyph glyph-name="uni2162" unicode="&#x2162;" 
d="M272 1593v-1519h344v1519h-344zM745 1591v-1519h345v1519h-345zM1227 1591v-1519h344v1519h-344z" />
    <glyph glyph-name="uni2163" unicode="&#x2163;" 
d="M778 1593h-674v-1519h355v1319l418 -1319h372l482 1519h-383l-285 -1001z" />
    <glyph glyph-name="uni2164" unicode="&#x2164;" 
d="M735 74h373l491 1519h-393l-284 -1001l-285 1001h-393z" />
    <glyph glyph-name="uni2165" unicode="&#x2165;" 
d="M1731 1593h-355v-2h-311l-285 -1001l-284 1001h-383l481 -1519h373l409 1294v-1292h355v1519z" />
    <glyph glyph-name="uni2166" unicode="&#x2166;" 
d="M1290 1593h-313v-2h-229l-142 -1063l-141 1063h-322l277 -1519h373l184 1013v-1011h313v1519zM1700 1593h-314v-1519h314v1519z" />
    <glyph glyph-name="uni2167" unicode="&#x2167;" 
d="M1397 1593h-273v-1519h273v1519zM1745 1593h-272v-1519h272v1519zM1049 1593h-482l-100 -1063l-100 1063h-271l226 -1519h290l164 1104v-1104h273v1519z" />
    <glyph glyph-name="uni2168" unicode="&#x2168;" 
d="M457 125v1452l370 -743zM870 1593h-768v-1519h750l235 471l234 -471h420l-418 760l401 759h-417l-220 -471z" />
    <glyph glyph-name="uni2169" unicode="&#x2169;" 
d="M223 1593l430 -759l-448 -760h432l287 471l284 -471h430l-469 760l453 759h-428l-270 -471l-269 471h-432z" />
    <glyph glyph-name="Alpha" unicode="&#x391;" 
d="M1653 74l-580 1519h-321l-564 -1519h396l100 276h463l108 -276h398zM920 1149l129 -471h-267z" />
    <glyph glyph-name="Beta" unicode="&#x392;" 
d="M305 74h686q245 0 376.5 100.5t152.5 292.5q14 135 -44 254.5t-173 171.5q93 40 142.5 140.5t35.5 199.5q-14 171 -151.5 265.5t-414.5 94.5h-610v-1519zM662 1272h307q74 0 114.5 -33.5t40.5 -89.5q0 -57 -37.5 -89.5t-105.5 -37.5h-319v250zM662 713h299
q103 0 151.5 -44.5t48.5 -113.5q0 -163 -184 -160h-315v318z" />
    <glyph glyph-name="Gamma" unicode="&#x393;" 
d="M1057 1593h-645v-1519h364v1190h328q142 0 326 -23v324q-110 28 -373 28z" />
    <glyph glyph-name="uni0394" unicode="&#x394;" 
d="M698 362l222 676l223 -676h-445zM1036 1593h-252l-518 -1519h1311z" />
    <glyph glyph-name="Epsilon" unicode="&#x395;" 
d="M1495 1270v323h-1159v-1519h797q262 0 372 28v318q-184 -23 -325 -23h-486v281h762v317l-762 -2v277h801z" />
    <glyph glyph-name="Zeta" unicode="&#x396;" 
d="M1139 401h-248l545 1037v155h-1016v-327h518l-557 -1063v-129h704q265 0 375 28v322q-158 -23 -321 -23z" />
    <glyph glyph-name="Eta" unicode="&#x397;" 
d="M297 1593v-1519h365v618h520v-618h364v1519h-364v-573h-520v573h-365z" />
    <glyph glyph-name="Theta" unicode="&#x398;" 
d="M922 35q232 0 404 89t269.5 270t98.5 437q-1 188 -57 339t-157 251t-243 153.5t-315 53.5t-315 -53.5t-243 -153.5t-157 -251t-57 -339q1 -256 98.5 -437t269.5 -270t404 -89zM635 995v-327h575v327h-575zM922 342q-201 0 -318 126t-117 363q0 233 119 361.5t316 128.5
t315.5 -128.5t118.5 -361.5q0 -237 -116.5 -363t-317.5 -126z" />
    <glyph glyph-name="Iota" unicode="&#x399;" 
d="M739 1593v-1519h365v1519h-365z" />
    <glyph glyph-name="Kappa" unicode="&#x39a;" 
d="M651 381l193 260l317 -567h389l-471 874l455 645h-397l-486 -678v678h-358v-1519h358v307z" />
    <glyph glyph-name="Lambda" unicode="&#x39b;" 
d="M920 1149l335 -1075h398l-580 1519h-321l-564 -1519h396z" />
    <glyph glyph-name="Mu" unicode="&#x39c;" 
d="M748 74h348l274 985h10l9 -985h374l-94 1519h-420l-323 -1054h-11l-321 1054h-420l-94 -1519h375l8 985h10z" />
    <glyph glyph-name="Nu" unicode="&#x39d;" 
d="M657 1018l553 -944h336v1519h-360v-913l-535 913h-354v-1519h360v944z" />
    <glyph glyph-name="Xi" unicode="&#x39e;" 
d="M299 1202h328v105h587v-105h328v391h-1243v-391zM1542 608h-328v-104h-587v104h-328v-391h1243v391zM391 1047v-287h1059v287h-1059z" />
    <glyph glyph-name="Omicron" unicode="&#x39f;" 
d="M918 35q345 0 539 212.5t194 583.5t-194 584t-539 213q-342 0 -533.5 -213t-191.5 -584t191.5 -583.5t533.5 -212.5zM922 383q-162 0 -261.5 122t-99.5 326q0 195 101.5 322t259.5 127t259 -126.5t101 -322.5q0 -204 -99 -326t-261 -122z" />
    <glyph glyph-name="Pi" unicode="&#x3a0;" 
d="M319 74h338v1212h527v-1212h338v1519h-1203v-1519z" />
    <glyph glyph-name="Rho" unicode="&#x3a1;" 
d="M311 1593v-1519h363v463h258q139 0 254 42t189.5 114t115.5 166.5t41 199.5q0 255 -165.5 394.5t-475.5 139.5h-580zM674 862v404h278q105 0 165.5 -56.5t60.5 -142.5q0 -82 -60 -143.5t-170 -61.5h-274z" />
    <glyph glyph-name="Sigma" unicode="&#x3a3;" 
d="M840 834l-533 -676v-84h1229v297h-670l359 463l-359 462h670v297h-1229v-84z" />
    <glyph glyph-name="Tau" unicode="&#x3a4;" 
d="M342 1593v-336h391v-1183h365v1183h401v336h-1157z" />
    <glyph glyph-name="Upsilon" unicode="&#x3a5;" 
d="M1110 664l518 929h-422l-284 -577l-285 577h-422l522 -929v-590h373v590z" />
    <glyph glyph-name="Phi" unicode="&#x3a6;" 
d="M748 250v-176h346v176q270 34 414.5 185t144.5 417q0 246 -146.5 403t-412.5 197v141h-346v-141q-265 -40 -411.5 -197.5t-146.5 -402.5q0 -264 144 -415t414 -187zM1094 575v549q104 -29 162.5 -97.5t58.5 -174.5q0 -217 -221 -277zM748 1124v-549q-220 59 -220 277
q0 208 220 272z" />
    <glyph glyph-name="Chi" unicode="&#x3a7;" 
d="M223 1593l420 -759l-438 -760h442l277 471l274 -471h440l-458 760l442 759h-438l-260 -471l-258 471h-443z" />
    <glyph glyph-name="Psi" unicode="&#x3a8;" 
d="M748 1593v-708q-84 25 -118 79t-34 144v485h-344v-536q0 -218 127 -354t369 -171v-458h346v458q242 35 369.5 171t127.5 354v536h-344v-485q0 -91 -34.5 -145.5t-118.5 -79.5v710h-346z" />
    <glyph glyph-name="uni03A9" unicode="&#x3a9;" 
d="M1384 74q148 0 232 16v303q-72 -10 -178 -10h-82v72q120 67 189 200.5t69 319.5q0 135 -44 252.5t-127.5 207.5t-217 141.5t-301.5 51.5t-301.5 -51.5t-217.5 -141.5t-128 -207.5t-44 -252.5q0 -186 69.5 -319.5t189.5 -200.5v-72h-267v-309h611v608h-9q-256 47 -256 313
q0 136 96.5 226t256.5 90q159 0 255.5 -89.5t96.5 -226.5q0 -266 -256 -313h-8v-608h372z" />
    <glyph glyph-name="alpha" unicode="&#x3b1;" 
d="M801 373q-97 0 -158 70.5t-61 199.5q0 130 68 200.5t159 65.5q102 0 167.5 -79.5t65.5 -219.5q0 -39 -4 -55q-18 -91 -80.5 -136.5t-156.5 -45.5zM1405 553v647h-354v-102q-48 52 -121 86.5t-158 38.5q-106 5 -201.5 -29.5t-171 -104t-122 -185t-50.5 -261.5
q-4 -145 36 -258.5t114 -183.5t170.5 -106t210.5 -36q92 0 178 33.5t125 89.5q47 -83 176 -116q71 -23 187 -13t200 58l-59 321q-38 -18 -62.5 -21t-46.5 5q-32 11 -41.5 39.5t-9.5 97.5z" />
    <glyph glyph-name="beta" unicode="&#x3b2;" 
d="M319 -182h343v307q147 -82 354 -82q218 0 333.5 107t143.5 296q23 153 -37 272.5t-180 174.5q92 52 125.5 156.5t11.5 207.5q-37 170 -172.5 268.5t-372.5 98.5h-145q-190 -1 -297 -116.5t-107 -297.5v-1392zM799 713h114q124 -1 185.5 -59t56.5 -140q-5 -78 -61.5 -124
t-149.5 -46q-82 0 -167.5 31t-121.5 82v655q0 88 43 144.5t117 56.5h66q92 0 142.5 -45t53.5 -109q3 -69 -38 -112t-126 -46h-114v-288z" />
    <glyph glyph-name="gamma" unicode="&#x3b3;" 
d="M336 1200q114 -243 227.5 -581.5t165.5 -550.5l59 -248h371l-74 315q129 242 225.5 493.5t194.5 571.5h-381q-74 -352 -202 -639q-36 195 -80.5 333t-122.5 306h-383z" />
    <glyph glyph-name="delta" unicode="&#x3b4;" 
d="M918 371q-110 0 -182 60.5t-72 186.5q0 122 73 185t181 63q111 0 186.5 -63t75.5 -185q0 -126 -74.5 -186.5t-187.5 -60.5zM922 47q273 0 442.5 154t169.5 417q0 123 -40 225t-111 172t-165.5 113t-205.5 56l6 4q-107 25 -122 83q-9 36 20 57q6 5 14 7q48 15 129.5 2
t136.5 -47l166 238q-57 47 -198.5 83t-258.5 29q-132 -8 -225 -53.5t-158 -138.5q-56 -78 -57 -188t51 -195q-98 -74 -152.5 -187.5t-54.5 -259.5q0 -263 170 -417t443 -154z" />
    <glyph glyph-name="epsilon" unicode="&#x3b5;" 
d="M1419 137l-123 256q-100 -42 -216 -52t-144 17q-35 22 -37.5 62.5t31.5 62.5q3 1 12 5.5t12.5 6t12.5 5t15 5t17 4t22.5 3t27 2t34.5 2t41 0.5h93v289h-82q-38 0 -64 1.5t-43.5 5t-25.5 6t-21 8.5t-18 8q-25 19 -26.5 49t21.5 45q24 19 71.5 24.5t119.5 -11.5t143 -60
l97 274q-210 111 -424 98.5t-330 -139.5q-87 -101 -86 -238.5t84 -209.5q-76 -43 -110.5 -121t-25.5 -160t56.5 -160.5t124.5 -124.5q76 -48 203 -64.5t275 9t263 92.5z" />
    <glyph glyph-name="zeta" unicode="&#x3b6;" 
d="M1038 47l-30 -145l307 -56q61 189 57 422l-57 60q-117 -13 -219.5 7.5t-161.5 61.5t-82 122t-4 177q35 181 199 400q111 144 233 219l-94 278h-647v-307h307q-134 -144 -220 -308.5t-106 -275.5q-72 -388 156 -555q120 -88 362 -100z" />
    <glyph glyph-name="eta" unicode="&#x3b7;" 
d="M397 74h359v737q49 37 83 52t89 18q55 2 86.5 -16.5t51 -80.5t19.5 -176v-790h359v944q-2 218 -103 341.5t-301 123.5h-32q-71 -6 -141.5 -32.5t-110.5 -59.5v65h-359v-1126z" />
    <glyph glyph-name="theta" unicode="&#x3b8;" 
d="M684 995q7 180 67 253t171 73q110 0 170 -73t67 -253h-475zM1159 668v-15q0 -166 -60.5 -238.5t-176.5 -72.5q-119 0 -178.5 72t-59.5 239v15h475zM922 35q299 0 433 190t134 606q-2 392 -139 594.5t-428 202.5t-428.5 -202.5t-139.5 -594.5q0 -415 134.5 -605.5
t433.5 -190.5z" />
    <glyph glyph-name="iota" unicode="&#x3b9;" 
d="M678 338q0 -159 36 -240t115 -121q66 -33 157 -35t177 25l-16 297q-41 0 -59.5 7.5t-32.5 25.5q-23 29 -23 123v780h-354v-862z" />
    <glyph glyph-name="kappa" unicode="&#x3ba;" 
d="M709 414l86 94l280 -434h416l-459 692l406 434h-422l-307 -330v328h-357v-1124h357v340z" />
    <glyph glyph-name="lambda" unicode="&#x3bb;" 
d="M1505 72q-114 243 -227.5 581.5t-165.5 550.5l-84 301h-371l99 -368q-129 -242 -225.5 -493.5t-194.5 -571.5h381q73 348 203 639q36 -196 80.5 -334.5t121.5 -304.5h383z" />
    <glyph glyph-name="uni03BC" unicode="&#x3bc;" 
d="M770 563v637h-358v-1380h358v258q63 -14 104 -10q103 11 199 92v-86h359v1126h-359v-696q-55 -79 -160 -90q-63 -7 -103 27t-40 122z" />
    <glyph glyph-name="nu" unicode="&#x3bd;" 
d="M729 74h352q86 162 169 372t131 357.5t124 396.5h-381q-74 -352 -202 -639q-36 195 -80.5 333t-122.5 306h-383q115 -244 228.5 -580.5t164.5 -545.5z" />
    <glyph glyph-name="xi" unicode="&#x3be;" 
d="M1036 47l-41 -145l308 -56q41 181 57 422l-68 90q-150 -55 -282 -30q-63 12 -109 58t-45 116q3 197 287 200v250q-85 6 -138 45t-53 99q0 57 37.5 107.5t91.5 72.5q84 34 187 39l-94 278h-648v-286h246q-60 -28 -103 -95.5t-46 -136.5q-10 -187 180 -262
q-142 -28 -225.5 -124t-90.5 -243q-5 -97 54 -197t151 -145q52 -26 160 -45t184 -12z" />
    <glyph glyph-name="omicron" unicode="&#x3bf;" 
d="M918 371q-107 0 -180.5 70t-73.5 198q0 124 74.5 196t179.5 72q108 0 185 -72t77 -196q0 -128 -76 -198t-186 -70zM922 47q270 0 441 163.5t171 428.5q0 180 -83.5 316.5t-221.5 206t-307 69.5t-307.5 -69.5t-222 -206t-83.5 -316.5q0 -265 171.5 -428.5t441.5 -163.5z
" />
    <glyph glyph-name="pi" unicode="&#x3c0;" 
d="M1006 893v-453q0 -144 43 -232t139 -124q75 -30 170.5 -25t161.5 45l-60 306q-47 -18 -82 -7q-45 23 -45 144v346h166v307h-1175v-307h159v-819h338v819h185z" />
    <glyph glyph-name="rho" unicode="&#x3c1;" 
d="M913 371q-104 12 -162.5 77.5t-58.5 157.5q0 135 67 217t171 82q95 0 164 -67.5t69 -198.5q0 -145 -73.5 -212.5t-176.5 -55.5zM500 1053q-97 -107 -134.5 -245t-37.5 -368v-622h352v346q37 -47 123 -77t170 -30q116 0 212.5 34t170 102t113.5 179.5t38 256.5
q-1 140 -47.5 254t-124.5 186.5t-179 111t-214 38.5q-166 0 -266 -41t-176 -125z" />
    <glyph glyph-name="sigma" unicode="&#x3c3;" 
d="M860 371q-109 0 -181.5 63.5t-72.5 190.5q0 122 73.5 188t180.5 66q110 0 186 -66t76 -188q0 -127 -75 -190.5t-187 -63.5zM864 47q272 0 442.5 145.5t170.5 391.5q-3 100 -38 179.5t-79 121.5h231v315h-727q-127 0 -237.5 -38.5t-194.5 -109.5t-132 -181t-48 -246
q0 -175 78.5 -307t216.5 -201.5t317 -69.5z" />
    <glyph glyph-name="tau" unicode="&#x3c4;" 
d="M1085 883h267v317h-863v-317h248v-547q0 -159 36 -240t116 -121q66 -33 157 -35t177 25l-23 297q-41 0 -59.5 7.5t-32.5 25.5q-23 29 -23 123v465z" />
    <glyph glyph-name="upsilon" unicode="&#x3c5;" 
d="M922 31q225 0 355.5 123.5t145.5 347.5q24 370 -55 698h-346q52 -290 57 -493q4 -187 -32.5 -262.5t-126.5 -75.5q-88 0 -130 60t-42 189v582h-349v-647q0 -262 137.5 -392t385.5 -130z" />
    <glyph glyph-name="phi" unicode="&#x3c6;" 
d="M745 1034v-618q-55 21 -91 73t-46 129q-9 68 3 139.5t42 129.5l-342 92q-80 -191 -57 -422q22 -205 148.5 -332t342.5 -164v-264h365v266q226 44 359 194t133 382q0 278 -182.5 435t-491.5 157q-183 0 -183 -197zM1110 885q147 -59 147 -246q0 -175 -147 -236v482z" />
    <glyph glyph-name="chi" unicode="&#x3c7;" 
d="M309 1200l379 -692l-391 -690h399l222 426l221 -426h405l-397 690l369 692h-400l-198 -444l-199 444h-410z" />
    <glyph glyph-name="psi" unicode="&#x3c8;" 
d="M762 1198v-811q-123 41 -123 188v623h-315v-698q0 -185 117.5 -298t320.5 -145v-237h317v237q204 32 321.5 144.5t117.5 298.5v698h-316v-623q0 -147 -123 -188v811h-317z" />
    <glyph glyph-name="omega" unicode="&#x3c9;" 
d="M920 201q48 -81 131.5 -119.5t170.5 -31.5t172 58.5t136 139.5q93 160 78.5 476.5t-123.5 526.5l-297 -98q45 -126 67 -330t-4 -305q-12 -39 -40 -54.5t-57.5 -3t-47.5 45.5q-17 31 -25 83t-8.5 114.5t0.5 142.5v108h-309v-108q3 -258 -33 -340q-15 -34 -45 -46.5
t-59 3.5t-41 55q-26 101 -4 305t67 330l-297 98q-71 -136 -102.5 -330.5t-16 -378t73.5 -292.5q47 -89 131.5 -141t173 -59t174 32t134.5 119z" />
    <glyph glyph-name="SF100000" unicode="&#x2500;" 
d="M0 879v-287h1843v287h-1843z" />
    <glyph glyph-name="SF110000" unicode="&#x2502;" 
d="M778 1751v-2048h287v2048h-287z" />
    <glyph glyph-name="SF010000" unicode="&#x250c;" 
d="M778 879v-1176h287v889h778v287h-1065z" />
    <glyph glyph-name="SF030000" unicode="&#x2510;" 
d="M1065 879h-1065v-287h778v-889h287v1176z" />
    <glyph glyph-name="SF040000" unicode="&#x2518;" 
d="M1065 592v1159h-287v-872h-778v-287h1065z" />
    <glyph glyph-name="SF020000" unicode="&#x2514;" 
d="M778 592h1065v287h-778v872h-287v-1159z" />
    <glyph glyph-name="SF080000" unicode="&#x251c;" 
d="M778 1751v-2048h287v889h778v287h-778v872h-287z" />
    <glyph glyph-name="SF060000" unicode="&#x252c;" 
d="M1065 592h778v287h-1843v-287h778v-889h287v889z" />
    <glyph glyph-name="SF090000" unicode="&#x2524;" 
d="M1065 1751h-287v-872h-778v-287h778v-889h287v2048z" />
    <glyph glyph-name="SF070000" unicode="&#x2534;" 
d="M1065 879v872h-287v-872h-778v-287h1843v287h-778z" />
    <glyph glyph-name="SF050000" unicode="&#x253c;" 
d="M778 592v-889h287v889h778v287h-778v872h-287v-872h-778v-287h778z" />
    <glyph glyph-name="uni2501" unicode="&#x2501;" 
d="M0 961v-451h1843v451h-1843z" />
    <glyph glyph-name="uni2503" unicode="&#x2503;" 
d="M696 1751v-2048h451v2048h-451z" />
    <glyph glyph-name="uni250F" unicode="&#x250f;" 
d="M696 961v-1258h451v807h696v451h-1147z" />
    <glyph glyph-name="uni2513" unicode="&#x2513;" 
d="M1147 961h-1147v-451h696v-807h451v1258z" />
    <glyph glyph-name="uni251B" unicode="&#x251b;" 
d="M1147 510v1241h-451v-790h-696v-451h1147z" />
    <glyph glyph-name="uni2517" unicode="&#x2517;" 
d="M696 510h1147v451h-696v790h-451v-1241z" />
    <glyph glyph-name="uni2523" unicode="&#x2523;" 
d="M696 1751v-2048h451v807h696v451h-696v790h-451z" />
    <glyph glyph-name="uni2533" unicode="&#x2533;" 
d="M1147 510h696v451h-1843v-451h696v-807h451v807z" />
    <glyph glyph-name="uni252B" unicode="&#x252b;" 
d="M1147 1751h-451v-790h-696v-451h696v-807h451v2048z" />
    <glyph glyph-name="uni253B" unicode="&#x253b;" 
d="M1147 961v790h-451v-790h-696v-451h1843v451h-696z" />
    <glyph glyph-name="uni254B" unicode="&#x254b;" 
d="M696 510v-807h451v807h696v451h-696v790h-451v-790h-696v-451h696z" />
    <glyph glyph-name="uni2520" unicode="&#x2520;" 
d="M696 1751v-2048h451v889h696v287h-696v872h-451z" />
    <glyph glyph-name="uni252F" unicode="&#x252f;" 
d="M1065 510h778v451h-1843v-451h778v-807h287v807z" />
    <glyph glyph-name="uni2528" unicode="&#x2528;" 
d="M696 592v-889h451v2048h-451v-872h-696v-287h696z" />
    <glyph glyph-name="uni2537" unicode="&#x2537;" 
d="M778 961h-778v-451h1843v451h-778v790h-287v-790z" />
    <glyph glyph-name="uni253F" unicode="&#x253f;" 
d="M778 510v-807h287v807h778v451h-778v790h-287v-790h-778v-451h778z" />
    <glyph glyph-name="uni251D" unicode="&#x251d;" 
d="M778 1751v-2048h287v807h778v451h-778v790h-287z" />
    <glyph glyph-name="uni2530" unicode="&#x2530;" 
d="M1843 879h-1843v-287h696v-889h451v889h696v287z" />
    <glyph glyph-name="uni2525" unicode="&#x2525;" 
d="M1065 -297v2048h-287v-790h-778v-451h778v-807h287z" />
    <glyph glyph-name="uni2538" unicode="&#x2538;" 
d="M2 592h1841v287h-696v872h-451v-872h-694v-287z" />
    <glyph glyph-name="uni2542" unicode="&#x2542;" 
d="M696 592v-889h451v889h696v287h-696v872h-451v-872h-696v-287h696z" />
    <glyph glyph-name="uni2512" unicode="&#x2512;" 
d="M1147 879h-1147v-287h696v-889h451v1176z" />
    <glyph glyph-name="uni2511" unicode="&#x2511;" 
d="M1065 961h-1065v-451h778v-807h287v1258z" />
    <glyph glyph-name="uni251A" unicode="&#x251a;" 
d="M1147 592v1159h-451v-872h-696v-287h1147z" />
    <glyph glyph-name="uni2519" unicode="&#x2519;" 
d="M1065 510v1241h-287v-790h-778v-451h1065z" />
    <glyph glyph-name="uni2516" unicode="&#x2516;" 
d="M696 592h1147v287h-696v872h-451v-1159z" />
    <glyph glyph-name="uni2515" unicode="&#x2515;" 
d="M778 510h1065v451h-778v790h-287v-1241z" />
    <glyph glyph-name="uni250E" unicode="&#x250e;" 
d="M696 879v-1176h451v889h696v287h-1147z" />
    <glyph glyph-name="uni250D" unicode="&#x250d;" 
d="M778 961v-1258h287v807h778v451h-1065z" />
    <glyph glyph-name="uni251E" unicode="&#x251e;" 
d="M696 1751v-1118h82v-930h287v889h778v287h-696v872h-451z" />
    <glyph glyph-name="uni251F" unicode="&#x251f;" 
d="M696 -297h451v889h696v287h-778v872h-287v-913h-82v-1135z" />
    <glyph glyph-name="uni2521" unicode="&#x2521;" 
d="M696 1751v-1118h82v-930h287v848h778v369h-696v831h-451z" />
    <glyph glyph-name="uni2522" unicode="&#x2522;" 
d="M696 -297h451v848h696v369h-778v831h-287v-913h-82v-1135z" />
    <glyph glyph-name="uni2526" unicode="&#x2526;" 
d="M1147 1751h-451v-872h-696v-287h778v-889h287v930h82v1118z" />
    <glyph glyph-name="uni2527" unicode="&#x2527;" 
d="M1147 -297v1135h-82v913h-287v-872h-778v-287h696v-889h451z" />
    <glyph glyph-name="uni2529" unicode="&#x2529;" 
d="M1147 1751h-451v-831h-696v-369h778v-848h287v930h82v1118z" />
    <glyph glyph-name="uni252A" unicode="&#x252a;" 
d="M1147 -297v1135h-82v913h-287v-831h-778v-369h696v-848h451z" />
    <glyph glyph-name="uni252D" unicode="&#x252d;" 
d="M1065 592h778v287h-819v82h-1024v-451h778v-807h287v889z" />
    <glyph glyph-name="uni252E" unicode="&#x252e;" 
d="M778 592v-889h287v807h778v451h-1024v-82h-819v-287h778z" />
    <glyph glyph-name="uni2531" unicode="&#x2531;" 
d="M1106 592h737v287h-819v82h-1024v-451h737v-807h369v889z" />
    <glyph glyph-name="uni2532" unicode="&#x2532;" 
d="M737 592v-889h369v807h737v451h-1024v-82h-819v-287h737z" />
    <glyph glyph-name="uni2535" unicode="&#x2535;" 
d="M1065 879v872h-287v-790h-778v-451h1024v82h819v287h-778z" />
    <glyph glyph-name="uni2536" unicode="&#x2536;" 
d="M778 879h-778v-287h819v-82h1024v451h-778v790h-287v-872z" />
    <glyph glyph-name="uni2539" unicode="&#x2539;" 
d="M1106 879v872h-369v-790h-737v-451h1024v82h819v287h-737z" />
    <glyph glyph-name="uni253A" unicode="&#x253a;" 
d="M737 879h-737v-287h819v-82h1024v451h-737v790h-369v-872z" />
    <glyph glyph-name="uni253D" unicode="&#x253d;" 
d="M778 510v-807h287v889h778v287h-778v872h-287v-790h-778v-451h778z" />
    <glyph glyph-name="uni253E" unicode="&#x253e;" 
d="M1065 510h778v451h-778v790h-287v-872h-778v-287h778v-889h287v807z" />
    <glyph glyph-name="uni2540" unicode="&#x2540;" 
d="M778 592v-889h287v889h778v287h-696v872h-451v-872h-696v-287h778z" />
    <glyph glyph-name="uni2541" unicode="&#x2541;" 
d="M778 879h-778v-287h696v-889h451v889h696v287h-778v872h-287v-872z" />
    <glyph glyph-name="uni2543" unicode="&#x2543;" 
d="M778 510v-807h287v889h778v287h-696v872h-451v-790h-696v-451h778z" />
    <glyph glyph-name="uni2544" unicode="&#x2544;" 
d="M1065 510h778v451h-696v790h-451v-872h-696v-287h778v-889h287v807z" />
    <glyph glyph-name="uni2545" unicode="&#x2545;" 
d="M778 961h-778v-451h696v-807h451v889h696v287h-778v872h-287v-790z" />
    <glyph glyph-name="uni2546" unicode="&#x2546;" 
d="M1065 961v790h-287v-872h-778v-287h696v-889h451v807h696v451h-778z" />
    <glyph glyph-name="uni2547" unicode="&#x2547;" 
d="M778 510v-807h287v807h778v451h-696v790h-451v-790h-696v-451h778z" />
    <glyph glyph-name="uni2548" unicode="&#x2548;" 
d="M778 961h-778v-451h696v-805h451v805h696v451h-778v790h-287v-790z" />
    <glyph glyph-name="uni2549" unicode="&#x2549;" 
d="M696 961h-696v-451h696v-807h451v889h696v287h-696v872h-451v-790z" />
    <glyph glyph-name="uni254A" unicode="&#x254a;" 
d="M1147 961v790h-451v-872h-696v-287h696v-889h451v807h696v451h-696z" />
    <glyph glyph-name="uni3395" unicode="&#x3395;" 
d="M1350 819q12 116 22.5 188t22.5 113.5t24.5 55t30.5 10.5q20 -3 28.5 -32.5t5 -108t-23.5 -209.5q-28 -184 -112 -359q-11 205 2 342zM641 74h350q86 0 146 35q35 -102 130.5 -156.5t207.5 -52.5q219 3 366 235l-166 221q-43 -63 -101 -113.5t-120 -78.5l-14 20
q85 72 139.5 145.5t108.5 194.5q57 126 84 287t22 301.5t-35 235.5q-26 84 -81 139.5t-115.5 76t-122.5 15.5q-91 -7 -160 -56.5t-125 -144.5q-104 -176 -117 -536q-8 -203 21 -459q-45 -18 -90 -18v835h-328v-604q0 -82 -35 -130.5t-96 -62.5q-33 -8 -56.5 12t-23.5 56v729
h-328v-1382h328v245q80 -6 125 12t86 64v-65z" />
    <glyph glyph-name="uni3396" unicode="&#x3396;" 
d="M1370 819q12 116 22.5 188t22.5 113.5t24.5 55t30.5 10.5q20 -3 29 -32.5t5.5 -108t-23.5 -209.5q-28 -181 -113 -359q-11 205 2 342zM799 74h258q76 0 131 35q32 -102 118 -156.5t185 -52.5q197 3 330 235l-150 221q-38 -63 -90.5 -113.5t-107.5 -78.5l-13 20
q75 72 122.5 145.5t96.5 194.5q52 126 76.5 287t20.5 301.5t-31 235.5q-34 123 -116 181t-169 50q-82 -7 -143 -56t-113 -145q-91 -172 -104 -536q-8 -204 18 -459q-40 -18 -78 -18v469q0 395 -188 395h-27q-40 0 -89.5 -34.5t-67.5 -94.5q-8 63 -47 96t-86 33h-15
q-103 -8 -145 -99v70h-271v-1126h271v762q8 36 17.5 53.5t27.5 21.5q17 5 25.5 -2.5t15 -47t6.5 -120.5v-667h242v776q15 53 41 61q9 2 16 2t12.5 -5t9.5 -16t6.5 -31t3.5 -49t1 -71v-667z" />
    <glyph glyph-name="uni3397" unicode="&#x3397;" 
d="M1350 819q12 116 22.5 188t22.5 113.5t24.5 55t30.5 10.5q20 -3 28.5 -32.5t5 -108t-23.5 -209.5q-28 -184 -112 -359q-11 205 2 342zM537 371q-72 -8 -113 57t-41 213q0 137 39.5 206t105.5 60q123 -18 123 -297q0 -98 -30.5 -165.5t-83.5 -73.5zM664 74h327
q86 0 146 35q35 -102 130.5 -156.5t207.5 -52.5q219 3 366 235l-166 221q-43 -63 -101 -113.5t-120 -78.5l-14 20q85 72 139.5 145.5t108.5 194.5q57 126 84 287t22 301.5t-35 235.5q-26 84 -81 139.5t-115.5 76t-122.5 15.5q-91 -7 -160 -56.5t-125 -144.5
q-104 -176 -117 -536q-8 -203 21 -459q-45 -18 -84 -18v1228h-311v-487q-83 115 -226 115q-154 2 -256 -145t-108 -445q-2 -126 15.5 -225.5t50 -164.5t78 -107.5t97 -60t109.5 -16.5q168 3 240 117v-100z" />
    <glyph glyph-name="afii61289" unicode="&#x2113;" 
d="M870 819q8 140 27.5 226t43 115.5t54.5 25.5q71 -11 33 -350q-25 -218 -127 -359q-40 154 -31 342zM334 385l51 -332h111q111 0 174 35q68 -99 158 -144.5t210 -43.5q123 2 227 58.5t173 176.5l-205 221q-86 -118 -234 -182l-14 21q60 48 86.5 70.5t70 65.5t74.5 89
t60 104q63 127 91 280.5t20 293t-46 250.5q-28 83 -91 139t-131 76.5t-134 15.5q-99 -8 -186 -59t-142 -142q-78 -128 -106.5 -239t-36.5 -277q-6 -114 10.5 -245t44.5 -214q-49 -18 -235 -18z" />
    <glyph glyph-name="uni3398" unicode="&#x3398;" 
d="M1329 819q9 90 20 157t22.5 107.5t25 65t26.5 32.5t27 5q20 -3 28.5 -32.5t5 -108t-23.5 -209.5q-28 -184 -112 -359q-36 161 -19 342zM723 74h371l53 14q66 -188 307 -188q103 0 208 59.5t179 175.5l-166 221q-43 -63 -101 -113.5t-120 -78.5l-14 20q85 72 139.5 145.5
t108.5 194.5q57 126 84 287t22 301.5t-35 235.5q-26 84 -81 139.5t-115.5 76t-122.5 15.5q-91 -7 -160 -56.5t-125 -144.5q-125 -212 -137 -536q-10 -256 41 -459q-35 -13 -54 -15.5t-87 -2.5l-201 368l303 467h-356l-246 -350v743h-326v-1519h326v278l94 133z" />
    <glyph glyph-name="uni33C4" unicode="&#x33c4;" 
d="M399 641q0 124 66.5 199t152.5 75q66 0 106 -17t103 -64l131 268q-76 76 -164 108.5t-208 32.5q-82 0 -156.5 -20.5t-142.5 -67t-117.5 -115t-79 -171t-29.5 -228.5t29 -228.5t79 -171t117.5 -115t142.5 -67t157 -20.5q128 0 211 31.5t161 109.5l-131 269
q-63 -48 -103.5 -65t-105.5 -17q-86 0 -152.5 75t-66.5 199zM1221 641q0 124 66 199t151 75q66 0 107.5 -17t103.5 -64l133 268q-78 76 -166.5 108.5t-208.5 32.5q-103 0 -193.5 -34t-165.5 -103t-119 -188.5t-44 -276.5q0 -126 29 -228.5t78 -171t116.5 -115t142 -67
t156.5 -20.5q122 0 208.5 34t166.5 107l-133 269q-63 -48 -104.5 -65t-106.5 -17q-85 0 -151 75t-66 199z" />
    <glyph glyph-name="uni33A3" unicode="&#x33a3;" 
d="M82 74h229v803q16 68 39 75q15 5 23 -2.5t14 -47.5t6 -120v-708h213v817q15 54 35 61q7 2 11.5 2.5t9.5 -1.5t8 -6.5t6 -13.5t4.5 -22t3 -31.5t2 -42.5t0.5 -55v-708h215v800q0 197 -38.5 276t-119.5 79h-22q-36 0 -80 -34.5t-61 -94.5q-11 68 -43 98.5t-76 30.5h-12
q-41 -4 -80 -28t-58 -71v70h-229v-1126zM979 74h231v803q12 67 39 75q14 5 22 -2.5t13.5 -47.5t5.5 -120v-708h215v817q12 53 37 61q23 7 30 -14q11 -29 11 -156v-708h215v760q0 356 -127 391q97 29 123 106q21 57 3 103.5t-68 68.5q43 24 50 80.5t-16 89.5q-26 51 -94.5 76
t-157.5 16q-34 -3 -90 -18.5t-88 -32.5l58 -133q41 18 118 31q29 7 51 1.5t19 -22.5q-3 -18 -30.5 -24t-104.5 -8l8 -138q52 9 86 9q28 0 41 -5.5t12 -21.5q-1 -15 -14 -20t-47 -7q-62 -3 -154 27l-57 -143q86 -40 215 -48q5 0 14.5 -1t14.5 -1q-65 -35 -84 -110
q-8 69 -41.5 99t-77.5 30h-10q-43 -3 -82 -27.5t-58 -71.5v70h-231v-1126z" />
    <glyph glyph-name="uni33A4" unicode="&#x33a4;" 
d="M1376 1403l-57 -143q69 -34 172 -43q-85 -32 -131 -107q-7 41 -34 69.5t-57 39t-59 10.5h-10q-52 -3 -105 -29t-85 -70v70h-293v-1126h293v792q13 68 55 76q14 2 23 -7.5t15.5 -49.5t6.5 -113v-698h276v807q11 50 44 61q18 6 28.5 -2t18.5 -48.5t8 -119.5v-698h276v760
q0 161 -34.5 257.5t-92.5 125.5q125 19 160 114q21 57 3 103.5t-68 68.5q43 24 50 80.5t-16 89.5q-26 51 -94.5 76t-157.5 16q-34 -3 -90 -18.5t-88 -32.5l58 -133q41 18 118 31q29 7 51 1.5t19 -22.5q-3 -18 -30.5 -24t-104.5 -8l8 -138q52 9 86 9q28 0 41 -5.5t12 -21.5
q-1 -15 -14 -20t-47 -7q-62 -3 -154 27zM61 641q0 -135 23.5 -241t59.5 -170t86.5 -107t97 -61t98.5 -23q132 -14 250 49l-60 238q-95 -33 -153 -11q-61 23 -94 108.5t-33 217.5t37 221.5t100 104.5q70 16 143 -4l60 237q-64 33 -118.5 42t-121.5 1q-55 -7 -103 -24.5
t-100 -60.5t-88.5 -106.5t-60 -169t-23.5 -241.5z" />
    <glyph glyph-name="uni33A5" unicode="&#x33a5;" 
d="M82 74h336v737q22 35 51 55.5t57 20.5q71 3 91 -52t20 -221v-540h328v751q35 57 88 62q69 7 91.5 -48t22.5 -225v-540h330v719q0 160 -63 268q6 0 19 -1t20 -1q107 -7 187 38.5t107 121.5q25 66 3.5 125t-78.5 81q33 19 48 65.5t11.5 92.5t-18.5 74q-31 58 -110.5 87.5
t-178.5 18.5q-38 -3 -102 -21t-101 -38l64 -178q45 21 137 37q34 7 56.5 0.5t19.5 -27.5q-3 -18 -32.5 -25t-115.5 -10l8 -176q51 10 99 10q29 0 41.5 -6t11.5 -26q-1 -17 -14 -23.5t-48 -9.5q-68 -3 -178 33l-33 -95q-58 21 -122 21h-35q-57 0 -120.5 -36t-107.5 -93
q-44 65 -101 97t-146 32h-23q-47 -5 -87.5 -25.5t-96.5 -73.5v70h-336v-1126z" />
    <glyph glyph-name="uni33A6" unicode="&#x33a6;" 
d="M1356 1217h276q90 0 158 18v170q-79 -12 -109 -12h-16q49 46 82 102q21 36 26.5 86.5t-12.5 95.5q-23 47 -79 77t-119 28q-100 -3 -161.5 -41.5t-86.5 -126.5l160 -86q24 68 69 80q11 3 21 -4t10 -21q0 -33 -47 -88q-48 -58 -172 -149v-129zM367 362l41 105l131 -393h262
l-219 651l206 475h-278l-143 -340v733h-285v-1519h285v288zM748 74h282v792q13 68 55 76q14 2 23 -7.5t15.5 -49.5t6.5 -113v-698h267v807q12 51 43 61q18 6 28.5 -2t18.5 -48.5t8 -119.5v-698h266v760q0 197 -49.5 296t-130.5 99h-22q-47 0 -100 -30.5t-89 -88.5
q-7 41 -34 69.5t-56.5 39t-58.5 10.5h-11q-50 -3 -99 -28.5t-81 -70.5v70h-282v-1126z" />
    <glyph glyph-name="uni3399" unicode="&#x3399;" 
d="M72 1200v-309h131v-817h303v817h143v309h-143v51q0 51 22 71.5t70 20.5h41v295h-143q-152 0 -222.5 -80.5t-70.5 -269.5v-88h-131zM717 74h293v792q13 68 55 76q14 2 23 -7.5t15.5 -49.5t6.5 -113v-698h276v807q11 50 44 61q18 6 28.5 -2t18.5 -48.5t8 -119.5v-698h276
v760q0 197 -49.5 296t-130.5 99h-22q-48 0 -106 -31t-93 -88q-7 41 -34 69.5t-57 39t-59 10.5h-10q-52 -3 -105 -29t-85 -70v70h-293v-1126z" />
    <glyph glyph-name="uni339A" unicode="&#x339a;" 
d="M784 74h283v792q13 68 55 76q14 2 23 -7.5t15.5 -49.5t6.5 -113v-698h267v807q12 51 43 61q18 6 28.5 -2t18.5 -48.5t8 -119.5v-698h266v780q0 192 -55 283.5t-139 91.5h-23q-45 0 -91 -30t-83 -89q-35 119 -160 119h-10q-104 -7 -170 -99v70h-283v-1126zM82 74h256v784
q10 36 21.5 51.5t35.5 18.5q34 0 40.5 -43.5t6.5 -229.5v-581h256v749q0 210 -49.5 307t-150.5 97h-19q-81 -4 -141 -92v65h-256v-1126z" />
    <glyph glyph-name="uni339B" unicode="&#x339b;" 
d="M815 74h272v782q13 68 56 76q14 2 23 -7.5t15.5 -49.5t6.5 -113v-688h256v796q12 52 43 62q25 8 33 -17q12 -34 12 -153v-688h266v760q0 199 -45 297t-125 98h-22q-47 0 -100 -30.5t-89 -88.5q-10 60 -51.5 89.5t-87.5 29.5h-10q-50 -3 -99.5 -28.5t-81.5 -70.5v70h-272
v-1126zM348 410v790h-276v-1382h276v256q88 6 129 55v-55h277v1126h-277v-635q0 -158 -76 -192q-21 -9 -37 1t-16 36z" />
    <glyph glyph-name="uni339C" unicode="&#x339c;" 
d="M82 74h229v803q16 68 39 75q15 5 23 -2.5t14 -47.5t6 -120v-708h213v817q15 54 35 61q7 2 11.5 2.5t9.5 -1.5t8 -6.5t6 -13.5t4.5 -22t3 -31.5t2 -42.5t0.5 -55v-708h215v800q0 197 -38.5 276t-119.5 79h-22q-36 0 -80 -34.5t-61 -94.5q-11 68 -43 98.5t-76 30.5h-12
q-41 -4 -80 -28t-58 -71v70h-229v-1126zM979 74h231v803q12 67 39 75q14 5 22 -2.5t13.5 -47.5t5.5 -120v-708h215v817q12 53 37 61q23 7 30 -14q11 -29 11 -156v-708h215v760q0 395 -156 395h-22q-36 0 -80 -34.5t-61 -94.5q-8 69 -41.5 99t-77.5 30h-10q-43 -3 -82 -27.5
t-58 -71.5v70h-231v-1126z" />
    <glyph glyph-name="uni339D" unicode="&#x339d;" 
d="M717 74h293v792q13 68 55 76q14 2 23 -7.5t15.5 -49.5t6.5 -113v-698h276v807q11 50 44 61q18 6 28.5 -2t18.5 -48.5t8 -119.5v-698h276v760q0 197 -49.5 296t-130.5 99h-22q-48 0 -106 -31t-93 -88q-7 41 -34 69.5t-57 39t-59 10.5h-10q-52 -3 -105 -29t-85 -70v70h-293
v-1126zM61 641q0 -135 23.5 -241t59.5 -170t86.5 -107t97 -61t98.5 -23q132 -14 250 49l-60 238q-95 -33 -153 -11q-61 23 -94 108.5t-33 217.5t37 221.5t100 104.5q70 16 143 -4l60 237q-64 33 -118.5 42t-121.5 1q-55 -7 -103 -24.5t-100 -60.5t-88.5 -106.5t-60 -169
t-23.5 -241.5z" />
    <glyph glyph-name="uni339E" unicode="&#x339e;" 
d="M748 1104v-873l-166 494zM539 74h491v792q13 68 55 76q14 2 23 -7.5t15.5 -49.5t6.5 -113v-698h267v807q12 51 43 61q18 6 28.5 -2t18.5 -48.5t8 -119.5v-698h266v760q0 197 -49.5 296t-130.5 99h-22q-47 0 -100 -30.5t-89 -88.5q-7 41 -34 69.5t-56.5 39t-58.5 10.5h-11
q-50 -3 -99 -28.5t-81 -70.5v70h-520l-143 -340v733h-285v-1519h285v288l41 105z" />
    <glyph glyph-name="uni339F" unicode="&#x339f;" 
d="M82 74h229v803q16 68 39 75q15 5 23 -2.5t14 -47.5t6 -120v-708h213v817q15 54 35 61q7 2 11.5 2.5t9.5 -1.5t8 -6.5t6 -13.5t4.5 -22t3 -31.5t2 -42.5t0.5 -55v-708h215v800q0 197 -38.5 276t-119.5 79h-22q-36 0 -80 -34.5t-61 -94.5q-11 68 -43 98.5t-76 30.5h-12
q-41 -4 -80 -28t-58 -71v70h-229v-1126zM979 74h231v803q12 67 39 75q14 5 22 -2.5t13.5 -47.5t5.5 -120v-708h215v817q12 53 37 61q23 7 30 -14q11 -29 11 -156v-708h215v760q0 333 -110 385q52 3 102 16v170q-79 -12 -109 -12h-16q49 46 82 102q21 36 26.5 86.5
t-12.5 95.5q-23 47 -79 77t-119 28q-100 -3 -161.5 -41.5t-86.5 -126.5l160 -86q24 68 69 80q11 3 21 -4t10 -21q0 -33 -47 -88q-48 -58 -172 -149v-117h-6q-43 -3 -82 -27.5t-58 -71.5v70h-231v-1126zM1413 1217h160q-31 -15 -57 -45.5t-37 -71.5q-11 88 -66 117z" />
    <glyph glyph-name="uni33A0" unicode="&#x33a0;" 
d="M717 74h293v792q13 68 55 76q14 2 23 -7.5t15.5 -49.5t6.5 -113v-698h276v807q11 50 44 61q18 6 28.5 -2t18.5 -48.5t8 -119.5v-698h276v760q0 162 -34 258t-93 125q88 0 156 18v170q-79 -12 -109 -12h-16q49 46 82 102q21 36 26.5 86.5t-12.5 95.5q-23 47 -79 77
t-119 28q-100 -3 -161.5 -41.5t-86.5 -126.5l160 -86q24 68 69 80q11 3 21 -4t10 -21q0 -33 -47 -88q-48 -58 -172 -149v-129h137q-83 -28 -133 -107q-7 41 -34 69.5t-57 39t-59 10.5h-10q-52 -3 -105 -29t-85 -70v70h-293v-1126zM61 641q0 -135 23.5 -241t59.5 -170
t86.5 -107t97 -61t98.5 -23q132 -14 250 49l-60 238q-95 -33 -153 -11q-61 23 -94 108.5t-33 217.5t37 221.5t100 104.5q70 16 143 -4l60 237q-64 33 -118.5 42t-121.5 1q-55 -7 -103 -24.5t-100 -60.5t-88.5 -106.5t-60 -169t-23.5 -241.5z" />
    <glyph glyph-name="uni33A1" unicode="&#x33a1;" 
d="M82 74h336v737q22 35 51 55.5t57 20.5q71 3 91 -52t20 -221v-540h328v751q35 57 88 62q69 7 91.5 -48t22.5 -225v-540h330v719q0 167 -74 284h183q103 0 190 21v217q-96 -12 -137 -12h-23q66 60 107 120q24 35 28 99.5t-20 113.5q-29 59 -91.5 93.5t-137.5 33.5
q-117 -3 -190.5 -49t-104.5 -153l184 -107q29 82 82 96q11 5 26 -2.5t15 -21.5q0 -50 -47 -105q-34 -39 -80.5 -77.5t-130.5 -100.5v-41q-73 27 -141 27h-35q-57 0 -120.5 -36t-107.5 -93q-44 65 -101 97t-146 32h-23q-47 -5 -87.5 -25.5t-96.5 -73.5v70h-336v-1126z" />
    <glyph glyph-name="uni33A2" unicode="&#x33a2;" 
d="M1356 1217h276q90 0 158 18v170q-79 -12 -109 -12h-16q49 46 82 102q21 36 26.5 86.5t-12.5 95.5q-23 47 -79 77t-119 28q-100 -3 -161.5 -41.5t-86.5 -126.5l160 -86q24 68 69 80q11 3 21 -4t10 -21q0 -33 -47 -88q-48 -58 -172 -149v-129zM367 362l41 105l131 -393h262
l-219 651l206 475h-278l-143 -340v733h-285v-1519h285v288zM748 74h282v792q13 68 55 76q14 2 23 -7.5t15.5 -49.5t6.5 -113v-698h267v807q12 51 43 61q18 6 28.5 -2t18.5 -48.5t8 -119.5v-698h266v760q0 197 -49.5 296t-130.5 99h-22q-47 0 -100 -30.5t-89 -88.5
q-7 41 -34 69.5t-56.5 39t-58.5 10.5h-11q-50 -3 -99 -28.5t-81 -70.5v70h-282v-1126z" />
    <glyph glyph-name="uni33CA" unicode="&#x33ca;" 
d="M1456 76h291v1124h-291v-80q-18 47 -65.5 73.5t-104.5 31.5q-72 5 -131 -24.5t-106 -96t-75 -183.5t-32 -276q-3 -159 15.5 -272.5t58 -180t92 -98t123.5 -33.5q141 -6 225 113v-98zM1348 375q-62 -7 -93.5 63.5t-31.5 206.5q0 142 33 211.5t100 54.5q94 -21 94 -299
q0 -39 -4 -55q-6 -42 -11 -66t-15.5 -53.5t-28 -44.5t-43.5 -18zM90 74h318v741q25 42 44 60.5t44 19.5q30 2 44.5 -14.5t22.5 -72.5t8 -169v-565h318v708q0 217 -63.5 333t-213.5 116h-6q-49 -3 -105 -27t-93 -61v450h-318v-1519z" />
    <glyph glyph-name="uni338D" unicode="&#x338d;" 
d="M410 471v729h-308v-1382h308v245q55 -4 89.5 5t52 23t48.5 48v-65h307v1126h-307v-604q0 -86 -26.5 -133t-84.5 -60q-33 -8 -56 12t-23 56zM1380 430q-62 -11 -103.5 55.5t-37.5 188.5q4 133 43.5 193.5t97.5 54.5q63 -7 91 -70.5t28 -189.5q0 -211 -119 -232zM1794 266
v932h-301v-70q-20 39 -68.5 66.5t-99.5 30.5q-169 11 -260 -126t-98 -442q-11 -513 336 -530q66 -3 115 20t75 56v-29q0 -34 -2.5 -56t-12 -48.5t-31.5 -45t-56 -28.5q-50 -15 -144 6t-178 64l-68 -289q144 -62 291 -76q137 -12 224.5 12.5t148.5 89.5q75 84 102 189.5
t27 273.5z" />
    <glyph glyph-name="uni338E" unicode="&#x338e;" 
d="M82 74h250v803q16 68 39 75q15 5 23 -2.5t14 -47.5t6 -120v-708h233v817q15 54 35 61q7 2 11.5 2.5t9.5 -1.5t8 -6.5t6 -13.5t4.5 -22t3 -31.5t2 -42.5t0.5 -55v-708h236v800q0 197 -38.5 276t-119.5 79h-23q-39 0 -91.5 -35t-69.5 -94q-11 68 -43 98.5t-76 30.5h-13
q-45 -4 -92 -28.5t-65 -70.5v70h-250v-1126zM1405 410q-71 -13 -110.5 61.5t-34.5 202.5q4 138 43 207.5t102 60.5q62 -9 88.5 -79.5t26.5 -200.5q0 -46 -5.5 -86t-18 -76.5t-36 -60t-55.5 -29.5zM1794 266v934h-281v-72q-21 41 -61 67.5t-88 29.5q-154 9 -246.5 -129.5
t-99.5 -438.5q-3 -134 20.5 -236.5t68.5 -164.5t104 -94t132 -35q65 -3 101.5 15.5t68.5 60.5v-29q0 -167 -98 -190q-53 -12 -148 8.5t-177 62.5l-68 -278q139 -60 311 -76q230 -19 332 102q73 88 101 193.5t28 269.5z" />
    <glyph glyph-name="uni338F" unicode="&#x338f;" 
d="M1370 430q-68 -12 -122 52t-50 192q2 76 18.5 129t43 78.5t53.5 34.5t57 6q129 -15 129 -260q0 -92 -32.5 -156.5t-96.5 -75.5zM1794 266v932h-301v-70q-19 38 -77 66t-111 31q-77 5 -145.5 -25.5t-125 -96.5t-91 -180.5t-38.5 -265.5q-3 -134 25.5 -236.5t82 -164
t121 -93.5t148.5 -36q67 -3 127 21t84 55v-29q0 -34 -2.5 -56t-12 -48.5t-31.5 -45t-56 -28.5q-50 -15 -144 6t-178 64l-68 -289q144 -62 291 -76q137 -12 224.5 12.5t148.5 89.5q75 84 102 189.5t27 273.5zM408 373l61 84l203 -383h334l-332 600l299 526h-320l-245 -401
v794h-326v-1519h326v299z" />
    <glyph glyph-name="uni33CF" unicode="&#x33cf;" 
d="M1126 1200h-421l-287 -401v794h-336v-1519h336v299l61 84l244 -383h344l-373 600l248 383v-176h184v-400q0 -165 44.5 -260t148.5 -137q95 -33 196 -26t185 46l-49 304q-48 -17 -74.5 -20t-48.5 5q-32 12 -43.5 44t-11.5 100v344h229v319h-229v393h-347v-393z" />
    <glyph glyph-name="uni3388" unicode="&#x3388;" 
d="M827 375q-32 -4 -49.5 12t-27.5 77t-9 181q1 103 11 164.5t28.5 85t46.5 16.5q33 -9 46.5 -84t13.5 -215v-55q-6 -175 -60 -182zM1415 819q12 121 21 190.5t19 115t21 60t27 11.5q58 -10 10 -360q-34 -220 -100 -379q-8 212 2 362zM305 641q0 156 21.5 235t74.5 105
q34 12 51.5 10.5t51.5 -12.5l59 231q-116 61 -235 27q-122 -35 -194.5 -180t-72.5 -416t72.5 -416t194.5 -180q119 -34 235 27l-59 231q-34 -11 -51.5 -12.5t-51.5 10.5q-53 26 -74.5 105t-21.5 235zM891 74h254q68 0 117 35q30 -104 97 -157.5t152 -51.5q83 1 161.5 67.5
t121.5 163.5l-143 205q-57 -113 -156 -182l-12 30q133 139 209 365q59 178 75 412.5t-18 386.5q-54 249 -256 231q-68 -6 -120 -55t-101 -146q-82 -181 -92 -536q-7 -196 14 -469q-32 -16 -82 -19v846h-221v-74q-35 96 -123 99q-50 2 -91 -27.5t-73.5 -96t-52 -182
t-23.5 -274.5q-11 -581 215 -584q105 -2 148 93v-80z" />
    <glyph glyph-name="uni3389" unicode="&#x3389;" horiz-adv-x="2048" 
d="M1204 375q-21 -3 -32.5 4t-20.5 35.5t-12 83t-2 147.5q0 238 42 264q10 6 25 2q30 -8 38.5 -78t8.5 -221v-55q-3 -176 -47 -182zM1696 819q9 121 16 190.5t15 115t17.5 60t22.5 11.5q53 -11 11 -360q-30 -220 -84 -379q-4 233 2 362zM766 641q0 140 26 231.5t60 118.5
q32 22 82 8l47 226q-113 44 -199 12q-100 -38 -165.5 -183.5t-65.5 -412.5t70 -417t172 -179q39 -13 95.5 -8.5t92.5 29.5l-49 227q-38 -13 -72 4q-35 20 -64.5 112t-29.5 232zM289 362l26 74l95 -362h217l-195 610l182 516h-223l-102 -360v753h-205v-1519h205v288zM1255 74
h207q58 0 101 35q27 -104 84.5 -157.5t130.5 -51.5q70 1 136.5 67.5t104.5 163.5l-123 205q-53 -119 -135 -182l-12 30q60 70 102.5 156t79.5 209q51 179 65 413t-16 386q-26 132 -84 185.5t-137 45.5q-57 -6 -101 -55t-87 -146q-75 -191 -78 -536q-5 -201 10 -469
q-26 -13 -63 -19v846h-185v-74q-28 96 -106 99q-43 2 -77.5 -27.5t-62.5 -96t-44.5 -182t-20.5 -274.5q-3 -210 19 -342t62 -186.5t101 -55.5q95 -3 129 93v-80z" />
    <glyph glyph-name="uni33C8" unicode="&#x33c8;" 
d="M397 57q136 6 185 107v-90h311v1519h-311v-467q-35 49 -78.5 72t-106.5 23q-148 2 -232.5 -141.5t-90.5 -448.5q-3 -157 20 -272t68 -180.5t103.5 -95t131.5 -26.5zM481 371q-59 -9 -89 55t-30 215q0 137 29.5 205.5t81.5 60.5q96 -14 96 -297q0 -96 -25 -164.5
t-63 -74.5zM1006 74h409q170 0 262.5 94.5t112.5 298.5q13 139 -35.5 253t-161.5 165q89 38 128 138.5t30 209.5q-14 178 -100.5 269t-270.5 91h-374v-1519zM1311 1292h71q41 0 68 -38.5t27 -94.5q0 -60 -24 -98.5t-69 -38.5h-73v270zM1311 713h73q61 0 95 -46t34 -122
q0 -170 -133 -170h-69v338z" />
    <glyph glyph-name="uni33A7" unicode="&#x33a7;" 
d="M1630 25q163 57 185 233q19 206 -148 289q-40 26 -116.5 59.5t-102.5 52.5q-17 11 -19.5 32t8.5 37t27 13q88 -6 199 -86l133 215q-163 144 -346 138q-142 -6 -217 -78l240 645l-269 111l-291 -777v342q0 207 -39.5 289t-125.5 82h-27q-36 0 -79 -36.5t-54 -98.5
q-10 71 -41.5 103t-73.5 32h-14q-43 -4 -79.5 -28.5t-47.5 -73.5v73h-242v-983h242v643q5 75 37 80q11 2 17.5 -7.5t10.5 -50t4 -120.5v-545h217v658q6 59 33 65q12 2 17.5 -2t9.5 -24.5t5 -53.5t1 -98v-545h119l-197 -522l271 -111l266 713q3 -69 33 -125.5t81 -85.5
q58 -43 141.5 -81.5t98.5 -47.5q23 -11 29.5 -35t-7 -41t-40.5 -10q-108 19 -260 115l-105 -234q117 -94 240 -120q182 -33 276 0z" />
    <glyph glyph-name="uni33A8" unicode="&#x33a8;" 
d="M1630 25q163 57 185 233q19 206 -148 289q-40 26 -116.5 59.5t-102.5 52.5q-17 11 -19.5 32t8.5 37t27 13q88 -6 199 -86l133 215q-163 144 -346 138q-174 -6 -250 -115l139 749l-284 62l-142 -752v299q0 207 -39.5 289t-125.5 82h-27q-36 0 -79 -36.5t-54 -98.5
q-10 71 -41.5 103t-73.5 32h-14q-43 -4 -79.5 -28.5t-47.5 -73.5v73h-242v-983h242v643q5 75 37 80q11 2 17.5 -7.5t10.5 -50t4 -120.5v-545h217v658q6 59 33 65q12 2 17.5 -2t9.5 -24.5t5 -53.5t1 -98v-545h166l-111 -590l287 -61l125 670q25 -103 106 -150
q58 -43 141.5 -81.5t98.5 -47.5q23 -11 29.5 -35t-7 -41t-40.5 -10q-108 19 -260 115l-105 -234q117 -94 240 -120q182 -33 276 0zM1370 1051h270q113 0 166 12v186q-53 -8 -108 -8h-10q22 22 73 92q20 23 26 74t-11 92q-26 58 -75.5 88.5t-111.5 30.5q-81 0 -137.5 -37
t-110.5 -125l138 -104q25 34 41 47t36 14q20 0 23 -20q2 -27 -47 -76q-59 -54 -162 -121v-145z" />
    <glyph glyph-name="uni33B0" unicode="&#x33b0;" 
d="M614 57q162 -5 263.5 141.5t97.5 430.5q-3 296 -91 447.5t-270 142.5q-70 -3 -119.5 -29.5t-91.5 -89.5v100h-321v-1382h321v336q27 -44 82 -70t129 -27zM535 360q-53 6 -86 70t-33 176q0 137 36 219.5t99 89.5q61 7 91 -63t30 -213q0 -295 -137 -279zM1571 55
q191 73 213 281q23 224 -154 354q-52 38 -119.5 78t-87.5 53q-23 16 -26.5 36.5t10.5 33.5t37 10q56 -7 96.5 -22.5t110.5 -63.5l108 293q-182 144 -387 135q-256 -11 -323 -231q-41 -123 -9.5 -246t115.5 -174q52 -32 124.5 -74t104.5 -61q24 -15 28.5 -39.5t-12.5 -40.5
t-46 -8q-27 5 -51 11t-52 16.5t-46 17.5t-57.5 24t-62.5 27l-96 -307q121 -69 275 -105q196 -40 307 2z" />
    <glyph glyph-name="uni33B1" unicode="&#x33b1;" 
d="M1571 55q90 34 143.5 97.5t69.5 173.5q29 208 -150 352q-39 31 -73.5 55t-76 49.5t-61.5 38.5q-23 16 -26.5 36.5t10.5 33.5t37 10q53 -6 88 -21t108 -65l109 293q-181 143 -367 135q-250 -11 -317 -231q-39 -125 -6.5 -239t117.5 -177q40 -30 77.5 -54t84 -50t67.5 -39
q24 -15 28 -39.5t-13 -40.5t-46 -8q-43 7 -77 19.5t-89 39t-92 41.5l-96 -307q135 -77 254 -105q99 -20 161.5 -20.5t135.5 22.5zM102 74h338v700q17 53 35 76.5t55 26.5q21 0 34 -6.5t26 -28.5t19.5 -71t6.5 -126v-571h338v760q0 202 -73.5 296.5t-198.5 96.5h-18
q-120 -3 -224 -92v65h-338v-1126z" />
    <glyph glyph-name="uni33B2" unicode="&#x33b2;" 
d="M1571 55q90 34 143.5 97.5t69.5 173.5q29 208 -150 352q-39 31 -73.5 55t-76 49.5t-61.5 38.5q-23 16 -26.5 36.5t10.5 33.5t37 10q53 -6 88 -21t108 -65l109 293q-181 143 -367 135q-250 -11 -317 -231q-39 -125 -6.5 -239t117.5 -177q40 -30 77.5 -54t84 -50t67.5 -39
q24 -15 28 -39.5t-13 -40.5t-46 -8q-43 7 -77 19.5t-89 39t-92 41.5l-96 -307q135 -77 254 -105q99 -20 161.5 -20.5t135.5 22.5zM420 471v729h-318v-1382h318v245q153 -11 231 76v-65h318v1126h-318v-604q-3 -79 -45.5 -128.5t-105.5 -64.5q-33 -8 -56.5 12t-23.5 56z" />
    <glyph glyph-name="uni33B3" unicode="&#x33b3;" 
d="M82 74h274v803q9 37 17 54t24 21q15 5 23.5 -2.5t15 -47.5t6.5 -120v-708h254v817q15 54 37 61q26 8 35 -16q12 -32 12 -154v-708h258v800q0 355 -176 355h-24q-41 0 -96.5 -35t-73.5 -94q-11 66 -49 97.5t-84 31.5h-13q-48 -4 -98 -28.5t-68 -70.5v70h-274v-1126z
M1573 55q81 29 129.5 92.5t62.5 174.5q13 105 -20.5 186.5t-114.5 153.5q-45 41 -112 93t-82 64q-19 17 -22.5 39t8.5 36t32 11q48 -7 83 -22.5t99 -63.5l99 289q-163 143 -330 135q-225 -11 -285 -231q-34 -126 -5 -231t106 -171q46 -39 115 -87t94 -68q21 -17 25 -43
t-10.5 -43t-39.5 -9q-39 7 -70.5 19.5t-85.5 40t-84 41.5l-86 -303q120 -77 230 -105q85 -19 145 -19t119 21z" />
    <glyph glyph-name="uni33B4" unicode="&#x33b4;" horiz-adv-x="2048" 
d="M614 57q160 -5 257.5 140.5t93.5 431.5q-3 291 -94 447t-257 143q-128 -11 -200 -119v100h-312v-1382h312v336q58 -94 200 -97zM535 360q-52 6 -80.5 69t-28.5 177q0 139 31.5 220.5t93.5 88.5q61 7 91 -63t30 -213q0 -295 -137 -279zM1225 72h393l379 1521h-373
l-203 -1024l-202 1024h-373z" />
    <glyph glyph-name="uni33B5" unicode="&#x33b5;" horiz-adv-x="2048" 
d="M102 74h318v700q16 49 39 74.5t61 28.5q27 0 41.5 -12t24.5 -64.5t10 -155.5v-571h317v760q0 390 -262 393h-18q-108 -3 -213 -92v65h-318v-1126zM1225 72h393l379 1521h-373l-203 -1024l-202 1024h-373z" />
    <glyph glyph-name="uni33B6" unicode="&#x33b6;" horiz-adv-x="2048" 
d="M420 471v729h-318v-1382h318v245q55 -4 89.5 5t52 23t48.5 48v-65h318v1126h-318v-604q0 -86 -26 -133t-84 -60q-33 -8 -56.5 12t-23.5 56zM1235 72h393l369 1521h-373l-192 -1024l-203 1024h-373z" />
    <glyph glyph-name="uni33B7" unicode="&#x33b7;" horiz-adv-x="2048" 
d="M82 74h270v803q16 68 39 75q15 5 23 -2.5t14 -47.5t6 -120v-708h254v817q15 54 35 61q7 2 11.5 2.5t9.5 -1.5t8 -6.5t6 -13.5t4.5 -22t3 -31.5t2 -42.5t0.5 -55v-708h256v800q0 193 -47 274t-131 81h-23q-39 0 -91.5 -35t-69.5 -94q-11 66 -52 97.5t-88 31.5h-12
q-45 -4 -92.5 -28.5t-65.5 -70.5v70h-270v-1126zM1286 72h393l318 1521h-352l-162 -1024l-162 1024h-352z" />
    <glyph glyph-name="uni33B8" unicode="&#x33b8;" horiz-adv-x="2048" 
d="M397 342l58 96l196 -364h355l-359 606l324 514l264 -1122h393l359 1521h-373l-182 -1024l-183 1024h-372l92 -393h-336l-236 -360v753h-315v-1519h315v268z" />
    <glyph glyph-name="uni33B9" unicode="&#x33b9;" horiz-adv-x="2048" 
d="M1391 1593h-623l-160 -1013h-10l-117 1013h-358l-84 -1519h293l8 923h10l142 -923h225l141 923h10l9 -923h292l-82 1474l289 -1474h353l296 1519h-311l-162 -1083z" />
    <glyph glyph-name="uni3380" unicode="&#x3380;" horiz-adv-x="2048" 
d="M584 57q158 -5 251 144t89 438q-3 281 -98 435t-242 145q-67 -5 -107 -29.5t-84 -89.5v100h-301v-1382h301v336q58 -94 191 -97zM504 360q-52 6 -80.5 69t-28.5 177q0 139 31.5 220.5t93.5 88.5q60 7 85.5 -61.5t25.5 -214.5q0 -153 -31.5 -220t-95.5 -59zM1966 74
l-354 1519h-363l-358 -1519h328l75 297h279l63 -297h330zM1438 1149l71 -451h-151z" />
    <glyph glyph-name="uni3381" unicode="&#x3381;" horiz-adv-x="2048" 
d="M102 74h318v700q16 49 39 74.5t61 28.5q27 0 41.5 -12t24.5 -64.5t10 -155.5v-571h317v760q0 390 -262 393h-18q-108 -3 -213 -92v65h-318v-1126zM1966 74l-344 1519h-362l-328 -1519h323l68 309h242l75 -309h326zM1448 1149l72 -451h-152z" />
    <glyph glyph-name="uni3382" unicode="&#x3382;" horiz-adv-x="2048" 
d="M1448 1149l72 -451h-152zM621 74h634l68 309h242l75 -309h326l-344 1519h-362l-322 -1491v1098h-317v-604q0 -86 -26.5 -133t-84.5 -60q-33 -8 -61.5 12t-28.5 56v729h-318v-1382h318v245q51 -4 83 4t46.5 19.5t41.5 42.5l3 3l3 3t3 4z" />
    <glyph glyph-name="uni3383" unicode="&#x3383;" horiz-adv-x="2048" 
d="M1966 74l-324 1519h-301l-307 -1519h297l60 309h208l68 -309h299zM1499 1149l57 -451h-122zM92 74h270v803q16 68 39 75q15 5 23 -2.5t14 -47.5t6 -120v-708h254v817q15 54 35 61q7 2 11.5 2.5t9.5 -1.5t8 -6.5t6 -13.5t4.5 -22t3 -31.5t2 -42.5t0.5 -55v-708h256v800
q0 133 -21.5 213.5t-57 111t-89.5 30.5h-22q-40 0 -97.5 -35t-74.5 -94q-11 67 -47.5 98t-81.5 31h-13q-47 -4 -98.5 -29t-69.5 -70v70h-270v-1126z" />
    <glyph glyph-name="uni3384" unicode="&#x3384;" horiz-adv-x="2048" 
d="M1438 1149l71 -451h-151zM651 74h584l68 297h262l75 -297h326l-354 1519h-363l-317 -1427l-279 498l320 536h-340l-236 -360v753h-315v-1519h315v268l52 84z" />
    <glyph glyph-name="uni33BA" unicode="&#x33ba;" horiz-adv-x="2048" 
d="M518 57q127 -5 208 146t77 436q-3 283 -81 436t-204 144q-66 -5 -101.5 -30t-64.5 -89v100h-270v-1382h270v336q23 -50 58.5 -72t107.5 -25zM438 360q-37 5 -60.5 69.5t-23.5 176.5q0 137 27 219.5t74 89.5q49 7 72.5 -63t23.5 -213q0 -152 -28 -218.5t-85 -60.5z
M1546 1593h-356l-82 -1073h-6l-60 1073h-286l170 -1519h331l105 1063h14l103 -1063h352l160 1519h-297l-58 -1073h-6z" />
    <glyph glyph-name="uni33BB" unicode="&#x33bb;" horiz-adv-x="2048" 
d="M1546 1593h-356l-82 -1083h-6l-60 1083h-286l170 -1519h331l105 1063h14l103 -1063h352l160 1519h-297l-58 -1083h-6zM92 74h266v700q5 43 32.5 73t47.5 30q12 0 21 -3t20 -17t18 -37.5t12 -68t5 -106.5v-571h266v760q0 198 -63.5 295.5t-157.5 97.5h-18q-44 0 -94 -22.5
t-89 -69.5v65h-266v-1126z" />
    <glyph glyph-name="uni33BC" unicode="&#x33bc;" horiz-adv-x="2048" 
d="M1546 1593h-356l-82 -1114h-6l-60 1114h-286l43 -393h-260v-625q0 -81 -32 -131t-79 -61q-26 -6 -48 13.5t-22 54.5v749h-276v-1382h276v245q51 6 103.5 24.5t77.5 51.5v-65h266v1077l121 -1077h331l105 1063h14l103 -1063h352l160 1519h-297l-58 -1114h-6z" />
    <glyph glyph-name="uni33BD" unicode="&#x33bd;" horiz-adv-x="2048" 
d="M1577 1593h-274l-82 -1114h-7l-59 1114h-256l150 -1519h301l84 1063h14l82 -1063h321l140 1519h-267l-57 -1114h-6zM82 74h229v803q16 68 39 75q8 1 15.5 1.5t14 -9.5t12 -27.5t8.5 -52t3 -82.5v-708h213v817q15 54 35 61q10 2 18.5 2t15.5 -9.5t12 -28t7.5 -52
t2.5 -82.5v-708h215v800q0 133 -21.5 213.5t-57 111t-89.5 30.5h-23q-36 0 -80 -34.5t-61 -94.5q-11 68 -43 98.5t-76 30.5h-12q-43 -4 -86.5 -28.5t-61.5 -70.5v70h-229v-1126z" />
    <glyph glyph-name="uni33BE" unicode="&#x33be;" horiz-adv-x="2048" 
d="M1542 1593h-348l-86 -1093h-6l-60 1093h-286l43 -393h-207l-225 -360v753h-285v-1519h285v288l53 87l190 -375h303l-311 610l213 369l111 -979h331l105 1063h14l103 -1063h352l160 1519h-297l-58 -1093h-6z" />
    <glyph glyph-name="uni33BF" unicode="&#x33bf;" horiz-adv-x="2048" 
d="M1612 1593h-273l-96 -1155h-8l6 1155h-266l106 -1519h310l82 1104h8l80 -1104h329l99 1519h-277l6 -1155h-8zM412 74h198l117 985h4l-20 -985h254l-60 1519h-272l-121 -1075h-4l-86 1075h-305l-60 -1519h254l-20 985h4z" />
    <glyph glyph-name="uni3390" unicode="&#x3390;" 
d="M102 1593v-1519h334v628h223v-628h334v1519h-334v-573h-223v573h-334zM1509 74q171 0 252 18v303q-61 -12 -198 -12h-101l289 700v117h-653v-309h256l-273 -672v-145h428z" />
    <glyph glyph-name="uni3391" unicode="&#x3391;" 
d="M707 184l-177 682l177 678v-1360zM1550 74q129 0 191 18v283q-49 -13 -117 -13h-39l146 721v117h-377v-289h123l-140 -692v-145h213zM948 1593h-440l-170 -678v678h-236v-1519h236v368l49 199l145 -567h416v649h111v-649h241v1519h-241v-573h-111v573z" />
    <glyph glyph-name="uni3392" unicode="&#x3392;" 
d="M870 1593v-1519h201v649h100v-649h201v1519h-201v-594h-100v594h-201zM1602 74q128 0 190 18v262q-45 -12 -117 -12h-39l146 741v117h-336v-268h113l-129 -713v-145h172zM381 74h147l95 923h8l-21 -923h197l-31 1519h-213l-108 -1013h-2l-78 1013h-242l-31 -1519h197
l-20 923h8z" />
    <glyph glyph-name="uni3393" unicode="&#x3393;" 
d="M799 1593v-1519h221v680h110v-680h222v1519h-222v-573h-110v573h-221zM1591 74q119 0 181 18v273q-49 -13 -117 -13h-39l145 731v117h-346v-278h119l-135 -703v-145h192zM494 340q-24 -41 -61.5 -44t-67.5 28q-36 35 -53 153t-17 354q0 150 8 253t25 163.5t39.5 87.5
t54.5 31q92 11 115 -192l194 45q-19 165 -56 243.5t-124 128.5q-33 19 -86.5 25.5t-113.5 -7.5t-99 -50q-95 -88 -137.5 -260.5t-42.5 -467.5q0 -571 164 -714q118 -103 249 -72q155 37 209 248q22 85 28.5 200.5t6.5 301.5v149h-321v-252h124q0 -286 -38 -352z" />
    <glyph glyph-name="uni3394" unicode="&#x3394;" 
d="M918 1593h-846v-274h182v-1245h260v1259h162v-1259h242v649h120v-649h242v1519h-242v-573h-120v573zM1550 74q129 0 191 18v283q-49 -13 -117 -13h-39l146 721v117h-377v-289h123l-140 -692v-145h213z" />
    <glyph glyph-name="Omega" unicode="&#x2126;" horiz-adv-x="1562" 
d="M1241 74q148 0 232 16v303q-72 -10 -179 -10h-82v72q120 67 189 200.5t69 319.5q0 135 -44 252.5t-127.5 207.5t-217 141.5t-301.5 51.5t-301.5 -51.5t-217 -141.5t-127.5 -207.5t-44 -252.5q0 -186 69 -319.5t189 -200.5v-72h-266v-309h610v608h-8q-256 47 -256 313
q0 137 96.5 226.5t255.5 89.5q160 0 256.5 -90t96.5 -226q0 -266 -256 -313h-9v-608h373z" />
    <glyph glyph-name="uni33C0" unicode="&#x33c0;" 
d="M731 940q9 -155 70 -274.5t166 -190.5v-133h-219l-177 322zM600 74h588v567h-8q-84 30 -129 124.5t-45 229.5q0 93 25.5 172t83.5 132t140 53t140.5 -53t84 -132t25.5 -172q0 -135 -45 -229.5t-129 -124.5h-8v-567h250q106 0 190 16v262q-72 -10 -137 -10h-82v133
q114 77 176 211.5t62 308.5q0 286 -139.5 459.5t-387.5 173.5q-199 0 -329.5 -114.5t-175.5 -313.5h-168l-236 -381v774h-285v-1519h285v288l51 84z" />
    <glyph glyph-name="uni33C1" unicode="&#x33c1;" 
d="M391 74h180l113 923h8l-22 -923h233l-37 1519h-254l-129 -1013h-6l-94 1013h-287l-37 -1519h234l-23 923h9zM1104 475v-133h-123v-268h324v551l-7 16q-66 29 -92 116.5t-26 237.5q0 191 42.5 274t125.5 83t125.5 -84.5t42.5 -272.5q0 -149 -26.5 -237t-92.5 -117l-6 -16
v-551h211q25 0 39.5 0.5t28 2t18.5 2.5t20.5 5t24.5 6v262q-57 -10 -111 -10h-31v133q166 156 166 520q0 312 -104 472.5t-305 160.5t-305.5 -160.5t-104.5 -472.5q0 -360 166 -520z" />
    <glyph glyph-name="uni338A" unicode="&#x338a;" 
d="M573 57q159 -5 251.5 139.5t88.5 432.5q-3 302 -82 450.5t-258 139.5q-64 -3 -99 -27t-81 -92v100h-311v-1382h311v336q29 -47 69.5 -71.5t110.5 -25.5zM494 360q-49 6 -68.5 65.5t-19.5 180.5q0 149 22.5 225.5t81.5 83.5q60 7 85.5 -61.5t25.5 -214.5
q0 -153 -31.5 -220t-95.5 -59zM971 74h366v569h56h34h36.5h33.5t35.5 0.5t33 1.5t35 2t31 2.5t32.5 3.5t28.5 5t29.5 6v317q-98 -12 -284 -12h-101v297h424v327h-790v-1519z" />
    <glyph glyph-name="uni338B" unicode="&#x338b;" 
d="M102 74h318v700q2 5 6.5 19.5t6 18t5.5 15t6.5 14.5t7 11t9 10.5t10.5 6.5t13 5.5t16 2.5q19 0 28.5 -5.5t16.5 -30.5t8.5 -68.5t1.5 -127.5v-571h317v760q0 207 -60 299t-181 94h-19q-54 -1 -93 -21t-99 -71v65h-318v-1126zM971 74h366v569h56h34h36.5h33.5t35.5 0.5
t33 1.5t35 2t31 2.5t32.5 3.5t28.5 5t29.5 6v317q-98 -12 -284 -12h-101v297h424v327h-790v-1519z" />
    <glyph glyph-name="uni338C" unicode="&#x338c;" 
d="M410 471v729h-308v-1382h308v245q51 -4 83 4t46.5 19.5t41.5 42.5l3 3l3 3t3 4v-65h307v1126h-307v-604q0 -88 -22.5 -134t-78.5 -59q-33 -8 -56 12t-23 56zM1001 74h367v569h66h33h33h29t30 0.5t27 1.5t29 2t25.5 2.5t28 3.5t25.5 5l28 6v317q-98 -12 -243 -12h-111v297
h393v327h-760v-1519z" />
    <glyph glyph-name="uni33D6" unicode="&#x33d6;" 
d="M1546 819q10 130 15.5 192t13 112t16 63t21.5 10q14 -3 19.5 -35.5t1.5 -112t-19 -212.5q-25 -208 -78 -379q-5 132 10 362zM61 74h207v803q3 66 31 75q17 6 24 -24q9 -39 9 -166v-688h190v817q6 52 29 61q17 6 25 -25q10 -40 10 -165v-688h194v800q0 136 -14.5 214
t-42.5 109.5t-76 31.5h-20q-33 0 -73 -34.5t-54 -94.5q-22 129 -109 129h-10q-82 -8 -113 -99v70h-207v-1126zM1061 328q-32 0 -42.5 61t-10.5 248q0 101 2 157t8 92.5t15.5 48t27.5 11.5t28 -11t16 -48.5t7.5 -92t1.5 -157.5q0 -189 -10 -249t-43 -60zM1055 45h96
q196 0 260 64q31 -114 78.5 -162.5t114.5 -46.5q68 1 135.5 68t101.5 163l-117 205q-45 -114 -125 -182l-10 30q107 136 170 365q47 179 60 412.5t-15 386.5q-23 132 -78 185.5t-129 45.5q-53 -6 -88 -51.5t-79 -149.5q-66 -176 -76 -536q-7 -278 6 -510q-38 -30 -80 -41
q25 134 25 346q0 232 -26.5 362t-77.5 180t-140 50q-61 0 -103.5 -27.5t-75 -93t-48 -182.5t-15.5 -289q0 -226 27.5 -357.5t77 -182t131.5 -52.5z" />
    <glyph glyph-name="uni33C5" unicode="&#x33c5;" 
d="M391 641q0 133 57.5 203.5t137.5 70.5q66 0 104 -9t88 -40l70 285q-75 56 -138.5 74t-172.5 18q-74 0 -140 -19.5t-127.5 -64.5t-106 -113t-71 -171.5t-26.5 -233.5q0 -134 26.5 -239t70.5 -172.5t105.5 -111t127.5 -61.5t141 -18q110 0 179 22t132 70l-70 285
q-49 -29 -88.5 -39t-103.5 -10q-82 0 -138.5 66.5t-56.5 207.5zM1217 57q145 6 194 107v-90h332v1519h-332v-467q-68 95 -194 95q-74 1 -138.5 -33t-117 -103t-84.5 -185.5t-35 -268.5q-2 -125 18 -225.5t56 -165.5t85.5 -108t103.5 -60t112 -15zM1300 371q-31 -5 -56 4
t-47 36.5t-34 85.5t-12 144q0 153 40.5 214t100.5 52q51 -8 79 -85t28 -212q0 -93 -30 -163t-69 -76z" />
    <glyph glyph-name="uni33AD" unicode="&#x33ad;" horiz-adv-x="2048" 
d="M1559 57q59 3 85 26.5t50 80.5v-90h272v1519h-272v-467q-38 58 -54 71q-29 24 -81 24q-130 2 -193.5 -138t-69.5 -452q-3 -211 28.5 -342t89 -183.5t145.5 -48.5zM1634 371q-28 -9 -47.5 15.5t-30 88.5t-10.5 166q0 138 21.5 206.5t58.5 59.5q57 -13 57 -297
q0 -98 -13 -165t-36 -74zM1014 74h252v1126h-252v-74q-15 41 -50.5 68t-82.5 31q-117 10 -195.5 -131t-85.5 -449q-2 -126 10 -225.5t34.5 -165.5t56 -109.5t71.5 -63t84 -20.5q59 -1 99 25t59 68v-80zM940 375q-33 -4 -52.5 11.5t-32 78t-11.5 180.5q1 101 13.5 164t33 86
t49.5 16q70 -18 70 -299v-55q-3 -85 -23 -132t-47 -50zM612 1210h-37q-124 -15 -190 -61v51h-283v-1126h283v753q58 45 195 45h32v338z" />
    <glyph glyph-name="uni33AE" unicode="&#x33ae;" horiz-adv-x="2048" 
d="M977 74l199 -88l270 702q-3 -75 23 -137.5t73 -93.5q46 -40 110.5 -74.5t78.5 -46.5q20 -11 24.5 -34t-7.5 -39t-34 -9q-82 18 -205 108l-84 -221q88 -88 195 -116q144 -30 217 0q134 56 150 223q18 194 -119 272q-31 24 -91.5 56t-80.5 51q-14 9 -16 29.5t6 36t20 12.5
q71 -7 158 -82l108 204q-128 134 -274 131q-106 -6 -172 -65l266 686l-217 92l-338 -905v928h-193v-236q-14 31 -35.5 40.5t-58.5 6.5q-68 -6 -107.5 -92.5t-51.5 -271.5v348h-166v-31q-31 51 -88 45q-77 -7 -119 -123v119h-37q-45 -3 -94 -45v35h-205v-868h205v610
q38 31 100 31q-15 -83 -18 -199q-8 -446 163 -453q35 -1 58.5 16.5t34.5 41.5v-47h166v251q10 -141 49.5 -202t113.5 -64q27 -1 53.5 18.5t36.5 41.5v-45h138zM1012 854q-11 -3 -21.5 15t-19 68t-8.5 124q2 78 10 125.5t17 60t18 10.5q32 -8 32 -221q0 -170 -28 -182z
M590 858q-15 -2 -24.5 9t-16.5 59.5t-6 136.5q1 51 4 88.5t7 59t9.5 33.5t11 15t11.5 1q45 -10 37 -222v-41q-6 -135 -33 -139z" />
    <glyph glyph-name="uni33AF" unicode="&#x33af;" horiz-adv-x="2048" 
d="M1616 1014h227q99 0 142 12v178q-43 -8 -91 -8h-10q35 38 62 88q19 20 24.5 68t-10.5 88q-23 55 -65 83.5t-95 28.5q-67 0 -115 -35t-92 -118l117 -101q23 34 36 46.5t30 13.5q14 0 14 -21q3 -31 -35 -69q-48 -48 -139 -115v-139zM1092 10l211 -51l143 733
q-5 -77 21 -140.5t75 -94.5q46 -40 110.5 -74.5t78.5 -46.5q20 -11 24.5 -34t-7.5 -39t-34 -9q-82 18 -205 108l-84 -221q88 -88 195 -116q144 -30 217 0q134 56 150 223q18 194 -119 272q-31 24 -91.5 56t-80.5 51q-14 9 -16 29.5t6 36t20 12.5q71 -7 158 -82l108 204
q-128 134 -274 131q-178 -8 -232 -165l170 849l-229 52l-170 -910v910h-193v-236q-14 31 -35.5 40.5t-58.5 6.5q-68 -6 -107.5 -92.5t-51.5 -271.5v348h-166v-31q-31 51 -88 45q-77 -7 -119 -123v119h-37q-45 -3 -94 -45v35h-205v-868h205v610q38 31 100 31
q-15 -83 -18 -199q-8 -446 163 -453q35 -1 58.5 16.5t34.5 41.5v-47h166v251q10 -141 49.5 -202t113.5 -64q27 -1 53.5 18.5t36.5 41.5v-45h162zM1012 854q-11 -3 -21.5 15t-19 68t-8.5 124q2 78 10 125.5t17 60t18 10.5q32 -8 32 -221q0 -170 -28 -182zM590 858
q-15 -2 -24.5 9t-16.5 59.5t-6 136.5q1 51 4 88.5t7 59t9.5 33.5t11 15t11.5 1q45 -10 37 -222v-41q-6 -135 -33 -139z" />
    <glyph glyph-name="uni33DB" unicode="&#x33db;" 
d="M774 55q231 67 256 281q17 116 -34 201.5t-167 150.5q-60 33 -154.5 74t-133.5 63q-38 21 -48 49.5t11 45t61 6.5q52 -12 81 -21t75 -30t100 -54l178 250q-223 172 -454 172q-109 0 -185.5 -31t-117.5 -79t-70 -121q-43 -117 -1 -237.5t134 -176.5q63 -38 120 -65.5
t112 -50t84 -36.5q32 -14 40.5 -42.5t-10.5 -49t-55 -12.5q-56 8 -118 30t-100.5 41t-127.5 66l-144 -278q89 -62 159.5 -98t144.5 -50q121 -20 199 -20t165 22zM1696 1210h-58q-124 -15 -190 -61v51h-344v-1126h344v753q58 45 194 45h54v338z" />
    <glyph glyph-name="uni33A9" unicode="&#x33a9;" horiz-adv-x="2048" 
d="M1651 76h291v1124h-291v-80q-17 45 -73.5 72.5t-117.5 32.5q-73 5 -141 -24.5t-127 -95.5t-96 -184.5t-41 -275.5q-3 -139 25 -252t77 -183t111.5 -108.5t132.5 -40.5q76 -3 142.5 26.5t107.5 86.5v-98zM1511 375q-74 -8 -119.5 65t-45.5 205q0 138 48 212t126 54
q63 -15 94 -86t31 -213q0 -35 -5 -55q-10 -71 -44 -123.5t-85 -58.5zM102 1593v-1519h322v463h145q232 0 355 137.5t123 384.5q0 119 -27.5 213.5t-87 168t-161.5 113t-243 39.5h-426zM424 862v404h156q83 0 123 -55t40 -144q0 -85 -40.5 -145t-127.5 -60h-151z" />
    <glyph glyph-name="uni33AA" unicode="&#x33aa;" 
d="M1415 324q-53 -8 -79.5 69t-20.5 252q3 129 16 202t35 99t57 17q74 -21 74 -299q0 -150 -2 -158q-10 -84 -26 -130.5t-54 -51.5zM696 184l-170 682l170 672v-1354zM926 811v506h43q39 0 65 -36t36.5 -90t10.5 -124q0 -256 -114 -256h-41zM938 1593h-440l-162 -678v678
h-234v-1519h234v368l49 199l133 -567h408v463h45q87 0 155 59q1 -132 12.5 -228.5t30 -153t47.5 -91t57 -47t66 -15.5q53 -5 105.5 25.5t77.5 87.5v-98h192v1124h-192v-80q-17 48 -54.5 75t-83.5 30q-68 3 -118 -35q-22 186 -106.5 294.5t-221.5 108.5z" />
    <glyph glyph-name="uni33AB" unicode="&#x33ab;" 
d="M1579 76h182v1124h-182v-80q-13 47 -48 74.5t-79 30.5q-56 3 -100 -27q-23 181 -101.5 288t-203.5 107h-228v-1519h215v463h43q77 0 135 49q1 -129 12.5 -223t28.5 -150t43.5 -90t53 -46.5t61.5 -15.5q49 -5 97.5 25.5t70.5 87.5v-98zM1481 324q-32 -5 -54 24.5t-33 104
t-8 192.5q3 128 15.5 202t33.5 99.5t54 16.5q70 -22 70 -299q0 -146 -3 -158q-5 -41 -9 -66t-12 -54t-21.5 -44t-32.5 -18zM1034 811v506h41q36 0 60.5 -35.5t34.5 -90t10 -124.5q0 -119 -26 -187.5t-81 -68.5h-39zM340 74h147l95 923h8l-21 -923h197l-31 1519h-213
l-108 -1013h-2l-78 1013h-242l-31 -1519h197l-20 923h8z" />
    <glyph glyph-name="uni33AC" unicode="&#x33ac;" 
d="M1579 76h182v1124h-182v-80q-13 47 -48 74.5t-79 30.5q-86 3 -137 -62q-18 196 -98 313t-211 117h-228v-1519h215v463h43q104 0 176 94q0 -118 6.5 -209t20 -151.5t30.5 -101.5t41 -63.5t47.5 -32t53.5 -12.5q49 -5 97.5 25.5t70.5 87.5v-98zM1481 324q-32 -5 -54 24.5
t-33 104t-8 192.5q3 128 15.5 202t33.5 99.5t54 16.5q70 -22 70 -299q0 -146 -3 -158q-5 -41 -9 -66t-12 -54t-21.5 -44t-32.5 -18zM993 811v506h41q36 0 60.5 -35.5t34.5 -90t10 -124.5q0 -119 -26 -187.5t-81 -68.5h-39zM494 340q-24 -41 -61.5 -44t-67.5 28
q-36 35 -53 153t-17 354q0 150 8 253t25 163.5t39.5 87.5t54.5 31q92 11 115 -192l194 45q-19 165 -56 243.5t-124 128.5q-33 19 -86.5 25.5t-113.5 -7.5t-99 -50q-95 -88 -137.5 -260.5t-42.5 -467.5q0 -571 164 -714q118 -103 249 -72q155 37 209 248q22 85 28.5 200.5
t6.5 301.5v149h-321v-252h124q0 -286 -38 -352z" />
    <glyph glyph-name="uni33DD" unicode="&#x33dd;" horiz-adv-x="2048" 
d="M1655 57q44 -1 87 16t86 59t74.5 105.5t50 165t15.5 228.5q-7 318 -100.5 461t-241.5 129q-121 -12 -174 -84v456h-291v-1519h291v100q74 -114 203 -117zM1569 350q-107 33 -107 260q0 156 24 229.5t79 88.5q15 6 31 2t31 -12.5t28.5 -31.5t24 -54t16.5 -80.5t6 -110.5
q0 -54 -4.5 -99.5t-12 -76t-18 -54.5t-22.5 -36.5t-25 -20.5t-26 -7t-25 3zM612 782l95 -708h327l127 1126h-295l-6 -788l-98 788h-303l-94 -788l-9 788h-295l142 -1126h313z" />
    <glyph glyph-name="uni33D0" unicode="&#x33d0;" 
d="M563 74h334v792q13 68 55 76q14 2 23 -7.5t15.5 -49.5t6.5 -113v-698h318v807q12 51 43 61q18 6 28.5 -2t18.5 -48.5t8 -119.5v-698h318v780q0 372 -211 375h-23q-50 0 -112 -31.5t-97 -87.5q-6 40 -41.5 69t-72 39.5t-66.5 10.5h-10q-53 -3 -111.5 -29t-89.5 -70v70
h-334v-1126zM102 1624v-1550h336v1550h-336z" />
    <glyph glyph-name="uni33D3" unicode="&#x33d3;" 
d="M123 1624v-1550h352v1550h-352zM555 1200l348 -563l-360 -563h389l201 299l200 -299h396l-367 563l338 563h-389l-178 -315l-179 315h-399z" />
    <glyph glyph-name="uni33C3" unicode="&#x33c3;" 
d="M84 74h389q168 0 275.5 105.5t119.5 287.5q10 142 -37 254.5t-159 163.5q89 38 127.5 138.5t29.5 209.5q-14 178 -100 269t-270 91h-375v-1519zM389 1292h82q41 0 67.5 -38.5t26.5 -94.5q0 -60 -23.5 -98.5t-68.5 -38.5h-84v270zM389 713h74q61 0 95 -46t34 -122
q0 -170 -133 -170h-70v338zM1450 -180h291v1380h-291v-80q-54 95 -170 105q-72 5 -134.5 -24.5t-113.5 -96t-82 -184t-35 -275.5q-3 -131 16 -235t51 -167t76.5 -105t87.5 -58.5t89 -18.5q141 -6 215 93v-334zM1335 365q-70 -2 -105 61.5t-34 218.5q1 149 39.5 220.5
t107.5 56.5q46 -10 73.5 -89.5t27.5 -189.5v-76q-3 -81 -31 -141t-78 -61z" />
    <glyph glyph-name="uni33C9" unicode="&#x33c9;" 
d="M1194 344l-162 -498l332 -59l420 1413h-324l-117 -442l-129 442h-325l90 -256h-444v-313h180q4 -75 -12 -131.5t-48 -85.5q-37 -36 -93.5 -38t-96.5 27q-117 76 -117 428q0 198 36.5 311t123.5 142q61 21 117 -7.5t94 -123.5l254 147q-104 262 -303 316q-83 26 -182 15.5
t-177 -60.5q-75 -47 -127 -121t-80.5 -171.5t-40.5 -205t-12 -242.5q0 -280 65.5 -462.5t215.5 -262.5q112 -57 237 -53t228 64q220 126 207 678v82z" />
    <glyph glyph-name="uni33DC" unicode="&#x33dc;" 
d="M834 1200l319 -1126h320l327 1126h-362l-121 -680l-119 680h-364zM725 74q123 60 182 196.5t31 296.5q-9 56 -31.5 106.5t-59.5 97.5t-75.5 85t-93.5 86q-27 23 -77.5 65t-67 57.5t-38.5 39.5t-34 47q-24 47 -1.5 88.5t66.5 38.5q45 -3 86 -27.5t117 -91.5l168 252
q-172 219 -418 219q-83 0 -162 -34.5t-141 -106t-84 -166.5q-28 -123 19 -258.5t151 -235.5q67 -66 161 -139t122 -100q26 -24 36.5 -56.5t5.5 -60.5t-22 -49.5t-41 -26.5q-57 -14 -121.5 19t-189.5 143l-184 -268q58 -74 136 -134.5t152 -86.5q107 -37 216 -35.5t192 39.5z
" />
    <glyph glyph-name="uni33C6" unicode="&#x33c6;" horiz-adv-x="2048" 
d="M313 41l269 -72l286 1041v-1010h248v199l23 61l69 -260h256l-168 496l150 475h-248l-82 -309v645h-166l84 305l-266 69l-188 -680v3q-20 -20 -52.5 -28t-66.5 -1q-53 12 -85 65t-32 129q0 78 31.5 132.5t81.5 68.5q71 19 127 -27l57 232q-49 41 -90.5 57t-112.5 13
q-50 -2 -97 -17.5t-93.5 -51.5t-81 -88.5t-55.5 -134.5t-21 -184q0 -124 30 -218.5t80.5 -148t108.5 -80t121 -28.5q46 0 66 4zM1702 313q-41 -9 -64 41t-22 162q4 127 25 170t61 35q33 -7 46 -57t13 -158q0 -183 -59 -193zM1989 170v801h-230v-39q-33 59 -125 59
q-100 2 -165.5 -119.5t-71.5 -367.5q-6 -223 59 -337t168 -122q88 -6 127 51v-24q0 -46 -16 -89.5t-56 -54.5q-82 -22 -206 47l-37 -254q97 -41 184 -47q101 -6 165.5 17.5t110.5 77.5q53 72 73 165t20 236z" />
    <glyph glyph-name="AE" unicode="&#xc6;" 
d="M715 1149l116 -471h-233zM1706 1593h-1159l-481 -1519h385l73 276h381l74 -276h467q222 0 332 28v318q-184 -23 -346 -23h-170l-80 279h485v315h-577l-80 279h696v323z" />
    <glyph glyph-name="Eth" unicode="&#xd0;" 
d="M1309 834q0 -206 -80.5 -321.5t-237.5 -115.5h-223v260h272v328h-272v285h223q156 0 237 -116.5t81 -319.5zM1653 834q-1 177 -46.5 315.5t-136 238t-232.5 152t-331 53.5h-497v-608h-222v-328h222v-583h497q373 1 558.5 200t187.5 560z" />
    <glyph glyph-name="ordfeminine" unicode="&#xaa;" 
d="M1137 541h319v1052h-319v-86q-42 45 -111 74t-147 33q-97 5 -186.5 -27t-162.5 -96.5t-118 -173t-47 -246.5q-2 -141 36.5 -248t108.5 -170t158 -94t192 -31q80 0 155.5 27.5t121.5 73.5v-88zM907 811q-91 -8 -157.5 61.5t-65.5 198.5q1 83 38.5 145t88.5 89.5t104 25.5
q93 -3 154 -77t61 -199q0 -58 -4 -70q-32 -158 -219 -174zM1485 391h-1114v-317h1114v317z" />
    <glyph glyph-name="Hbar" unicode="&#x126;" 
d="M297 1593v-194h-178v-318h178v-1007h360v495h529v-495h360v1007h178v318h-178v194h-360v-194h-529v194h-360zM657 1081h529v-194h-529v194z" />
    <glyph glyph-name="IJ" unicode="&#x132;" 
d="M262 1593v-1519h365v1519h-365zM1217 1593v-1009q0 -84 -31.5 -127.5t-79.5 -46.5q-97 -6 -207 118l-217 -258q80 -101 185 -161t188 -70q113 -11 224 16t175 95q72 78 98.5 174t26.5 260v1009h-362z" />
    <glyph glyph-name="Ldot" unicode="&#x13f;" 
d="M1087 74q263 0 373 28v324q-184 -23 -325 -23h-390v1190h-364v-1519h706zM1364 702v351h-342v-351h342z" />
    <glyph glyph-name="Lslash" unicode="&#x141;" 
d="M1272 74q263 0 373 28v324q-184 -23 -326 -23h-389v318l528 227l-115 307l-413 -174v512h-365v-663l-366 -154l114 -321l252 108v-489h707z" />
    <glyph glyph-name="Oslash" unicode="&#xd8;" 
d="M903 55q348 0 542.5 204t194.5 572q0 254 -96 435l162 182l-266 235l-146 -163q-168 88 -391 88q-345 0 -537 -204.5t-192 -572.5q0 -277 109 -460l-148 -168l266 -238l144 164q154 -74 358 -74zM907 373q-81 0 -133 16l514 584q15 -65 15 -142q0 -222 -100 -340.5
t-296 -117.5zM1067 1262l-535 -609q-20 76 -20 178q0 219 104 338t291 121q87 0 160 -28z" />
    <glyph glyph-name="OE" unicode="&#x152;" 
d="M752 74h551q270 0 356 14v318q-173 -9 -309 -9h-101q57 141 68 281h309v315h-309q-10 127 -68 277h416v323h-854q-20 2 -59 2q-271 0 -421.5 -198t-150.5 -563q0 -369 147.5 -564.5t424.5 -195.5zM756 422q-241 0 -238 412q-1 209 62.5 310t175.5 103q110 -2 164 -101
t53 -312q1 -222 -52.5 -317t-164.5 -95z" />
    <glyph glyph-name="ordmasculine" unicode="&#xba;" 
d="M1481 391h-1114v-317h1114v317zM922 1325q119 0 185.5 -70t66.5 -188q0 -121 -68 -189.5t-184 -68.5t-184 68.5t-68 189.5q0 118 66.5 188t185.5 70zM922 516q259 -2 415 143.5t156 407.5q0 122 -43.5 225.5t-119.5 174t-181.5 110.5t-226.5 41q-163 -1 -292.5 -68.5
t-204.5 -193.5t-75 -289q0 -262 156.5 -407.5t415.5 -143.5z" />
    <glyph glyph-name="Thorn" unicode="&#xde;" 
d="M1219 854q-1 -140 -80 -207t-238 -65h-264v544h264q156 0 236 -72.5t82 -199.5zM1563 854q1 133 -43.5 241.5t-130.5 187.5t-219 122.5t-302 44.5h-233v143h-356v-1521h358l-2 186h233q352 -2 523 144t172 452z" />
    <glyph glyph-name="Tbar" unicode="&#x166;" 
d="M342 1593v-325h391v-217h-350v-326h350v-651h365v651h360v326h-360v217h401v325h-1157z" />
    <glyph glyph-name="Eng" unicode="&#x14a;" 
d="M1546 156v1437h-360v-831l-535 831h-354v-1519h360v944l535 -836q0 -55 -10 -80.5t-41 -42.5q-46 -22 -146 4l-16 -296q63 -19 128.5 -27.5t138.5 -1.5t128 33q92 43 131 134t41 251z" />
    <glyph glyph-name="uni3260" unicode="&#x3260;" 
d="M922 1726q-201 0 -366 -67.5t-274.5 -186.5t-169 -283.5t-59.5 -357.5t59.5 -357t169 -283.5t274.5 -186.5t366 -67t365.5 67t274 186.5t169 283.5t59.5 357t-59.5 357.5t-169 283.5t-274 186.5t-365.5 67.5zM922 1458q271 0 436.5 -172.5t165.5 -454.5q0 -291 -181 -469
q19 272 19 840h-924v-282h611q0 -312 -19 -562h307q-159 -153 -415 -153q-271 0 -437 172.5t-166 453.5q0 282 166 454.5t437 172.5z" />
    <glyph glyph-name="uni3261" unicode="&#x3261;" 
d="M838 1294h-334v-884h639q188 0 258 32v277q-96 -27 -248 -27h-315v602zM922 1726q-201 0 -366 -67.5t-274.5 -186.5t-169 -283.5t-59.5 -357.5t59.5 -357t169 -283.5t274.5 -186.5t366 -67t365.5 67t274 186.5t169 283.5t59.5 357t-59.5 357.5t-169 283.5t-274 186.5
t-365.5 67.5zM922 1458q271 0 436.5 -172.5t165.5 -454.5t-165.5 -454t-436.5 -172t-437 172.5t-166 453.5q0 282 166 454.5t437 172.5z" />
    <glyph glyph-name="uni3262" unicode="&#x3262;" 
d="M1087 684h-278v272h541v297h-875v-864h608h21q66 0 100.5 1t83.5 6.5t88 17.5v288q-42 -9 -86.5 -13.5t-64.5 -5t-74.5 0t-63.5 0.5zM922 1726q-201 0 -366 -67.5t-274.5 -186.5t-169 -283.5t-59.5 -357.5t59.5 -357t169 -283.5t274.5 -186.5t366 -67t365.5 67t274 186.5
t169 283.5t59.5 357t-59.5 357.5t-169 283.5t-274 186.5t-365.5 67.5zM922 1458q271 0 436.5 -172.5t165.5 -454.5t-165.5 -454t-436.5 -172t-437 172.5t-166 453.5q0 282 166 454.5t437 172.5z" />
    <glyph glyph-name="uni3263" unicode="&#x3263;" 
d="M506 1307q160 151 416 151q251 0 415 -151h-831zM1374 1268q150 -170 150 -437q0 -245 -131 -415v215h-607v63h588v574zM1335 354q-161 -149 -413 -149q-256 0 -414 149h827zM922 1726q-201 0 -366 -67.5t-274.5 -186.5t-169 -283.5t-59.5 -357.5t59.5 -357t169 -283.5
t274.5 -186.5t366 -67t365.5 67t274 186.5t169 283.5t59.5 357t-59.5 357.5t-169 283.5t-274 186.5t-365.5 67.5zM457 969v-559q-138 166 -138 421q0 263 144 429v-230h581v-61h-587z" />
    <glyph glyph-name="uni3264" unicode="&#x3264;" 
d="M1360 379q-163 -174 -438 -174q-276 0 -439 174h877zM438 432q-119 163 -119 399q0 239 119 398v-797zM465 1264q79 93 195.5 143.5t261.5 50.5q289 0 456 -194h-913zM1403 1233q121 -164 121 -402q0 -240 -121 -401v803zM1069 674h-295v293h295v-293zM922 1726
q-201 0 -366 -67.5t-274.5 -186.5t-169 -283.5t-59.5 -357.5t59.5 -357t169 -283.5t274.5 -186.5t366 -67t365.5 67t274 186.5t169 283.5t59.5 357t-59.5 357.5t-169 283.5t-274 186.5t-365.5 67.5z" />
    <glyph glyph-name="uni3265" unicode="&#x3265;" 
d="M1069 1270v-166h-295v166h-305q81 90 196.5 139t256.5 49q139 0 254 -49t196 -139h-303zM1403 1233q121 -164 121 -402q0 -240 -121 -401v803zM1352 371q-163 -166 -430 -166q-270 0 -430 166h860zM438 432q-119 163 -119 399q0 235 119 398v-797zM774 817h295v-149h-295
v149zM922 1726q-201 0 -366 -67.5t-274.5 -186.5t-169 -283.5t-59.5 -357.5t59.5 -357t169 -283.5t274.5 -186.5t366 -67t365.5 67t274 186.5t169 283.5t59.5 357t-59.5 357.5t-169 283.5t-274 186.5t-365.5 67.5z" />
    <glyph glyph-name="uni3266" unicode="&#x3266;" 
d="M340 655q-21 83 -21 176q0 282 166 454.5t437 172.5t436.5 -172.5t165.5 -454.5t-165.5 -454t-436.5 -172q-219 0 -372 115t-206 313l193 -236q255 159 385 338q90 -65 167.5 -148t161.5 -200l240 244q-185 244 -426 399q42 145 45 342h-346q-8 -170 -50.5 -287
t-128 -214t-245.5 -216zM922 1726q-201 0 -366 -67.5t-274.5 -186.5t-169 -283.5t-59.5 -357.5t59.5 -357t169 -283.5t274.5 -186.5t366 -67t365.5 67t274 186.5t169 283.5t59.5 357t-59.5 357.5t-169 283.5t-274 186.5t-365.5 67.5z" />
    <glyph glyph-name="uni3267" unicode="&#x3267;" 
d="M922 627q-77 0 -128 51.5t-51 142.5q0 92 49.5 143.5t129.5 51.5t129 -51.5t49 -143.5q0 -91 -50.5 -142.5t-127.5 -51.5zM1427 815q0 218 -138 361t-367 143t-367.5 -143t-138.5 -361q0 -226 139.5 -358.5t366.5 -132.5t366 132.5t139 358.5zM922 1726
q-201 0 -366 -67.5t-274.5 -186.5t-169 -283.5t-59.5 -357.5t59.5 -357t169 -283.5t274.5 -186.5t366 -67t365.5 67t274 186.5t169 283.5t59.5 357t-59.5 357.5t-169 283.5t-274 186.5t-365.5 67.5zM922 1458q271 0 436.5 -172.5t165.5 -454.5t-165.5 -454t-436.5 -172
t-437 172.5t-166 453.5q0 282 166 454.5t437 172.5z" />
    <glyph glyph-name="uni3268" unicode="&#x3268;" 
d="M1339 1298h-841q166 160 424 160q271 0 436.5 -172.5t165.5 -454.5t-165.5 -454t-436.5 -172t-437 172.5t-166 453.5q0 263 148 435v-271h479q-51 -94 -195 -195t-378 -186l164 -266q255 85 424 221q63 -40 123.5 -94t142.5 -139l225 233q-134 143 -268 228
q84 108 119.5 210t35.5 212v79zM922 1726q-201 0 -366 -67.5t-274.5 -186.5t-169 -283.5t-59.5 -357.5t59.5 -357t169 -283.5t274.5 -186.5t366 -67t365.5 67t274 186.5t169 283.5t59.5 357t-59.5 357.5t-169 283.5t-274 186.5t-365.5 67.5z" />
    <glyph glyph-name="uni3269" unicode="&#x3269;" 
d="M743 1219h-264v-297h475q-166 -188 -557 -312l158 -272q257 67 440 199q110 -58 269 -195l204 254q-164 133 -239 178q114 166 123 359v86h-262v170h-347v-170zM922 1726q-201 0 -366 -67.5t-274.5 -186.5t-169 -283.5t-59.5 -357.5t59.5 -357t169 -283.5t274.5 -186.5
t366 -67t365.5 67t274 186.5t169 283.5t59.5 357t-59.5 357.5t-169 283.5t-274 186.5t-365.5 67.5zM922 1458q271 0 436.5 -172.5t165.5 -454.5t-165.5 -454t-436.5 -172t-437 172.5t-166 453.5q0 282 166 454.5t437 172.5z" />
    <glyph glyph-name="uni326A" unicode="&#x326a;" 
d="M1063 381h299q-165 -176 -440 -176q-271 0 -437 172.5t-166 453.5q0 225 107 381v-276h655q0 -10 -1 -44t-1 -58h-635v-302h627q-4 -102 -8 -151zM444 1239q81 104 203.5 161.5t274.5 57.5t274 -57.5t201 -161.5h-953zM1417 1212q107 -160 107 -381q0 -239 -125 -405
q18 294 18 786zM922 1726q-201 0 -366 -67.5t-274.5 -186.5t-169 -283.5t-59.5 -357.5t59.5 -357t169 -283.5t274.5 -186.5t366 -67t365.5 67t274 186.5t169 283.5t59.5 357t-59.5 357.5t-169 283.5t-274 186.5t-365.5 67.5z" />
    <glyph glyph-name="uni326B" unicode="&#x326b;" 
d="M1122 631h-346v63h602v275h-602v61h615v219q133 -173 133 -418q0 -228 -113 -391v201q-82 -10 -289 -10zM1343 362q-163 -157 -421 -157q-256 0 -414 149h610q169 0 225 8zM446 422q-127 164 -127 409q0 247 127 408v-817zM506 1307q160 151 416 151q251 0 415 -151h-831
zM922 1726q-201 0 -366 -67.5t-274.5 -186.5t-169 -283.5t-59.5 -357.5t59.5 -357t169 -283.5t274.5 -186.5t366 -67t365.5 67t274 186.5t169 283.5t59.5 357t-59.5 357.5t-169 283.5t-274 186.5t-365.5 67.5z" />
    <glyph glyph-name="uni326C" unicode="&#x326c;" 
d="M993 684h-145v326h145v-326zM537 1010v-326h-119v-221q-99 157 -99 368q0 210 99 367v-188h119zM506 1307q160 151 416 151q251 0 415 -151h-831zM1423 1202q101 -160 101 -371q0 -208 -101 -372v225h-120v326h120v192zM1368 387q-165 -182 -446 -182q-285 0 -447 182
h893zM922 1726q-201 0 -366 -67.5t-274.5 -186.5t-169 -283.5t-59.5 -357.5t59.5 -357t169 -283.5t274.5 -186.5t366 -67t365.5 67t274 186.5t169 283.5t59.5 357t-59.5 357.5t-169 283.5t-274 186.5t-365.5 67.5z" />
    <glyph glyph-name="uni326D" unicode="&#x326d;" 
d="M1382 973v248h-288v178h-346v-178h-289v-248h923zM915 524q-61 0 -100 22.5t-39 63.5t37.5 64.5t101.5 23.5t102 -23.5t38 -64.5t-39.5 -63.5t-100.5 -22.5zM915 279q221 0 333 92t112 239q0 153 -110 243.5t-335 90.5t-334.5 -90.5t-109.5 -243.5q0 -147 111.5 -239
t332.5 -92zM922 1726q-201 0 -366 -67.5t-274.5 -186.5t-169 -283.5t-59.5 -357.5t59.5 -357t169 -283.5t274.5 -186.5t366 -67t365.5 67t274 186.5t169 283.5t59.5 357t-59.5 357.5t-169 283.5t-274 186.5t-365.5 67.5zM922 1458q271 0 436.5 -172.5t165.5 -454.5
t-165.5 -454t-436.5 -172t-437 172.5t-166 453.5q0 282 166 454.5t437 172.5z" />
    <glyph glyph-name="uni326E" unicode="&#x326e;" 
d="M1010 1294h-516q164 164 428 164q243 0 403 -141h-223v-1004h182q-151 -108 -362 -108q-271 0 -437 172.5t-166 453.5q0 228 111 388v-164h297q-5 -136 -89.5 -271.5t-254.5 -251.5l195 -184q205 131 314.5 341.5t117.5 477.5v127zM1520 745q-20 -196 -136 -337v323
q69 14 136 14zM1384 987v268q86 -106 121 -258q-70 0 -121 -10zM922 1726q-201 0 -366 -67.5t-274.5 -186.5t-169 -283.5t-59.5 -357.5t59.5 -357t169 -283.5t274.5 -186.5t366 -67t365.5 67t274 186.5t169 283.5t59.5 357t-59.5 357.5t-169 283.5t-274 186.5t-365.5 67.5z
" />
    <glyph glyph-name="uni326F" unicode="&#x326f;" 
d="M713 1300h-213q164 158 422 158q243 0 403 -141h-221v-1004h180q-151 -108 -362 -108q-262 0 -422 157h327q8 0 36 0.5t38.5 1t33.5 2t37 3t31.5 5t32.5 7.5v227q-78 -8 -205 -12h-118v704zM432 440q-113 163 -113 391q0 230 113 390v-781zM1520 745q-20 -196 -136 -337
v323q69 14 136 14zM1384 985v270q86 -106 121 -258q-72 0 -121 -12zM922 1726q-201 0 -366 -67.5t-274.5 -186.5t-169 -283.5t-59.5 -357.5t59.5 -357t169 -283.5t274.5 -186.5t366 -67t365.5 67t274 186.5t169 283.5t59.5 357t-59.5 357.5t-169 283.5t-274 186.5
t-365.5 67.5z" />
    <glyph glyph-name="uni3270" unicode="&#x3270;" 
d="M1520 745q-20 -196 -136 -337v323q69 14 136 14zM1384 985v270q86 -106 121 -258q-72 0 -121 -12zM1104 313h180q-151 -108 -362 -108q-262 0 -422 157h307q8 0 36 0.5t38.5 1t33.5 2t37 3t31.5 5t32.5 7.5v221q-78 -8 -205 -12h-98v477h278v227h-497q164 164 428 164
q243 0 403 -141h-221v-1004zM432 440q-113 163 -113 391q0 234 113 390v-781zM922 1726q-201 0 -366 -67.5t-274.5 -186.5t-169 -283.5t-59.5 -357.5t59.5 -357t169 -283.5t274.5 -186.5t366 -67t365.5 67t274 186.5t169 283.5t59.5 357t-59.5 357.5t-169 283.5t-274 186.5
t-365.5 67.5z" />
    <glyph glyph-name="uni3271" unicode="&#x3271;" 
d="M432 954v-514q-113 163 -113 391q0 239 119 398v-156h297v-119h-303zM506 1307q160 151 416 151q243 0 403 -141h-221v-1004h180q-151 -108 -362 -108q-261 0 -424 160h532v233h-336v131h301v578h-489zM1520 745q-20 -196 -136 -337v323q69 14 136 14zM1384 985v270
q86 -106 121 -258q-72 0 -121 -12zM922 1726q-201 0 -366 -67.5t-274.5 -186.5t-169 -283.5t-59.5 -357.5t59.5 -357t169 -283.5t274.5 -186.5t366 -67t365.5 67t274 186.5t169 283.5t59.5 357t-59.5 357.5t-169 283.5t-274 186.5t-365.5 67.5z" />
    <glyph glyph-name="uni3272" unicode="&#x3272;" 
d="M1001 365v929h-507q164 164 428 164q243 0 403 -141h-221v-1004h180q-151 -108 -362 -108q-261 0 -424 160h503zM432 440q-113 163 -113 391q0 234 113 390v-781zM766 588h-98v483h98v-483zM1520 745q-20 -196 -136 -337v323q69 14 136 14zM1384 985v270
q86 -106 121 -258q-72 0 -121 -12zM922 1726q-201 0 -366 -67.5t-274.5 -186.5t-169 -283.5t-59.5 -357.5t59.5 -357t169 -283.5t274.5 -186.5t366 -67t365.5 67t274 186.5t169 283.5t59.5 357t-59.5 357.5t-169 283.5t-274 186.5t-365.5 67.5z" />
    <glyph glyph-name="uni3273" unicode="&#x3273;" 
d="M766 1307v-273h-98v273h-162q160 151 416 151q243 0 403 -141h-221v-1004h180q-151 -108 -362 -108q-261 0 -424 160h503v942h-235zM432 440q-113 163 -113 391q0 234 113 390v-781zM668 807h98v-215h-98v215zM1520 745q-20 -196 -136 -337v323q69 14 136 14zM1384 985
v270q86 -106 121 -258q-72 0 -121 -12zM922 1726q-201 0 -366 -67.5t-274.5 -186.5t-169 -283.5t-59.5 -357.5t59.5 -357t169 -283.5t274.5 -186.5t366 -67t365.5 67t274 186.5t169 283.5t59.5 357t-59.5 357.5t-169 283.5t-274 186.5t-365.5 67.5z" />
    <glyph glyph-name="uni3274" unicode="&#x3274;" 
d="M369 559q-50 121 -50 272q0 282 166 454.5t437 172.5q243 0 403 -141h-223v-1004h182q-151 -108 -362 -108q-178 0 -313.5 76.5t-209.5 214.5l154 -129q105 117 166 221q79 -106 141 -228l193 164q-80 161 -222 350q41 181 41 420h-268q0 -267 -47.5 -414t-187.5 -321z
M1520 745q-20 -199 -138 -342v328q71 14 138 14zM1382 985v272q88 -107 123 -260q-71 0 -123 -12zM922 1726q-201 0 -366 -67.5t-274.5 -186.5t-169 -283.5t-59.5 -357.5t59.5 -357t169 -283.5t274.5 -186.5t366 -67t365.5 67t274 186.5t169 283.5t59.5 357t-59.5 357.5
t-169 283.5t-274 186.5t-365.5 67.5z" />
    <glyph glyph-name="uni3275" unicode="&#x3275;" 
d="M702 1079q12 0 21.5 -4t20.5 -18.5t18 -39.5t11.5 -71t4.5 -110q0 -78 -6.5 -129.5t-19 -74.5t-23.5 -30.5t-27 -7.5q-12 0 -21 4t-19.5 18.5t-17.5 39.5t-12 71t-5 109q0 64 5 110t12 71t17.5 39.5t19.5 18.5t21 4zM702 1323q-317 0 -317 -487q0 -488 317 -488
q316 0 316 488q0 487 -316 487zM1520 748q-21 -204 -134 -338v323q74 15 134 15zM1386 987v266q83 -102 119 -252q-78 -4 -119 -14zM1104 315h182q-147 -110 -364 -110q-271 0 -437 172.5t-166 453.5q0 282 166 454.5t437 172.5q237 0 401 -139h-219v-1004zM922 1726
q-201 0 -366 -67.5t-274.5 -186.5t-169 -283.5t-59.5 -357.5t59.5 -357t169 -283.5t274.5 -186.5t366 -67t365.5 67t274 186.5t169 283.5t59.5 357t-59.5 357.5t-169 283.5t-274 186.5t-365.5 67.5z" />
    <glyph glyph-name="uni3276" unicode="&#x3276;" 
d="M969 1294h-475q164 164 428 164q243 0 403 -141h-221v-1004h180q-151 -108 -362 -108q-169 0 -300 69t-208 195l116 -123q119 90 209 213q75 -96 131 -217l197 154q-78 161 -193 290q83 193 95 381v127zM371 557q-52 126 -52 274q0 194 82 343v-119h301
q-12 -119 -99.5 -247.5t-231.5 -250.5zM1520 745q-21 -197 -134 -335v321q69 14 134 14zM1386 987v266q84 -103 119 -256q-68 0 -119 -10zM922 1726q-201 0 -366 -67.5t-274.5 -186.5t-169 -283.5t-59.5 -357.5t59.5 -357t169 -283.5t274.5 -186.5t366 -67t365.5 67
t274 186.5t169 283.5t59.5 357t-59.5 357.5t-169 283.5t-274 186.5t-365.5 67.5z" />
    <glyph glyph-name="uni3277" unicode="&#x3277;" 
d="M977 1212h-150v127h-241v-127h-160q77 117 205.5 181.5t290.5 64.5q243 0 403 -141h-221v-1004h180q-151 -108 -362 -108q-167 0 -298 68t-208 192l110 -117q126 82 228 197q54 -68 125 -201l190 141q-82 169 -176 271q78 156 84 327v129zM373 547q-54 130 -54 284
q0 205 93 359v-217h303q-28 -185 -342 -426zM1520 748q-21 -200 -134 -338v325q53 9 134 13zM1386 989v264q84 -103 119 -256q-64 0 -119 -8zM922 1726q-201 0 -366 -67.5t-274.5 -186.5t-169 -283.5t-59.5 -357.5t59.5 -357t169 -283.5t274.5 -186.5t366 -67t365.5 67
t274 186.5t169 283.5t59.5 357t-59.5 357.5t-169 283.5t-274 186.5t-365.5 67.5z" />
    </font>
</defs>
</svg>
